<?xml version="1.0" encoding="UTF-8"?>
<!-- Uploaded to: SVG Repo, www.svgrepo.com, Generator: SVG Repo Mixer Tools -->
<svg fill="#000000" width="800px" height="800px" version="1.1" viewBox="144 144 512 512" xmlns="http://www.w3.org/2000/svg">
 <g>
  <path d="m246.9 280.86h-0.47266c-0.90234-34.102-16.238-66.219-42.191-88.355-0.29688-5.293-2.6641-10.258-6.5859-13.824s-9.0898-5.4492-14.387-5.2422c-5.2969 0.20703-10.301 2.4844-13.934 6.3477-3.6328 3.8594-5.6055 8.9922-5.4883 14.293 0.11328 5.3008 2.3086 10.344 6.1055 14.043s8.8984 5.7578 14.199 5.7305c2.418-0.046875 4.8086-0.53125 7.0508-1.4297 21.469 20.27 33.172 48.801 32.121 78.309-6.1641 6.1953-9.6211 14.578-9.6211 23.316v22.34c-8.8828 6.207-14.172 16.359-14.168 27.191v25.523c-8.9336 6.1719-14.262 16.332-14.266 27.188v200.2c0 5.8438 2.3203 11.449 6.457 15.586 4.1328 4.1328 9.7383 6.4531 15.586 6.4531h136.31-0.003906c5.8477 0 11.453-2.3203 15.586-6.4531 4.1367-4.1367 6.457-9.7422 6.457-15.586v-200.2c0.019532-10.836-5.2734-20.996-14.168-27.188v-25.523c-0.003907-10.855-5.3359-21.016-14.266-27.191v-22.34c-0.007812-8.7422-3.4766-17.125-9.6523-23.316-1.0508-29.508 10.652-58.039 32.121-78.309 2.2422 0.89844 4.6328 1.3867 7.0508 1.4297 5.3398 0.054687 10.488-2 14.324-5.7148 3.8359-3.7148 6.0547-8.793 6.1758-14.133 0.125-5.3359-1.8633-10.508-5.5273-14.395s-8.7109-6.1719-14.047-6.3633c-5.3398-0.19141-10.535 1.7266-14.469 5.3398-3.9336 3.6133-6.2852 8.6328-6.5469 13.965-25.953 22.137-41.289 54.254-42.191 88.355h-17.242v-66.879c5.25-3.6758 8.4102-9.6523 8.4883-16.059 0-7.2539-3.8672-13.953-10.148-17.578-6.2773-3.625-14.016-3.625-20.293 0-6.2812 3.625-10.148 10.324-10.148 17.578 0.078125 6.4062 3.2383 12.383 8.4883 16.059v66.832zm57.059 23.617c5.2852 0 9.5703 4.2852 9.5703 9.5703v16.344h-76.215v-16.344c0.007813-5.2891 4.2969-9.5703 9.5859-9.5703zm-95.125 111.78c0.007812-5.2891 4.2969-9.5703 9.5859-9.5703h114.05c5.2852 0 9.5703 4.2852 9.5703 9.5703v146.07h-133.24zm118.96-33.188h-104.73v-19.523c0.007813-5.2891 4.3008-9.5703 9.5898-9.5703h85.473c5.2852 0.007812 9.5625 4.2891 9.5742 9.5703zm-118.99 231.86v-28.953h133.21v28.953z"/>
  <path d="m495.77 357.02c-0.16797-35.277-15.625-68.746-42.367-91.754-0.30469-5.293-2.6758-10.25-6.6016-13.809-3.9258-3.5625-9.0938-5.4375-14.387-5.2266-5.2969 0.21094-10.297 2.4961-13.926 6.3555-3.6289 3.8633-5.5977 8.9961-5.4766 14.293 0.11719 5.3008 2.3086 10.34 6.1094 14.035 3.7969 3.6992 8.8906 5.7539 14.191 5.7305 2.418-0.042969 4.8086-0.53125 7.0547-1.4336 20.617 19.277 32.203 46.312 31.945 74.535-3.4375 1.7422-6.3281 4.3984-8.3594 7.6758-2.0273 3.2773-3.1172 7.0469-3.1523 10.902v29.52c-3.5859 1.3516-6.6758 3.7617-8.8633 6.9102-2.1836 3.1484-3.3594 6.8906-3.3672 10.723v13.824c0 1.7812 0.24609 3.5586 0.73828 5.2734l12.266 42.508c-3.7344 4.0156-5.8125 9.2891-5.8242 14.77v114.76c0 5.8438 2.3203 11.453 6.4531 15.586 4.1328 4.1328 9.7422 6.457 15.586 6.457h93.551c5.8477 0 11.453-2.3242 15.586-6.457 4.1328-4.1328 6.457-9.7422 6.457-15.586v-114.87c-0.019531-5.4648-2.0859-10.723-5.793-14.738l11.934-40.508c0.48437-1.6328 0.74609-3.3242 0.76953-5.0234l0.26953-15.742v-0.003906c0.10547-3.9023-1.0195-7.7383-3.2148-10.969-2.1953-3.2305-5.3516-5.6875-9.0195-7.0234v-29.473c-0.03125-3.8555-1.1211-7.625-3.1523-10.902-2.0273-3.2773-4.918-5.9336-8.3555-7.6758-0.26172-28.223 11.328-55.262 31.945-74.535 2.2422 0.90234 4.6328 1.3867 7.0508 1.4336 5.3398 0.050781 10.484-2 14.32-5.7148 3.8398-3.7148 6.0586-8.7891 6.1797-14.129 0.125-5.3359-1.8594-10.508-5.5234-14.395-3.6602-3.8867-8.707-6.1719-14.043-6.3672-5.3359-0.19531-10.531 1.7227-14.469 5.332-3.9336 3.6094-6.2891 8.625-6.5547 13.957-26.742 23.008-42.195 56.477-42.367 91.754h-17.004l0.003906-70.266c5.2422-3.6797 8.3984-9.6523 8.4844-16.059 0-7.25-3.8672-13.949-10.148-17.574-6.2773-3.625-14.012-3.625-20.293 0-6.2773 3.625-10.148 10.324-10.148 17.574 0.085938 6.4062 3.2422 12.383 8.4883 16.059v70.266zm68.977 23.617v25.773h-80.293l-0.003906-25.773zm12.203 49.391v9.8086l-11.762 39.941h-81.148l-11.855-40.539v-9.2109zm-7.1484 184.91h-90.438v-111.55h90.434z"/>
 </g>
</svg>