<svg xmlns="http://www.w3.org/2000/svg" xmlns:xlink="http://www.w3.org/1999/xlink" width="1600" zoomAndPan="magnify" viewBox="0 0 1200 591.000005" height="788" preserveAspectRatio="xMidYMid meet" version="1.0"><defs><g/><clipPath id="8e34795b4e"><path d="M 83.074219 59 L 554.777344 59 L 554.777344 530.703125 L 83.074219 530.703125 Z M 83.074219 59 " clip-rule="nonzero"/></clipPath><clipPath id="b47427a625"><path d="M 319.085938 521.539062 C 193.976562 521.539062 92.554688 420.121094 92.554688 295.011719 C 92.554688 169.902344 193.976562 68.480469 319.085938 68.480469 C 444.195312 68.480469 545.613281 169.902344 545.613281 295.011719 C 545.613281 420.121094 444.195312 521.539062 319.085938 521.539062 Z M 319.085938 59 C 188.738281 59 83.074219 164.664062 83.074219 295.011719 C 83.074219 425.355469 188.738281 531.019531 319.085938 531.019531 C 449.429688 531.019531 555.09375 425.355469 555.09375 295.011719 C 555.09375 164.664062 449.429688 59 319.085938 59 Z M 319.085938 59 " clip-rule="nonzero"/></clipPath><clipPath id="8134770f2f"><path d="M 168.339844 144.265625 L 470 144.265625 L 470 446 L 168.339844 446 Z M 168.339844 144.265625 " clip-rule="nonzero"/></clipPath><clipPath id="1d23a97e6a"><path d="M 319.082031 439.695312 C 239.171875 439.695312 174.394531 374.917969 174.394531 295.007812 C 174.394531 215.097656 239.171875 150.320312 319.082031 150.320312 C 398.992188 150.320312 463.769531 215.097656 463.769531 295.007812 C 463.769531 374.917969 398.992188 439.695312 319.082031 439.695312 Z M 319.082031 144.265625 C 235.828125 144.265625 168.339844 211.753906 168.339844 295.007812 C 168.339844 378.261719 235.828125 445.75 319.082031 445.75 C 402.335938 445.75 469.824219 378.261719 469.824219 295.007812 C 469.824219 211.753906 402.335938 144.265625 319.082031 144.265625 Z M 319.082031 144.265625 " clip-rule="nonzero"/></clipPath><linearGradient x1="517.701532" gradientTransform="matrix(0.493163, 0, 0, 0.493163, 168.338756, 144.264279)" y1="666.374674" x2="93.63276" gradientUnits="userSpaceOnUse" y2="-55.040067" id="988e423f3e"><stop stop-opacity="1" stop-color="rgb(12.254333%, 23.327637%, 43.815613%)" offset="0"/><stop stop-opacity="1" stop-color="rgb(12.319946%, 23.475647%, 43.994141%)" offset="0.0078125"/><stop stop-opacity="1" stop-color="rgb(12.452698%, 23.773193%, 44.34967%)" offset="0.015625"/><stop stop-opacity="1" stop-color="rgb(12.583923%, 24.069214%, 44.706726%)" offset="0.0234375"/><stop stop-opacity="1" stop-color="rgb(12.716675%, 24.36676%, 45.062256%)" offset="0.03125"/><stop stop-opacity="1" stop-color="rgb(12.8479%, 24.662781%, 45.419312%)" offset="0.0390625"/><stop stop-opacity="1" stop-color="rgb(12.980652%, 24.960327%, 45.774841%)" offset="0.046875"/><stop stop-opacity="1" stop-color="rgb(13.111877%, 25.256348%, 46.131897%)" offset="0.0546875"/><stop stop-opacity="1" stop-color="rgb(13.243103%, 25.553894%, 46.487427%)" offset="0.0625"/><stop stop-opacity="1" stop-color="rgb(13.375854%, 25.849915%, 46.844482%)" offset="0.0703125"/><stop stop-opacity="1" stop-color="rgb(13.50708%, 26.147461%, 47.200012%)" offset="0.078125"/><stop stop-opacity="1" stop-color="rgb(13.639832%, 26.443481%, 47.557068%)" offset="0.0859375"/><stop stop-opacity="1" stop-color="rgb(13.771057%, 26.741028%, 47.912598%)" offset="0.09375"/><stop stop-opacity="1" stop-color="rgb(13.902283%, 27.037048%, 48.269653%)" offset="0.101563"/><stop stop-opacity="1" stop-color="rgb(14.035034%, 27.334595%, 48.625183%)" offset="0.109375"/><stop stop-opacity="1" stop-color="rgb(14.16626%, 27.630615%, 48.982239%)" offset="0.117188"/><stop stop-opacity="1" stop-color="rgb(14.299011%, 27.928162%, 49.337769%)" offset="0.125"/><stop stop-opacity="1" stop-color="rgb(14.430237%, 28.224182%, 49.694824%)" offset="0.132813"/><stop stop-opacity="1" stop-color="rgb(14.561462%, 28.521729%, 50.050354%)" offset="0.140625"/><stop stop-opacity="1" stop-color="rgb(14.694214%, 28.817749%, 50.40741%)" offset="0.148438"/><stop stop-opacity="1" stop-color="rgb(14.825439%, 29.115295%, 50.762939%)" offset="0.15625"/><stop stop-opacity="1" stop-color="rgb(14.958191%, 29.411316%, 51.119995%)" offset="0.164063"/><stop stop-opacity="1" stop-color="rgb(15.089417%, 29.708862%, 51.475525%)" offset="0.171875"/><stop stop-opacity="1" stop-color="rgb(15.220642%, 30.004883%, 51.832581%)" offset="0.179688"/><stop stop-opacity="1" stop-color="rgb(15.353394%, 30.302429%, 52.18811%)" offset="0.1875"/><stop stop-opacity="1" stop-color="rgb(15.484619%, 30.59845%, 52.54364%)" offset="0.195312"/><stop stop-opacity="1" stop-color="rgb(15.617371%, 30.895996%, 52.900696%)" offset="0.203125"/><stop stop-opacity="1" stop-color="rgb(15.748596%, 31.192017%, 53.256226%)" offset="0.210938"/><stop stop-opacity="1" stop-color="rgb(15.881348%, 31.489563%, 53.613281%)" offset="0.21875"/><stop stop-opacity="1" stop-color="rgb(16.012573%, 31.785583%, 53.968811%)" offset="0.226563"/><stop stop-opacity="1" stop-color="rgb(16.143799%, 32.08313%, 54.325867%)" offset="0.234375"/><stop stop-opacity="1" stop-color="rgb(16.27655%, 32.380676%, 54.681396%)" offset="0.242188"/><stop stop-opacity="1" stop-color="rgb(16.407776%, 32.676697%, 55.038452%)" offset="0.25"/><stop stop-opacity="1" stop-color="rgb(16.540527%, 32.974243%, 55.393982%)" offset="0.257813"/><stop stop-opacity="1" stop-color="rgb(16.671753%, 33.270264%, 55.751038%)" offset="0.265625"/><stop stop-opacity="1" stop-color="rgb(16.802979%, 33.56781%, 56.106567%)" offset="0.273438"/><stop stop-opacity="1" stop-color="rgb(16.93573%, 33.863831%, 56.463623%)" offset="0.28125"/><stop stop-opacity="1" stop-color="rgb(17.066956%, 34.161377%, 56.819153%)" offset="0.289063"/><stop stop-opacity="1" stop-color="rgb(17.199707%, 34.457397%, 57.176208%)" offset="0.296875"/><stop stop-opacity="1" stop-color="rgb(17.330933%, 34.754944%, 57.531738%)" offset="0.304688"/><stop stop-opacity="1" stop-color="rgb(17.462158%, 35.050964%, 57.888794%)" offset="0.3125"/><stop stop-opacity="1" stop-color="rgb(17.59491%, 35.348511%, 58.244324%)" offset="0.320312"/><stop stop-opacity="1" stop-color="rgb(17.726135%, 35.644531%, 58.601379%)" offset="0.328125"/><stop stop-opacity="1" stop-color="rgb(17.858887%, 35.942078%, 58.956909%)" offset="0.335938"/><stop stop-opacity="1" stop-color="rgb(17.990112%, 36.238098%, 59.313965%)" offset="0.34375"/><stop stop-opacity="1" stop-color="rgb(18.121338%, 36.535645%, 59.669495%)" offset="0.351562"/><stop stop-opacity="1" stop-color="rgb(18.254089%, 36.831665%, 60.02655%)" offset="0.359375"/><stop stop-opacity="1" stop-color="rgb(18.385315%, 37.129211%, 60.38208%)" offset="0.367187"/><stop stop-opacity="1" stop-color="rgb(18.518066%, 37.425232%, 60.739136%)" offset="0.370209"/><stop stop-opacity="1" stop-color="rgb(18.583679%, 37.574768%, 60.917664%)" offset="0.375"/><stop stop-opacity="1" stop-color="rgb(18.649292%, 37.722778%, 61.094666%)" offset="0.382813"/><stop stop-opacity="1" stop-color="rgb(18.782043%, 38.018799%, 61.451721%)" offset="0.390625"/><stop stop-opacity="1" stop-color="rgb(18.913269%, 38.316345%, 61.807251%)" offset="0.398438"/><stop stop-opacity="1" stop-color="rgb(19.044495%, 38.612366%, 62.164307%)" offset="0.40625"/><stop stop-opacity="1" stop-color="rgb(19.177246%, 38.909912%, 62.519836%)" offset="0.414063"/><stop stop-opacity="1" stop-color="rgb(19.308472%, 39.205933%, 62.876892%)" offset="0.421875"/><stop stop-opacity="1" stop-color="rgb(19.441223%, 39.503479%, 63.232422%)" offset="0.429688"/><stop stop-opacity="1" stop-color="rgb(19.572449%, 39.7995%, 63.589478%)" offset="0.4375"/><stop stop-opacity="1" stop-color="rgb(19.703674%, 40.097046%, 63.945007%)" offset="0.445312"/><stop stop-opacity="1" stop-color="rgb(19.836426%, 40.393066%, 64.302063%)" offset="0.453125"/><stop stop-opacity="1" stop-color="rgb(19.967651%, 40.690613%, 64.657593%)" offset="0.460938"/><stop stop-opacity="1" stop-color="rgb(20.100403%, 40.986633%, 65.014648%)" offset="0.46875"/><stop stop-opacity="1" stop-color="rgb(20.231628%, 41.28418%, 65.370178%)" offset="0.476562"/><stop stop-opacity="1" stop-color="rgb(20.362854%, 41.5802%, 65.727234%)" offset="0.484375"/><stop stop-opacity="1" stop-color="rgb(20.495605%, 41.877747%, 66.082764%)" offset="0.492187"/><stop stop-opacity="1" stop-color="rgb(20.626831%, 42.173767%, 66.439819%)" offset="0.5"/><stop stop-opacity="1" stop-color="rgb(20.759583%, 42.471313%, 66.795349%)" offset="0.507812"/><stop stop-opacity="1" stop-color="rgb(20.890808%, 42.767334%, 67.150879%)" offset="0.515625"/><stop stop-opacity="1" stop-color="rgb(21.022034%, 43.06488%, 67.507935%)" offset="0.523438"/><stop stop-opacity="1" stop-color="rgb(21.154785%, 43.360901%, 67.863464%)" offset="0.53125"/><stop stop-opacity="1" stop-color="rgb(21.286011%, 43.658447%, 68.22052%)" offset="0.539063"/><stop stop-opacity="1" stop-color="rgb(21.418762%, 43.954468%, 68.57605%)" offset="0.546875"/><stop stop-opacity="1" stop-color="rgb(21.549988%, 44.252014%, 68.933105%)" offset="0.554688"/><stop stop-opacity="1" stop-color="rgb(21.682739%, 44.549561%, 69.288635%)" offset="0.5625"/><stop stop-opacity="1" stop-color="rgb(21.813965%, 44.845581%, 69.645691%)" offset="0.570312"/><stop stop-opacity="1" stop-color="rgb(21.94519%, 45.143127%, 70.001221%)" offset="0.578125"/><stop stop-opacity="1" stop-color="rgb(22.077942%, 45.439148%, 70.358276%)" offset="0.585938"/><stop stop-opacity="1" stop-color="rgb(22.209167%, 45.736694%, 70.713806%)" offset="0.59375"/><stop stop-opacity="1" stop-color="rgb(22.341919%, 46.032715%, 71.070862%)" offset="0.601562"/><stop stop-opacity="1" stop-color="rgb(22.473145%, 46.330261%, 71.426392%)" offset="0.609375"/><stop stop-opacity="1" stop-color="rgb(22.60437%, 46.626282%, 71.783447%)" offset="0.617188"/><stop stop-opacity="1" stop-color="rgb(22.737122%, 46.923828%, 72.138977%)" offset="0.625"/><stop stop-opacity="1" stop-color="rgb(22.868347%, 47.219849%, 72.496033%)" offset="0.629791"/><stop stop-opacity="1" stop-color="rgb(22.935486%, 47.369385%, 72.674561%)" offset="0.632812"/><stop stop-opacity="1" stop-color="rgb(23.001099%, 47.517395%, 72.851562%)" offset="0.640625"/><stop stop-opacity="1" stop-color="rgb(23.132324%, 47.813416%, 73.208618%)" offset="0.648438"/><stop stop-opacity="1" stop-color="rgb(23.26355%, 48.110962%, 73.564148%)" offset="0.65625"/><stop stop-opacity="1" stop-color="rgb(23.396301%, 48.406982%, 73.921204%)" offset="0.664062"/><stop stop-opacity="1" stop-color="rgb(23.527527%, 48.704529%, 74.276733%)" offset="0.671875"/><stop stop-opacity="1" stop-color="rgb(23.660278%, 49.000549%, 74.633789%)" offset="0.679688"/><stop stop-opacity="1" stop-color="rgb(23.791504%, 49.298096%, 74.989319%)" offset="0.6875"/><stop stop-opacity="1" stop-color="rgb(23.922729%, 49.594116%, 75.346375%)" offset="0.695312"/><stop stop-opacity="1" stop-color="rgb(24.055481%, 49.891663%, 75.701904%)" offset="0.703125"/><stop stop-opacity="1" stop-color="rgb(24.186707%, 50.187683%, 76.05896%)" offset="0.710937"/><stop stop-opacity="1" stop-color="rgb(24.319458%, 50.485229%, 76.41449%)" offset="0.71875"/><stop stop-opacity="1" stop-color="rgb(24.450684%, 50.78125%, 76.771545%)" offset="0.726562"/><stop stop-opacity="1" stop-color="rgb(24.583435%, 51.078796%, 77.127075%)" offset="0.734375"/><stop stop-opacity="1" stop-color="rgb(24.714661%, 51.374817%, 77.484131%)" offset="0.742188"/><stop stop-opacity="1" stop-color="rgb(24.845886%, 51.672363%, 77.839661%)" offset="0.75"/><stop stop-opacity="1" stop-color="rgb(24.978638%, 51.968384%, 78.196716%)" offset="0.757812"/><stop stop-opacity="1" stop-color="rgb(25.109863%, 52.26593%, 78.552246%)" offset="0.765625"/><stop stop-opacity="1" stop-color="rgb(25.242615%, 52.561951%, 78.909302%)" offset="0.773438"/><stop stop-opacity="1" stop-color="rgb(25.37384%, 52.859497%, 79.264832%)" offset="0.78125"/><stop stop-opacity="1" stop-color="rgb(25.505066%, 53.155518%, 79.621887%)" offset="0.789063"/><stop stop-opacity="1" stop-color="rgb(25.637817%, 53.453064%, 79.977417%)" offset="0.796875"/><stop stop-opacity="1" stop-color="rgb(25.769043%, 53.749084%, 80.334473%)" offset="0.804688"/><stop stop-opacity="1" stop-color="rgb(25.901794%, 54.046631%, 80.690002%)" offset="0.8125"/><stop stop-opacity="1" stop-color="rgb(26.03302%, 54.342651%, 81.047058%)" offset="0.820312"/><stop stop-opacity="1" stop-color="rgb(26.164246%, 54.640198%, 81.402588%)" offset="0.828125"/><stop stop-opacity="1" stop-color="rgb(26.296997%, 54.936218%, 81.758118%)" offset="0.835938"/><stop stop-opacity="1" stop-color="rgb(26.428223%, 55.233765%, 82.115173%)" offset="0.84375"/><stop stop-opacity="1" stop-color="rgb(26.560974%, 55.529785%, 82.470703%)" offset="0.851562"/><stop stop-opacity="1" stop-color="rgb(26.6922%, 55.827332%, 82.827759%)" offset="0.859375"/><stop stop-opacity="1" stop-color="rgb(26.823425%, 56.123352%, 83.183289%)" offset="0.867188"/><stop stop-opacity="1" stop-color="rgb(26.956177%, 56.420898%, 83.540344%)" offset="0.875"/><stop stop-opacity="1" stop-color="rgb(27.087402%, 56.718445%, 83.895874%)" offset="0.882812"/><stop stop-opacity="1" stop-color="rgb(27.220154%, 57.014465%, 84.25293%)" offset="0.890625"/><stop stop-opacity="1" stop-color="rgb(27.351379%, 57.312012%, 84.608459%)" offset="0.898438"/><stop stop-opacity="1" stop-color="rgb(27.484131%, 57.608032%, 84.965515%)" offset="0.90625"/><stop stop-opacity="1" stop-color="rgb(27.615356%, 57.905579%, 85.321045%)" offset="0.914062"/><stop stop-opacity="1" stop-color="rgb(27.746582%, 58.201599%, 85.678101%)" offset="0.921875"/><stop stop-opacity="1" stop-color="rgb(27.879333%, 58.499146%, 86.03363%)" offset="0.929688"/><stop stop-opacity="1" stop-color="rgb(28.010559%, 58.795166%, 86.390686%)" offset="0.9375"/><stop stop-opacity="1" stop-color="rgb(28.143311%, 59.092712%, 86.746216%)" offset="0.945312"/><stop stop-opacity="1" stop-color="rgb(28.274536%, 59.388733%, 87.103271%)" offset="0.953125"/><stop stop-opacity="1" stop-color="rgb(28.405762%, 59.686279%, 87.458801%)" offset="0.960937"/><stop stop-opacity="1" stop-color="rgb(28.538513%, 59.9823%, 87.815857%)" offset="0.96875"/><stop stop-opacity="1" stop-color="rgb(28.669739%, 60.279846%, 88.171387%)" offset="0.976562"/><stop stop-opacity="1" stop-color="rgb(28.80249%, 60.575867%, 88.528442%)" offset="0.984375"/><stop stop-opacity="1" stop-color="rgb(28.933716%, 60.873413%, 88.883972%)" offset="0.992188"/><stop stop-opacity="1" stop-color="rgb(29.064941%, 61.169434%, 89.241028%)" offset="1"/></linearGradient><clipPath id="ff52177893"><path d="M 182.507812 158.433594 L 455.640625 158.433594 L 455.640625 431.566406 L 182.507812 431.566406 Z M 182.507812 158.433594 " clip-rule="nonzero"/></clipPath><clipPath id="bcc8cc015a"><path d="M 319.074219 158.433594 C 243.652344 158.433594 182.507812 219.578125 182.507812 295 C 182.507812 370.425781 243.652344 431.566406 319.074219 431.566406 C 394.5 431.566406 455.640625 370.425781 455.640625 295 C 455.640625 219.578125 394.5 158.433594 319.074219 158.433594 Z M 319.074219 158.433594 " clip-rule="nonzero"/></clipPath><clipPath id="1397894b30"><path d="M 193.851562 290 L 320 290 L 320 372 L 193.851562 372 Z M 193.851562 290 " clip-rule="nonzero"/></clipPath><clipPath id="fa548fd307"><path d="M 319 290 L 443.929688 290 L 443.929688 372 L 319 372 Z M 319 290 " clip-rule="nonzero"/></clipPath><clipPath id="ab5454779c"><path d="M 319 326 L 428 326 L 428 380.625 L 319 380.625 Z M 319 326 " clip-rule="nonzero"/></clipPath><clipPath id="8a91af6e36"><path d="M 210 326 L 320 326 L 320 380.625 L 210 380.625 Z M 210 326 " clip-rule="nonzero"/></clipPath><clipPath id="72a54779d4"><path d="M 106.414062 312.582031 L 168.558594 312.582031 L 168.558594 374.726562 L 106.414062 374.726562 Z M 106.414062 312.582031 " clip-rule="nonzero"/></clipPath><clipPath id="67163d4c07"><path d="M 469.8125 312.582031 L 531.957031 312.582031 L 531.957031 374.726562 L 469.8125 374.726562 Z M 469.8125 312.582031 " clip-rule="nonzero"/></clipPath></defs><g clip-path="url(#8e34795b4e)"><g clip-path="url(#b47427a625)"><path fill="#0054a6" d="M 83.074219 59 L 83.074219 530.703125 L 554.777344 530.703125 L 554.777344 59 Z M 83.074219 59 " fill-opacity="1" fill-rule="nonzero"/></g></g><g clip-path="url(#8134770f2f)"><g clip-path="url(#1d23a97e6a)"><path fill="url(#988e423f3e)" d="M 168.339844 144.265625 L 168.339844 445.75 L 469.824219 445.75 L 469.824219 144.265625 Z M 168.339844 144.265625 " fill-rule="nonzero"/></g></g><g clip-path="url(#ff52177893)"><g clip-path="url(#bcc8cc015a)"><path fill="#0054a6" d="M 182.507812 158.433594 L 455.640625 158.433594 L 455.640625 431.566406 L 182.507812 431.566406 Z M 182.507812 158.433594 " fill-opacity="1" fill-rule="nonzero"/></g></g><path fill="#ffffff" d="M 257.519531 258.902344 C 258.828125 259.855469 260.4375 260.214844 261.925781 259.976562 L 266.453125 277.308594 C 264.546875 277.960938 262.761719 279.152344 261.449219 280.941406 C 258.234375 285.40625 259.246094 291.601562 263.652344 294.816406 C 268.121094 298.035156 274.316406 297.019531 277.53125 292.613281 C 277.53125 292.613281 277.589844 292.554688 277.589844 292.554688 L 313.5625 315.007812 C 311.597656 318.757812 312.550781 323.464844 316.066406 326.023438 C 319.9375 328.824219 325.296875 327.929688 328.09375 324.121094 C 330.417969 320.960938 330.179688 316.734375 327.855469 313.757812 L 345.722656 297.734375 C 346.023438 298.035156 346.320312 298.332031 346.617188 298.570312 C 350.488281 301.367188 355.847656 300.476562 358.648438 296.664062 C 360.136719 294.578125 360.554688 292.078125 360.078125 289.753906 L 376.695312 284.871094 C 377.109375 285.882812 377.765625 286.777344 378.71875 287.433594 C 381.398438 289.335938 385.09375 288.742188 387.058594 286.121094 C 388.964844 283.441406 388.367188 279.75 385.746094 277.785156 C 384.734375 277.070312 383.542969 276.652344 382.410156 276.652344 L 379.613281 240.320312 C 381.519531 240.023438 383.304688 239.011719 384.554688 237.285156 C 386.996094 233.949219 386.222656 229.246094 382.886719 226.800781 C 379.554688 224.359375 374.847656 225.132812 372.40625 228.46875 C 372.046875 228.945312 371.8125 229.421875 371.574219 229.957031 L 334.410156 217.570312 C 334.945312 215.25 334.050781 212.6875 332.027344 211.199219 C 329.285156 209.171875 325.414062 209.828125 323.390625 212.566406 C 322.617188 213.640625 322.199219 214.949219 322.199219 216.199219 L 299.863281 218.34375 C 299.625 217.214844 298.972656 216.199219 298.019531 215.488281 C 295.875 213.9375 292.835938 214.414062 291.230469 216.558594 C 289.917969 218.34375 290.039062 220.726562 291.347656 222.394531 L 264.726562 249.492188 C 264.667969 249.433594 264.605469 249.375 264.488281 249.316406 C 261.808594 247.410156 258.113281 248.003906 256.148438 250.625 C 254.242188 253.246094 254.839844 256.9375 257.519531 258.902344 Z M 292.300781 223.230469 C 292.777344 223.585938 293.253906 223.765625 293.789062 223.945312 L 289.917969 247.410156 C 288.847656 247.410156 287.835938 247.886719 287.179688 248.777344 C 286.761719 249.316406 286.582031 249.910156 286.523438 250.566406 L 266.8125 252.769531 C 266.632812 251.816406 266.214844 250.984375 265.558594 250.207031 L 292.183594 223.109375 C 292.242188 223.167969 292.242188 223.230469 292.300781 223.230469 Z M 279.4375 286.539062 C 279.378906 283.5625 277.949219 280.582031 275.328125 278.675781 C 275.207031 278.558594 275.03125 278.5 274.910156 278.378906 L 288.789062 254.019531 C 289.441406 254.257812 290.214844 254.257812 290.871094 254.078125 L 305.105469 283.144531 C 304.449219 283.5625 303.914062 284.039062 303.4375 284.691406 C 302.84375 285.527344 302.546875 286.417969 302.367188 287.371094 Z M 292.660156 252.886719 C 292.835938 252.648438 292.957031 252.351562 293.074219 252.054688 L 311.121094 255.449219 C 310.40625 260.453125 312.433594 265.695312 316.839844 268.910156 C 317.136719 269.148438 317.492188 269.328125 317.851562 269.566406 L 310.585938 282.847656 C 309.15625 282.25 307.609375 282.191406 306.179688 282.726562 L 291.945312 253.664062 C 292.183594 253.425781 292.480469 253.1875 292.660156 252.886719 Z M 311.71875 283.441406 C 311.65625 283.382812 311.597656 283.382812 311.597656 283.382812 L 318.863281 270.101562 C 320.414062 270.875 322.019531 271.292969 323.628906 271.46875 L 321.128906 310.363281 C 320.175781 310.363281 319.28125 310.539062 318.386719 310.839844 L 311.0625 293.507812 C 311.835938 293.089844 312.492188 292.554688 313.027344 291.78125 C 314.992188 289.097656 314.398438 285.40625 311.71875 283.441406 Z M 326.25 311.96875 C 325.058594 311.078125 323.6875 310.601562 322.316406 310.421875 L 324.820312 271.53125 C 327.855469 271.589844 330.835938 270.695312 333.335938 268.910156 L 345.960938 285.050781 C 345.546875 285.464844 345.128906 285.882812 344.773438 286.417969 C 342.449219 289.636719 342.6875 293.863281 345.007812 296.78125 L 327.140625 312.804688 C 326.84375 312.503906 326.546875 312.207031 326.25 311.96875 Z M 346.914062 284.335938 L 334.289062 268.195312 C 335.125 267.480469 335.898438 266.644531 336.550781 265.753906 C 338.757812 262.714844 339.53125 259.140625 339.113281 255.6875 L 359.304688 252.292969 C 359.480469 252.710938 359.78125 253.125 360.195312 253.425781 C 360.316406 253.484375 360.433594 253.542969 360.554688 253.601562 L 353.230469 283.023438 C 351.085938 282.609375 348.820312 283.085938 346.914062 284.335938 Z M 359.125 251.101562 L 338.933594 254.496094 C 338.21875 251.160156 336.375 248.125 333.394531 245.980469 C 331.371094 244.492188 329.109375 243.65625 326.785156 243.417969 L 328.453125 222.277344 C 329.761719 222.277344 331.074219 221.800781 332.144531 220.964844 L 359.601562 249.792969 C 359.304688 250.207031 359.183594 250.683594 359.125 251.101562 Z M 324.222656 220.667969 C 324.402344 220.847656 324.523438 220.964844 324.761719 221.144531 C 325.535156 221.738281 326.425781 222.039062 327.320312 222.214844 L 325.652344 243.359375 C 321.128906 243.179688 316.601562 245.207031 313.683594 249.195312 C 312.550781 250.804688 311.777344 252.53125 311.359375 254.316406 L 293.3125 250.921875 C 293.3125 250.269531 293.136719 249.613281 292.777344 249.078125 Z M 263.058594 259.617188 C 264.128906 259.203125 265.082031 258.546875 265.796875 257.535156 C 266.574219 256.460938 266.929688 255.210938 266.929688 253.960938 L 286.644531 251.757812 C 286.820312 252.414062 287.179688 252.949219 287.714844 253.425781 L 273.839844 277.785156 C 271.8125 276.769531 269.609375 276.53125 267.523438 276.949219 Z M 278.246094 291.480469 C 278.902344 290.289062 279.257812 289.039062 279.378906 287.730469 L 302.246094 288.625 C 302.367188 290.351562 303.140625 292.019531 304.6875 293.089844 C 306.238281 294.222656 308.203125 294.460938 309.929688 293.921875 L 317.257812 311.253906 C 316.066406 311.851562 314.992188 312.683594 314.160156 313.875 Z M 359.839844 288.503906 C 359.242188 286.957031 358.230469 285.585938 356.800781 284.511719 C 356.027344 283.976562 355.253906 283.621094 354.417969 283.324219 L 361.746094 253.960938 C 362.101562 253.960938 362.402344 253.902344 362.699219 253.78125 L 378.539062 277.902344 C 378.125 278.199219 377.765625 278.558594 377.46875 279.035156 C 376.457031 280.402344 376.160156 282.070312 376.457031 283.621094 Z M 381.21875 276.652344 C 380.625 276.769531 380.089844 276.949219 379.492188 277.246094 L 363.652344 253.125 C 363.710938 253.066406 363.828125 252.949219 363.890625 252.828125 C 364.542969 251.875 364.542969 250.683594 363.890625 249.730469 L 373.835938 238.714844 C 373.894531 238.773438 373.953125 238.832031 374.015625 238.832031 C 375.324219 239.785156 376.871094 240.261719 378.421875 240.261719 Z M 371.15625 231.03125 C 370.558594 233.472656 371.214844 236.09375 373 238 L 363.054688 249.015625 C 362.222656 248.539062 361.210938 248.601562 360.433594 249.015625 L 332.980469 220.132812 C 333.097656 220.011719 333.21875 219.894531 333.335938 219.714844 C 333.574219 219.359375 333.8125 219 333.992188 218.582031 Z M 322.316406 217.273438 C 322.496094 218.167969 322.855469 219 323.449219 219.773438 L 292.0625 248.183594 C 292.003906 248.183594 292.003906 248.125 292.003906 248.125 C 291.707031 247.945312 291.40625 247.765625 291.109375 247.707031 L 294.980469 224.242188 C 296.53125 224.300781 298.136719 223.585938 299.089844 222.214844 C 299.6875 221.382812 299.984375 220.429688 299.984375 219.476562 Z M 322.316406 217.273438 " fill-opacity="1" fill-rule="nonzero"/><g clip-path="url(#1397894b30)"><path fill="#ffffff" d="M 266.929688 319.414062 C 246.324219 304.882812 221.664062 294.519531 194.804688 290.886719 L 193.851562 321.738281 C 215.234375 320.070312 238.042969 323.882812 259.484375 332.933594 C 280.925781 341.867188 301.414062 354.96875 319.042969 371.585938 C 305.285156 351.574219 287.65625 333.886719 266.929688 319.414062 Z M 266.929688 319.414062 " fill-opacity="1" fill-rule="nonzero"/></g><g clip-path="url(#fa548fd307)"><path fill="#ffffff" d="M 443.339844 290.886719 C 416.480469 294.578125 391.820312 304.941406 371.214844 319.414062 C 350.546875 333.828125 332.859375 351.574219 319.101562 371.585938 C 336.730469 354.96875 357.21875 341.867188 378.660156 332.933594 C 400.101562 323.820312 422.851562 320.070312 444.292969 321.738281 Z M 443.339844 290.886719 " fill-opacity="1" fill-rule="nonzero"/></g><g clip-path="url(#ab5454779c)"><path fill="#ffffff" d="M 364.367188 345.621094 C 346.378906 355.328125 331.074219 367.296875 319.042969 380.816406 C 334.347656 369.621094 352.15625 360.808594 370.796875 354.730469 C 389.441406 348.597656 409.210938 346.035156 427.855469 347.167969 L 427.019531 326.382812 C 403.734375 328.882812 382.292969 335.851562 364.367188 345.621094 Z M 364.367188 345.621094 " fill-opacity="1" fill-rule="nonzero"/></g><g clip-path="url(#8a91af6e36)"><path fill="#ffffff" d="M 273.777344 345.621094 C 255.851562 335.851562 234.410156 328.824219 211.066406 326.382812 L 210.230469 347.167969 C 228.8125 346.035156 248.644531 348.597656 267.285156 354.730469 C 285.929688 360.746094 303.734375 369.621094 319.042969 380.816406 C 307.070312 367.359375 291.765625 355.386719 273.777344 345.621094 Z M 273.777344 345.621094 " fill-opacity="1" fill-rule="nonzero"/></g><g clip-path="url(#72a54779d4)"><path fill="#182b5c" d="M 168.335938 343.542969 C 168.335938 326.445312 154.476562 312.582031 137.375 312.582031 C 120.277344 312.582031 106.414062 326.445312 106.414062 343.542969 C 106.414062 360.644531 120.277344 374.503906 137.375 374.503906 C 154.476562 374.503906 168.335938 360.644531 168.335938 343.542969 Z M 134.230469 368.21875 C 134.53125 368.429688 134.925781 368.199219 134.925781 367.832031 L 134.925781 357.207031 C 134.925781 356.949219 134.714844 356.734375 134.457031 356.722656 C 132.207031 356.632812 130.011719 356.441406 127.882812 356.15625 C 127.535156 356.109375 127.253906 356.433594 127.351562 356.769531 C 128.042969 359.09375 128.898438 361.175781 129.875 362.953125 C 131.332031 365.605469 132.84375 367.261719 134.230469 368.21875 Z M 140.550781 356.710938 C 140.289062 356.722656 140.085938 356.9375 140.085938 357.199219 L 140.085938 367.644531 C 140.085938 368.023438 140.492188 368.25 140.792969 368.023438 C 142.105469 367.039062 143.515625 365.433594 144.875 362.953125 C 145.851562 361.175781 146.707031 359.09375 147.398438 356.769531 C 147.5 356.433594 147.214844 356.109375 146.867188 356.15625 C 144.820312 356.433594 142.710938 356.617188 140.550781 356.710938 Z M 140.589844 351.546875 C 140.3125 351.558594 140.085938 351.339844 140.085938 351.0625 L 140.085938 340.90625 C 140.085938 340.644531 140.289062 340.433594 140.546875 340.417969 C 143.3125 340.277344 145.988281 339.953125 148.511719 339.460938 C 148.796875 339.40625 149.070312 339.609375 149.089844 339.902344 C 149.175781 341.085938 149.21875 342.304688 149.21875 343.542969 C 149.21875 345.894531 149.058594 348.15625 148.769531 350.300781 C 148.742188 350.507812 148.582031 350.671875 148.375 350.707031 C 145.921875 351.128906 143.3125 351.417969 140.589844 351.546875 Z M 134.417969 335.261719 C 134.695312 335.277344 134.925781 335.058594 134.925781 334.78125 L 134.925781 319.257812 C 134.925781 318.886719 134.53125 318.660156 134.230469 318.867188 C 132.84375 319.828125 131.332031 321.484375 129.875 324.136719 C 128.441406 326.75 127.261719 330.023438 126.492188 333.761719 C 126.441406 334.023438 126.609375 334.273438 126.867188 334.328125 C 129.207031 334.800781 131.738281 335.125 134.417969 335.261719 Z M 140.085938 334.765625 C 140.085938 335.042969 140.316406 335.265625 140.59375 335.25 C 143.175781 335.101562 145.621094 334.785156 147.882812 334.328125 C 148.140625 334.273438 148.308594 334.023438 148.257812 333.761719 C 147.492188 330.023438 146.308594 326.75 144.875 324.136719 C 143.515625 321.65625 142.105469 320.050781 140.792969 319.066406 C 140.492188 318.839844 140.085938 319.066406 140.085938 319.445312 Z M 134.421875 351.558594 C 134.695312 351.570312 134.925781 351.347656 134.925781 351.074219 L 134.925781 340.917969 C 134.925781 340.65625 134.71875 340.445312 134.457031 340.433594 C 131.601562 340.296875 128.839844 339.96875 126.238281 339.460938 C 125.953125 339.40625 125.679688 339.609375 125.660156 339.902344 C 125.578125 341.085938 125.53125 342.304688 125.53125 343.542969 C 125.53125 345.894531 125.691406 348.15625 125.980469 350.300781 C 126.007812 350.507812 126.167969 350.671875 126.375 350.707031 C 128.90625 351.144531 131.601562 351.4375 134.421875 351.558594 Z M 150.101562 365.992188 C 149.679688 366.234375 149.226562 365.75 149.460938 365.324219 C 151.011719 362.464844 152.261719 359.058594 153.113281 355.28125 C 153.15625 355.097656 153.292969 354.957031 153.476562 354.910156 C 156.0625 354.273438 158.480469 353.480469 160.683594 352.550781 C 161.078125 352.386719 161.484375 352.765625 161.324219 353.160156 C 159.136719 358.601562 155.152344 363.125 150.101562 365.992188 Z M 154.144531 348.695312 C 154.113281 349.035156 154.433594 349.304688 154.765625 349.207031 C 157.945312 348.234375 160.699219 347.015625 162.898438 345.628906 C 163.027344 345.546875 163.109375 345.410156 163.121094 345.257812 C 163.15625 344.691406 163.175781 344.121094 163.175781 343.542969 C 163.175781 340.601562 162.683594 337.769531 161.773438 335.132812 C 161.671875 334.839844 161.324219 334.722656 161.058594 334.886719 C 159.160156 336.058594 156.941406 337.070312 154.480469 337.902344 C 154.261719 337.972656 154.125 338.183594 154.144531 338.410156 C 154.296875 340.082031 154.378906 341.796875 154.378906 343.542969 C 154.378906 345.296875 154.296875 347.019531 154.144531 348.695312 Z M 111.628906 345.257812 C 111.640625 345.410156 111.722656 345.546875 111.851562 345.628906 C 114.050781 347.015625 116.804688 348.234375 119.988281 349.207031 C 120.316406 349.304688 120.636719 349.035156 120.605469 348.695312 C 120.453125 347.019531 120.371094 345.296875 120.371094 343.542969 C 120.371094 341.796875 120.453125 340.082031 120.605469 338.410156 C 120.625 338.183594 120.488281 337.972656 120.273438 337.902344 C 117.808594 337.070312 115.589844 336.058594 113.691406 334.886719 C 113.429688 334.722656 113.078125 334.839844 112.976562 335.132812 C 112.066406 337.769531 111.574219 340.601562 111.574219 343.542969 C 111.574219 344.121094 111.59375 344.691406 111.628906 345.257812 Z M 121.636719 355.28125 C 121.59375 355.097656 121.457031 354.957031 121.277344 354.910156 C 118.6875 354.273438 116.269531 353.480469 114.066406 352.550781 C 113.671875 352.386719 113.265625 352.765625 113.425781 353.160156 C 115.613281 358.601562 119.597656 363.125 124.648438 365.992188 C 125.070312 366.234375 125.523438 365.75 125.289062 365.324219 C 123.738281 362.464844 122.488281 359.058594 121.636719 355.28125 Z M 159.023438 329.503906 C 159.164062 329.71875 159.105469 330.003906 158.890625 330.148438 C 157.503906 331.074219 155.804688 331.917969 153.859375 332.644531 C 153.582031 332.75 153.28125 332.578125 153.21875 332.289062 C 152.367188 328.316406 151.078125 324.742188 149.460938 321.765625 C 149.226562 321.335938 149.679688 320.855469 150.101562 321.09375 C 153.707031 323.144531 156.769531 326.035156 159.023438 329.503906 Z M 120.890625 332.644531 C 121.167969 332.75 121.46875 332.578125 121.53125 332.289062 C 122.382812 328.316406 123.671875 324.742188 125.289062 321.765625 C 125.523438 321.335938 125.070312 320.855469 124.648438 321.09375 C 121.042969 323.144531 117.980469 326.035156 115.726562 329.503906 C 115.585938 329.71875 115.644531 330.003906 115.859375 330.148438 C 117.25 331.074219 118.945312 331.917969 120.890625 332.644531 Z M 120.890625 332.644531 " fill-opacity="1" fill-rule="evenodd"/></g><g clip-path="url(#67163d4c07)"><path fill="#182b5c" d="M 531.734375 343.542969 C 531.734375 326.445312 517.871094 312.582031 500.773438 312.582031 C 483.671875 312.582031 469.8125 326.445312 469.8125 343.542969 C 469.8125 360.644531 483.671875 374.503906 500.773438 374.503906 C 517.871094 374.503906 531.734375 360.644531 531.734375 343.542969 Z M 497.628906 368.21875 C 497.929688 368.429688 498.320312 368.199219 498.320312 367.832031 L 498.320312 357.207031 C 498.320312 356.949219 498.113281 356.734375 497.851562 356.722656 C 495.605469 356.632812 493.40625 356.441406 491.28125 356.15625 C 490.933594 356.109375 490.648438 356.433594 490.75 356.769531 C 491.441406 359.09375 492.296875 361.175781 493.273438 362.953125 C 494.730469 365.605469 496.242188 367.261719 497.628906 368.21875 Z M 503.949219 356.710938 C 503.6875 356.722656 503.480469 356.9375 503.480469 357.199219 L 503.480469 367.644531 C 503.480469 368.023438 503.890625 368.25 504.191406 368.023438 C 505.503906 367.039062 506.910156 365.433594 508.273438 362.953125 C 509.25 361.175781 510.105469 359.09375 510.796875 356.769531 C 510.894531 356.433594 510.613281 356.109375 510.265625 356.15625 C 508.21875 356.433594 506.109375 356.617188 503.949219 356.710938 Z M 503.984375 351.546875 C 503.710938 351.558594 503.480469 351.339844 503.480469 351.0625 L 503.480469 340.90625 C 503.480469 340.644531 503.6875 340.433594 503.945312 340.417969 C 506.710938 340.277344 509.386719 339.953125 511.910156 339.460938 C 512.195312 339.40625 512.46875 339.609375 512.488281 339.902344 C 512.570312 341.085938 512.617188 342.304688 512.617188 343.542969 C 512.617188 345.894531 512.457031 348.15625 512.167969 350.300781 C 512.140625 350.507812 511.980469 350.671875 511.773438 350.707031 C 509.320312 351.128906 506.710938 351.417969 503.984375 351.546875 Z M 497.816406 335.261719 C 498.09375 335.277344 498.320312 335.058594 498.320312 334.78125 L 498.320312 319.257812 C 498.320312 318.886719 497.929688 318.660156 497.628906 318.867188 C 496.242188 319.828125 494.730469 321.484375 493.273438 324.136719 C 491.839844 326.75 490.65625 330.023438 489.890625 333.761719 C 489.839844 334.023438 490.003906 334.273438 490.265625 334.328125 C 492.601562 334.800781 495.136719 335.125 497.816406 335.261719 Z M 503.480469 334.765625 C 503.480469 335.042969 503.714844 335.265625 503.988281 335.25 C 506.574219 335.101562 509.019531 334.785156 511.28125 334.328125 C 511.539062 334.273438 511.707031 334.023438 511.65625 333.761719 C 510.886719 330.023438 509.707031 326.75 508.273438 324.136719 C 506.910156 321.65625 505.503906 320.050781 504.191406 319.066406 C 503.890625 318.839844 503.480469 319.066406 503.480469 319.445312 Z M 497.820312 351.558594 C 498.09375 351.570312 498.320312 351.347656 498.320312 351.074219 L 498.320312 340.917969 C 498.320312 340.65625 498.117188 340.445312 497.855469 340.433594 C 495 340.296875 492.238281 339.96875 489.636719 339.460938 C 489.351562 339.40625 489.078125 339.609375 489.058594 339.902344 C 488.972656 341.085938 488.929688 342.304688 488.929688 343.542969 C 488.929688 345.894531 489.089844 348.15625 489.378906 350.300781 C 489.40625 350.507812 489.566406 350.671875 489.773438 350.707031 C 492.304688 351.144531 495 351.4375 497.820312 351.558594 Z M 513.5 365.992188 C 513.078125 366.234375 512.625 365.75 512.859375 365.324219 C 514.410156 362.464844 515.660156 359.058594 516.511719 355.28125 C 516.554688 355.097656 516.691406 354.957031 516.871094 354.910156 C 519.460938 354.273438 521.878906 353.480469 524.082031 352.550781 C 524.476562 352.386719 524.882812 352.765625 524.722656 353.160156 C 522.535156 358.601562 518.550781 363.125 513.5 365.992188 Z M 517.542969 348.695312 C 517.511719 349.035156 517.832031 349.304688 518.160156 349.207031 C 521.34375 348.234375 524.097656 347.015625 526.296875 345.628906 C 526.425781 345.546875 526.507812 345.410156 526.519531 345.257812 C 526.554688 344.691406 526.574219 344.121094 526.574219 343.542969 C 526.574219 340.601562 526.082031 337.769531 525.171875 335.132812 C 525.070312 334.839844 524.71875 334.722656 524.457031 334.886719 C 522.558594 336.058594 520.339844 337.070312 517.875 337.902344 C 517.660156 337.972656 517.523438 338.183594 517.542969 338.410156 C 517.695312 340.082031 517.777344 341.796875 517.777344 343.542969 C 517.777344 345.296875 517.695312 347.019531 517.542969 348.695312 Z M 475.027344 345.257812 C 475.039062 345.410156 475.121094 345.546875 475.25 345.628906 C 477.449219 347.015625 480.203125 348.234375 483.382812 349.207031 C 483.714844 349.304688 484.035156 349.035156 484.003906 348.695312 C 483.851562 347.019531 483.769531 345.296875 483.769531 343.542969 C 483.769531 341.796875 483.851562 340.082031 484.003906 338.410156 C 484.023438 338.183594 483.886719 337.972656 483.667969 337.902344 C 481.207031 337.070312 478.988281 336.058594 477.089844 334.886719 C 476.824219 334.722656 476.476562 334.839844 476.375 335.132812 C 475.464844 337.769531 474.972656 340.601562 474.972656 343.542969 C 474.972656 344.121094 474.992188 344.691406 475.027344 345.257812 Z M 485.035156 355.28125 C 484.992188 355.097656 484.855469 354.957031 484.671875 354.910156 C 482.085938 354.273438 479.667969 353.480469 477.464844 352.550781 C 477.070312 352.386719 476.664062 352.765625 476.824219 353.160156 C 479.011719 358.601562 482.996094 363.125 488.046875 365.992188 C 488.46875 366.234375 488.921875 365.75 488.6875 365.324219 C 487.136719 362.464844 485.886719 359.058594 485.035156 355.28125 Z M 522.421875 329.503906 C 522.5625 329.71875 522.503906 330.003906 522.289062 330.148438 C 520.898438 331.074219 519.203125 331.917969 517.257812 332.644531 C 516.980469 332.75 516.679688 332.578125 516.617188 332.289062 C 515.765625 328.316406 514.476562 324.742188 512.859375 321.765625 C 512.625 321.335938 513.078125 320.855469 513.5 321.09375 C 517.105469 323.144531 520.167969 326.035156 522.421875 329.503906 Z M 484.289062 332.644531 C 484.566406 332.75 484.867188 332.578125 484.929688 332.289062 C 485.78125 328.316406 487.070312 324.742188 488.6875 321.765625 C 488.921875 321.335938 488.46875 320.855469 488.046875 321.09375 C 484.441406 323.144531 481.378906 326.035156 479.125 329.503906 C 478.984375 329.71875 479.042969 330.003906 479.257812 330.148438 C 480.644531 331.074219 482.34375 331.917969 484.289062 332.644531 Z M 484.289062 332.644531 " fill-opacity="1" fill-rule="evenodd"/></g><g fill="#182b5c" fill-opacity="1"><g transform="translate(157.795644, 273.803752)"><g><path d="M -3.015625 -24.28125 L -10.71875 -26.046875 L -8.375 -36.28125 L -1.90625 -34.796875 C 4.875 -33.242188 7.535156 -29.285156 6.078125 -22.921875 L 3.859375 -13.234375 C 2.398438 -6.867188 -1.71875 -4.460938 -8.5 -6.015625 L -39.53125 -13.125 C -46.300781 -14.6875 -48.957031 -18.648438 -47.5 -25.015625 L -45.28125 -34.703125 C -43.820312 -41.066406 -39.707031 -43.46875 -32.9375 -41.90625 L -28.25 -40.84375 L -30.59375 -30.609375 L -36.59375 -31.984375 C -37 -32.078125 -37.390625 -32.015625 -37.765625 -31.796875 C -38.140625 -31.578125 -38.375 -31.265625 -38.46875 -30.859375 L -39.578125 -26 C -39.671875 -25.59375 -39.59375 -25.210938 -39.34375 -24.859375 C -39.101562 -24.515625 -38.78125 -24.296875 -38.375 -24.203125 L -4.796875 -16.5 C -4.378906 -16.40625 -3.988281 -16.460938 -3.625 -16.671875 C -3.257812 -16.878906 -3.03125 -17.1875 -2.9375 -17.59375 L -1.828125 -22.453125 C -1.734375 -22.859375 -1.800781 -23.238281 -2.03125 -23.59375 C -2.269531 -23.957031 -2.597656 -24.1875 -3.015625 -24.28125 Z M -3.015625 -24.28125 "/></g></g></g><g fill="#182b5c" fill-opacity="1"><g transform="translate(172.348295, 222.517455)"><g><path d="M -16.953125 -50.90625 L 9.984375 -33.953125 C 15.867188 -30.242188 17.070312 -25.628906 13.59375 -20.109375 L 8 -11.21875 C 4.519531 -5.6875 -0.160156 -4.773438 -6.046875 -8.484375 L -32.984375 -25.4375 C -38.867188 -29.132812 -40.070312 -33.75 -36.59375 -39.28125 L -31 -48.171875 C -27.519531 -53.691406 -22.835938 -54.601562 -16.953125 -50.90625 Z M 5.15625 -23.90625 L -23.984375 -42.25 C -24.335938 -42.476562 -24.722656 -42.550781 -25.140625 -42.46875 C -25.566406 -42.394531 -25.894531 -42.179688 -26.125 -41.828125 L -28.78125 -37.609375 C -29 -37.253906 -29.050781 -36.867188 -28.9375 -36.453125 C -28.832031 -36.035156 -28.601562 -35.710938 -28.25 -35.484375 L 0.890625 -17.140625 C 1.253906 -16.921875 1.644531 -16.851562 2.0625 -16.9375 C 2.488281 -17.019531 2.8125 -17.238281 3.03125 -17.59375 L 5.6875 -21.8125 C 5.914062 -22.164062 5.972656 -22.546875 5.859375 -22.953125 C 5.753906 -23.367188 5.519531 -23.6875 5.15625 -23.90625 Z M 5.15625 -23.90625 "/></g></g></g><g fill="#182b5c" fill-opacity="1"><g transform="translate(202.648824, 177.22339)"><g><path d="M 12.125 -8.6875 L 3.15625 -2.25 L -21 -35.953125 C -25.039062 -41.609375 -24.410156 -46.34375 -19.109375 -50.15625 L -14.359375 -53.546875 C -11.234375 -55.785156 -8.273438 -56.347656 -5.484375 -55.234375 C -5.703125 -58.191406 -4.207031 -60.816406 -1 -63.109375 L 3.75 -66.515625 C 9.050781 -70.316406 13.722656 -69.390625 17.765625 -63.734375 L 41.921875 -30.03125 L 32.9375 -23.59375 L 8.234375 -58.078125 C 7.992188 -58.421875 7.660156 -58.632812 7.234375 -58.71875 C 6.816406 -58.8125 6.4375 -58.734375 6.09375 -58.484375 L 2.625 -56 C 2.28125 -55.757812 2.082031 -55.425781 2.03125 -55 C 1.988281 -54.570312 2.085938 -54.1875 2.328125 -53.84375 L 27.03125 -19.359375 L 18.03125 -12.921875 L -6.671875 -47.40625 C -6.910156 -47.75 -7.238281 -47.960938 -7.65625 -48.046875 C -8.070312 -48.140625 -8.457031 -48.0625 -8.8125 -47.8125 L -12.28125 -45.328125 C -12.613281 -45.085938 -12.804688 -44.753906 -12.859375 -44.328125 C -12.910156 -43.898438 -12.816406 -43.515625 -12.578125 -43.171875 Z M 12.125 -8.6875 "/></g></g></g><g fill="#182b5c" fill-opacity="1"><g transform="translate(263.206034, 139.916359)"><g><path d="M 10.890625 -55.328125 C 17.222656 -56.898438 21.226562 -54.3125 22.90625 -47.5625 L 25.34375 -37.671875 C 27.007812 -30.921875 24.675781 -26.757812 18.34375 -25.1875 L 9.671875 -23.046875 L 14.484375 -3.578125 L 3.765625 -0.921875 L -8.5 -50.53125 Z M 14.921875 -33.78125 L 11.875 -46.140625 C 11.769531 -46.546875 11.535156 -46.863281 11.171875 -47.09375 C 10.816406 -47.332031 10.441406 -47.40625 10.046875 -47.3125 L 4.046875 -45.828125 L 7.859375 -30.40625 L 13.859375 -31.890625 C 14.253906 -31.984375 14.554688 -32.222656 14.765625 -32.609375 C 14.972656 -32.992188 15.023438 -33.382812 14.921875 -33.78125 Z M 14.921875 -33.78125 "/></g></g></g><g fill="#182b5c" fill-opacity="1"><g transform="translate(314.751066, 129.984058)"><g><path d="M 26.59375 -48.96875 L 37.609375 -47.984375 L 33.96875 -6.6875 C 33.363281 0.25 29.804688 3.429688 23.296875 2.859375 L 13.5625 2 C 7.050781 1.425781 4.097656 -2.328125 4.703125 -9.265625 L 8.34375 -50.5625 L 19.34375 -49.59375 L 15.625 -7.34375 C 15.582031 -6.925781 15.691406 -6.546875 15.953125 -6.203125 C 16.222656 -5.859375 16.566406 -5.671875 16.984375 -5.640625 L 21.234375 -5.265625 C 21.660156 -5.222656 22.03125 -5.347656 22.34375 -5.640625 C 22.65625 -5.941406 22.832031 -6.300781 22.875 -6.71875 Z M 26.59375 -48.96875 "/></g></g></g><g fill="#182b5c" fill-opacity="1"><g transform="translate(368.553119, 138.062787)"><g><path d="M 17.3125 -37.953125 L 21 -46.609375 L 46.421875 -35.765625 L 42.734375 -27.109375 L 35.09375 -30.359375 L 18.734375 8 L 8.5625 3.65625 L 24.921875 -34.703125 Z M 17.3125 -37.953125 "/></g></g></g><g fill="#182b5c" fill-opacity="1"><g transform="translate(411.400101, 159.256116)"><g><path d="M 17.375 2.65625 L 26.75 10.53125 L 20.859375 17.53125 L 3.03125 2.546875 L 35.921875 -36.5625 L 53.75 -21.578125 L 47.953125 -14.6875 L 38.578125 -22.5625 L 30.859375 -13.375 L 39.625 -6 L 34.03125 0.640625 L 25.265625 -6.734375 Z M 17.375 2.65625 "/></g></g></g><g fill="#182b5c" fill-opacity="1"><g transform="translate(446.165536, 191.422691)"><g><path d="M 25.703125 1.65625 L 7.9375 12.734375 L 2.09375 3.359375 L 45.46875 -23.671875 L 55.859375 -7 C 59.316406 -1.445312 58.09375 3.164062 52.1875 6.84375 L 47.15625 9.984375 C 43.59375 12.203125 40.519531 12.34375 37.9375 10.40625 C 38.53125 13.144531 37.394531 15.410156 34.53125 17.203125 L 17.375 27.890625 L 11.53125 18.5 L 27.953125 8.265625 C 28.847656 7.703125 29.03125 6.992188 28.5 6.140625 Z M 44.9375 -10.328125 L 32.265625 -2.421875 L 35.359375 2.546875 C 35.578125 2.898438 35.898438 3.113281 36.328125 3.1875 C 36.753906 3.257812 37.144531 3.1875 37.5 2.96875 L 47.484375 -3.25 C 47.847656 -3.476562 48.082031 -3.796875 48.1875 -4.203125 C 48.300781 -4.617188 48.25 -5.003906 48.03125 -5.359375 Z M 44.9375 -10.328125 "/></g></g></g><g fill="#182b5c" fill-opacity="1"><g transform="translate(472.107841, 238.527238)"><g><path d="M 43.9375 23.0625 L 41.59375 12.828125 L 45.515625 11.921875 C 45.921875 11.828125 46.25 11.601562 46.5 11.25 C 46.75 10.90625 46.820312 10.523438 46.71875 10.109375 L 45.75 5.875 C 45.65625 5.46875 45.421875 5.15625 45.046875 4.9375 C 44.671875 4.726562 44.28125 4.671875 43.875 4.765625 L 35.03125 6.796875 C 34.613281 6.890625 34.285156 7.113281 34.046875 7.46875 C 33.804688 7.820312 33.734375 8.203125 33.828125 8.609375 L 35.421875 15.546875 C 36.773438 21.929688 34.113281 25.890625 27.4375 27.421875 L 16.734375 29.875 C 9.953125 31.425781 5.832031 29.019531 4.375 22.65625 L 2.296875 13.578125 C 0.835938 7.210938 3.5 3.253906 10.28125 1.703125 L 15.4375 0.515625 L 17.78125 10.75 L 12.234375 12.03125 C 11.828125 12.125 11.5 12.34375 11.25 12.6875 C 11.007812 13.039062 10.9375 13.421875 11.03125 13.828125 L 12.140625 18.609375 C 12.222656 19.015625 12.453125 19.328125 12.828125 19.546875 C 13.203125 19.765625 13.59375 19.828125 14 19.734375 L 23.78125 17.484375 C 24.195312 17.390625 24.523438 17.160156 24.765625 16.796875 C 25.003906 16.441406 25.082031 16.0625 25 15.65625 L 23.40625 8.734375 C 21.945312 2.367188 24.601562 -1.585938 31.375 -3.140625 L 41.3125 -5.40625 C 48.082031 -6.96875 52.195312 -4.566406 53.65625 1.796875 L 55.609375 10.34375 C 57.066406 16.695312 54.410156 20.65625 47.640625 22.21875 Z M 43.9375 23.0625 "/></g></g></g><g fill="#182b5c" fill-opacity="1"><g transform="translate(287.627098, 497.716715)"><g><path d="M 23.828125 -15.609375 C 23.785156 -15.191406 23.738281 -14.8125 23.6875 -14.46875 C 23.644531 -14.132812 23.601562 -13.75 23.5625 -13.3125 C 23.519531 -12.832031 23.484375 -12.40625 23.453125 -12.03125 C 23.429688 -11.65625 23.382812 -11.222656 23.3125 -10.734375 C 23.269531 -10.285156 23.210938 -9.882812 23.140625 -9.53125 C 23.078125 -9.175781 23.023438 -8.773438 22.984375 -8.328125 C 22.921875 -7.734375 22.878906 -7.191406 22.859375 -6.703125 C 22.847656 -6.210938 22.8125 -5.660156 22.75 -5.046875 C 22.6875 -4.421875 22.625 -3.859375 22.5625 -3.359375 C 22.5 -2.859375 22.4375 -2.28125 22.375 -1.625 L 22.25 -0.328125 C 22.238281 -0.296875 22.203125 -0.128906 22.140625 0.171875 C 22.078125 0.484375 21.960938 0.75 21.796875 0.96875 C 21.265625 1.582031 20.359375 1.921875 19.078125 1.984375 C 17.796875 2.054688 16.394531 2.019531 14.875 1.875 C 13.9375 1.78125 13.140625 1.691406 12.484375 1.609375 C 11.835938 1.535156 11.195312 1.390625 10.5625 1.171875 C 9.925781 0.953125 9.132812 0.617188 8.1875 0.171875 C 7.851562 -0.00390625 7.460938 -0.21875 7.015625 -0.46875 C 6.578125 -0.726562 6.195312 -1.019531 5.875 -1.34375 C 5.4375 -1.8125 5.085938 -2.242188 4.828125 -2.640625 C 4.578125 -3.035156 4.304688 -3.488281 4.015625 -4 C 3.566406 -4.8125 3.191406 -5.546875 2.890625 -6.203125 C 2.585938 -6.867188 2.367188 -7.625 2.234375 -8.46875 C 2.109375 -9.320312 2.035156 -10.457031 2.015625 -11.875 C 2.015625 -12.195312 2.007812 -12.679688 2 -13.328125 C 1.988281 -13.972656 2.023438 -14.722656 2.109375 -15.578125 C 2.171875 -16.140625 2.269531 -16.785156 2.40625 -17.515625 C 2.550781 -18.253906 2.71875 -18.96875 2.90625 -19.65625 C 3.101562 -20.351562 3.257812 -20.921875 3.375 -21.359375 C 3.5 -21.804688 3.5625 -22.03125 3.5625 -22.03125 C 3.757812 -22.5625 3.960938 -23.03125 4.171875 -23.4375 C 4.390625 -23.851562 4.644531 -24.296875 4.9375 -24.765625 C 5.507812 -25.679688 5.941406 -26.300781 6.234375 -26.625 C 6.546875 -26.957031 7.144531 -27.460938 8.03125 -28.140625 C 8.914062 -28.816406 9.894531 -29.34375 10.96875 -29.71875 C 11.613281 -29.96875 12.273438 -30.132812 12.953125 -30.21875 C 13.628906 -30.3125 14.28125 -30.382812 14.90625 -30.4375 C 15.820312 -30.488281 16.632812 -30.492188 17.34375 -30.453125 C 18.050781 -30.421875 18.554688 -30.390625 18.859375 -30.359375 L 19.296875 -30.3125 C 19.359375 -30.3125 19.582031 -30.285156 19.96875 -30.234375 C 20.351562 -30.179688 20.789062 -30.117188 21.28125 -30.046875 C 21.769531 -29.984375 22.210938 -29.925781 22.609375 -29.875 C 23.015625 -29.820312 23.242188 -29.78125 23.296875 -29.75 C 23.492188 -29.601562 23.671875 -29.425781 23.828125 -29.21875 C 23.992188 -29.007812 24.054688 -28.703125 24.015625 -28.296875 C 23.992188 -28.085938 23.960938 -27.894531 23.921875 -27.71875 C 23.890625 -27.539062 23.863281 -27.332031 23.84375 -27.09375 L 23.6875 -25.53125 C 23.625 -24.820312 23.5625 -24.144531 23.5 -23.5 C 23.4375 -22.863281 23.335938 -22.453125 23.203125 -22.265625 C 23.054688 -22.097656 22.90625 -21.96875 22.75 -21.875 C 22.59375 -21.789062 22.476562 -21.722656 22.40625 -21.671875 C 22.375 -21.648438 22.265625 -21.609375 22.078125 -21.546875 C 21.898438 -21.484375 21.722656 -21.460938 21.546875 -21.484375 C 21.242188 -21.515625 20.976562 -21.613281 20.75 -21.78125 C 20.53125 -21.957031 20.265625 -22.101562 19.953125 -22.21875 C 19.835938 -22.269531 19.585938 -22.328125 19.203125 -22.390625 C 18.816406 -22.460938 18.441406 -22.523438 18.078125 -22.578125 C 17.710938 -22.628906 17.453125 -22.660156 17.296875 -22.671875 C 16.054688 -22.796875 15.078125 -22.703125 14.359375 -22.390625 C 13.648438 -22.085938 13.035156 -21.601562 12.515625 -20.9375 C 12.378906 -20.800781 12.242188 -20.601562 12.109375 -20.34375 C 11.972656 -20.09375 11.875 -19.898438 11.8125 -19.765625 C 11.769531 -19.640625 11.726562 -19.453125 11.6875 -19.203125 C 11.644531 -18.953125 11.578125 -18.664062 11.484375 -18.34375 C 11.390625 -17.925781 11.28125 -17.578125 11.15625 -17.296875 C 11.039062 -17.015625 10.941406 -16.679688 10.859375 -16.296875 C 10.773438 -15.921875 10.703125 -15.375 10.640625 -14.65625 C 10.609375 -14.363281 10.585938 -14.070312 10.578125 -13.78125 C 10.566406 -13.5 10.546875 -13.195312 10.515625 -12.875 L 10.46875 -12.421875 C 10.4375 -12.128906 10.425781 -11.90625 10.4375 -11.75 C 10.445312 -11.601562 10.457031 -11.441406 10.46875 -11.265625 C 10.46875 -11.234375 10.519531 -11.039062 10.625 -10.6875 C 10.726562 -10.34375 10.835938 -9.957031 10.953125 -9.53125 C 11.078125 -9.113281 11.195312 -8.734375 11.3125 -8.390625 C 11.4375 -8.046875 11.515625 -7.847656 11.546875 -7.796875 C 11.597656 -7.691406 11.664062 -7.550781 11.75 -7.375 C 11.84375 -7.207031 11.976562 -7.035156 12.15625 -6.859375 C 12.351562 -6.679688 12.613281 -6.5 12.9375 -6.3125 C 13.257812 -6.132812 13.644531 -6.023438 14.09375 -5.984375 C 15.1875 -5.878906 15.765625 -6.175781 15.828125 -6.875 C 15.859375 -7.113281 15.863281 -7.328125 15.84375 -7.515625 C 15.832031 -7.710938 15.835938 -7.914062 15.859375 -8.125 C 15.890625 -8.457031 15.929688 -8.75 15.984375 -9 C 16.046875 -9.25 16.09375 -9.523438 16.125 -9.828125 C 16.175781 -10.410156 16.015625 -10.820312 15.640625 -11.0625 C 15.265625 -11.3125 14.988281 -11.445312 14.8125 -11.46875 C 14.65625 -11.476562 14.519531 -11.46875 14.40625 -11.4375 C 14.289062 -11.40625 14.15625 -11.398438 14 -11.421875 C 13.789062 -11.441406 13.570312 -11.570312 13.34375 -11.8125 C 13.113281 -12.0625 13.019531 -12.394531 13.0625 -12.8125 C 13.113281 -13.375 13.164062 -13.875 13.21875 -14.3125 C 13.28125 -14.75 13.351562 -15.253906 13.4375 -15.828125 C 13.457031 -16.117188 13.484375 -16.429688 13.515625 -16.765625 C 13.554688 -17.109375 13.59375 -17.296875 13.625 -17.328125 C 13.625 -17.359375 13.640625 -17.453125 13.671875 -17.609375 C 13.703125 -17.765625 13.773438 -17.90625 13.890625 -18.03125 C 14.054688 -18.269531 14.285156 -18.457031 14.578125 -18.59375 C 14.878906 -18.738281 15.269531 -18.785156 15.75 -18.734375 C 16.195312 -18.691406 16.585938 -18.640625 16.921875 -18.578125 C 17.265625 -18.515625 17.644531 -18.460938 18.0625 -18.421875 C 18.59375 -18.367188 19.0625 -18.320312 19.46875 -18.28125 C 19.882812 -18.238281 20.363281 -18.207031 20.90625 -18.1875 C 21.113281 -18.195312 21.289062 -18.203125 21.4375 -18.203125 C 21.582031 -18.203125 21.757812 -18.191406 21.96875 -18.171875 C 22.707031 -18.097656 23.203125 -17.890625 23.453125 -17.546875 C 23.710938 -17.210938 23.84375 -16.851562 23.84375 -16.46875 C 23.851562 -16.09375 23.847656 -15.804688 23.828125 -15.609375 Z M 23.828125 -15.609375 "/></g></g></g><g fill="#182b5c" fill-opacity="1"><g transform="translate(328.807935, 499.920991)"><g><path d="M 19.828125 -23.265625 C 19.878906 -22.785156 19.90625 -22.289062 19.90625 -21.78125 C 19.914062 -21.28125 19.925781 -20.550781 19.9375 -19.59375 C 19.945312 -19.175781 19.941406 -18.625 19.921875 -17.9375 C 19.898438 -17.25 19.738281 -16.4375 19.4375 -15.5 C 19.132812 -14.570312 18.566406 -13.546875 17.734375 -12.421875 C 17.210938 -11.703125 16.503906 -11.003906 15.609375 -10.328125 C 14.722656 -9.660156 13.507812 -9.25 11.96875 -9.09375 C 11.757812 -9.070312 11.535156 -9.054688 11.296875 -9.046875 C 11.054688 -9.046875 10.816406 -9.03125 10.578125 -9 L 10.484375 -9 C 10.273438 -8.976562 10.035156 -8.925781 9.765625 -8.84375 C 9.492188 -8.769531 9.257812 -8.609375 9.0625 -8.359375 C 8.863281 -8.109375 8.789062 -7.695312 8.84375 -7.125 C 8.875 -6.832031 8.910156 -6.570312 8.953125 -6.34375 C 9.003906 -6.125 9.046875 -5.867188 9.078125 -5.578125 C 9.140625 -5.296875 9.175781 -5.015625 9.1875 -4.734375 C 9.195312 -4.460938 9.234375 -4.171875 9.296875 -3.859375 C 9.328125 -3.617188 9.363281 -3.398438 9.40625 -3.203125 C 9.457031 -3.015625 9.5 -2.800781 9.53125 -2.5625 C 9.5625 -2.269531 9.53125 -1.941406 9.4375 -1.578125 C 9.351562 -1.210938 8.957031 -0.992188 8.25 -0.921875 C 7.71875 -0.867188 7.242188 -0.832031 6.828125 -0.8125 C 6.410156 -0.800781 5.953125 -0.769531 5.453125 -0.71875 C 4.972656 -0.675781 4.539062 -0.601562 4.15625 -0.5 C 3.78125 -0.40625 3.34375 -0.332031 2.84375 -0.28125 C 2.394531 -0.238281 2.050781 -0.316406 1.8125 -0.515625 C 1.570312 -0.722656 1.414062 -1.164062 1.34375 -1.84375 C 1.320312 -2.070312 1.304688 -2.296875 1.296875 -2.515625 C 1.285156 -2.742188 1.285156 -2.960938 1.296875 -3.171875 C 1.265625 -3.441406 1.222656 -3.679688 1.171875 -3.890625 C 1.128906 -4.097656 1.109375 -4.320312 1.109375 -4.5625 C 1.097656 -4.9375 1.097656 -5.273438 1.109375 -5.578125 C 1.117188 -5.878906 1.109375 -6.222656 1.078125 -6.609375 C 1.015625 -7.234375 0.925781 -7.859375 0.8125 -8.484375 C 0.707031 -9.117188 0.625 -9.75 0.5625 -10.375 C 0.476562 -11.226562 0.414062 -11.992188 0.375 -12.671875 C 0.34375 -13.347656 0.285156 -14.097656 0.203125 -14.921875 C 0.128906 -15.609375 0.0507812 -16.289062 -0.03125 -16.96875 C -0.113281 -17.644531 -0.1875 -18.3125 -0.25 -18.96875 C -0.363281 -20.09375 -0.453125 -21.113281 -0.515625 -22.03125 C -0.585938 -22.945312 -0.691406 -23.984375 -0.828125 -25.140625 C -0.941406 -25.972656 -1.046875 -26.710938 -1.140625 -27.359375 C -1.234375 -28.003906 -1.320312 -28.738281 -1.40625 -29.5625 C -1.5 -30.425781 -1.320312 -31.019531 -0.875 -31.34375 C -0.425781 -31.675781 0.140625 -31.878906 0.828125 -31.953125 C 1.128906 -31.984375 1.414062 -31.992188 1.6875 -31.984375 C 1.96875 -31.984375 2.242188 -32 2.515625 -32.03125 C 2.929688 -32.070312 3.335938 -32.125 3.734375 -32.1875 C 4.140625 -32.257812 4.53125 -32.316406 4.90625 -32.359375 C 5.175781 -32.390625 5.441406 -32.410156 5.703125 -32.421875 C 5.972656 -32.429688 6.242188 -32.445312 6.515625 -32.46875 C 6.898438 -32.476562 7.269531 -32.515625 7.625 -32.578125 C 7.976562 -32.648438 8.347656 -32.707031 8.734375 -32.75 C 10.703125 -33.007812 12.351562 -32.894531 13.6875 -32.40625 C 15.03125 -31.925781 16.109375 -31.25 16.921875 -30.375 C 17.390625 -29.851562 17.707031 -29.398438 17.875 -29.015625 C 18.050781 -28.628906 18.195312 -28.328125 18.3125 -28.109375 C 18.613281 -27.503906 18.910156 -26.863281 19.203125 -26.1875 C 19.492188 -25.519531 19.703125 -24.546875 19.828125 -23.265625 Z M 11.671875 -19.65625 C 11.648438 -19.925781 11.617188 -20.15625 11.578125 -20.34375 C 11.546875 -20.539062 11.515625 -20.773438 11.484375 -21.046875 C 11.460938 -21.304688 11.445312 -21.539062 11.4375 -21.75 C 11.4375 -21.957031 11.421875 -22.195312 11.390625 -22.46875 C 11.296875 -23.414062 11.003906 -24.125 10.515625 -24.59375 C 10.035156 -25.070312 9.5 -25.28125 8.90625 -25.21875 L 8.71875 -25.203125 C 8.46875 -25.171875 8.234375 -25.054688 8.015625 -24.859375 C 7.734375 -24.617188 7.546875 -24.253906 7.453125 -23.765625 C 7.367188 -23.273438 7.359375 -22.71875 7.421875 -22.09375 L 7.703125 -19.296875 C 7.785156 -18.460938 8.054688 -17.832031 8.515625 -17.40625 C 8.984375 -16.976562 9.453125 -16.804688 9.921875 -16.890625 C 10.253906 -16.921875 10.597656 -17.101562 10.953125 -17.4375 C 11.222656 -17.707031 11.425781 -18.003906 11.5625 -18.328125 C 11.695312 -18.648438 11.734375 -19.09375 11.671875 -19.65625 Z M 11.671875 -19.65625 "/></g></g></g><g fill="#182b5c" fill-opacity="1"><g transform="translate(591.14983, 250.427883)"><g><path d="M 22.984375 -8.375 L 22.984375 -16.265625 L 33.484375 -16.265625 L 33.484375 -9.640625 C 33.484375 -2.679688 30.21875 0.796875 23.6875 0.796875 L 13.75 0.796875 C 7.21875 0.796875 3.953125 -2.679688 3.953125 -9.640625 L 3.953125 -41.46875 C 3.953125 -48.414062 7.21875 -51.890625 13.75 -51.890625 L 23.6875 -51.890625 C 30.21875 -51.890625 33.484375 -48.414062 33.484375 -41.46875 L 33.484375 -36.65625 L 22.984375 -36.65625 L 22.984375 -42.8125 C 22.984375 -43.226562 22.835938 -43.59375 22.546875 -43.90625 C 22.253906 -44.226562 21.898438 -44.390625 21.484375 -44.390625 L 16.5 -44.390625 C 16.082031 -44.390625 15.726562 -44.226562 15.4375 -43.90625 C 15.144531 -43.59375 15 -43.226562 15 -42.8125 L 15 -8.375 C 15 -7.945312 15.144531 -7.578125 15.4375 -7.265625 C 15.726562 -6.953125 16.082031 -6.796875 16.5 -6.796875 L 21.484375 -6.796875 C 21.898438 -6.796875 22.253906 -6.953125 22.546875 -7.265625 C 22.835938 -7.578125 22.984375 -7.945312 22.984375 -8.375 Z M 22.984375 -8.375 "/></g></g></g><g fill="#182b5c" fill-opacity="1"><g transform="translate(652.605557, 250.427883)"><g><path d="M 34.046875 -41.46875 L 34.046875 -9.640625 C 34.046875 -2.679688 30.78125 0.796875 24.25 0.796875 L 13.75 0.796875 C 7.21875 0.796875 3.953125 -2.679688 3.953125 -9.640625 L 3.953125 -41.46875 C 3.953125 -48.414062 7.21875 -51.890625 13.75 -51.890625 L 24.25 -51.890625 C 30.78125 -51.890625 34.046875 -48.414062 34.046875 -41.46875 Z M 22.984375 -8.375 L 22.984375 -42.8125 C 22.984375 -43.226562 22.835938 -43.59375 22.546875 -43.90625 C 22.253906 -44.226562 21.898438 -44.390625 21.484375 -44.390625 L 16.5 -44.390625 C 16.082031 -44.390625 15.726562 -44.226562 15.4375 -43.90625 C 15.144531 -43.59375 15 -43.226562 15 -42.8125 L 15 -8.375 C 15 -7.945312 15.144531 -7.578125 15.4375 -7.265625 C 15.726562 -6.953125 16.082031 -6.796875 16.5 -6.796875 L 21.484375 -6.796875 C 21.898438 -6.796875 22.253906 -6.953125 22.546875 -7.265625 C 22.835938 -7.578125 22.984375 -7.945312 22.984375 -8.375 Z M 22.984375 -8.375 "/></g></g></g><g fill="#182b5c" fill-opacity="1"><g transform="translate(716.115068, 250.427883)"><g><path d="M 14.921875 0 L 3.875 0 L 3.875 -41.46875 C 3.875 -48.414062 7.140625 -51.890625 13.671875 -51.890625 L 19.515625 -51.890625 C 23.359375 -51.890625 26.09375 -50.625 27.71875 -48.09375 C 29.25 -50.625 31.988281 -51.890625 35.9375 -51.890625 L 41.78125 -51.890625 C 48.3125 -51.890625 51.578125 -48.414062 51.578125 -41.46875 L 51.578125 0 L 40.515625 0 L 40.515625 -42.421875 C 40.515625 -42.835938 40.367188 -43.203125 40.078125 -43.515625 C 39.796875 -43.835938 39.441406 -44 39.015625 -44 L 34.75 -44 C 34.332031 -44 33.976562 -43.835938 33.6875 -43.515625 C 33.394531 -43.203125 33.25 -42.835938 33.25 -42.421875 L 33.25 0 L 22.1875 0 L 22.1875 -42.421875 C 22.1875 -42.835938 22.039062 -43.203125 21.75 -43.515625 C 21.46875 -43.835938 21.113281 -44 20.6875 -44 L 16.421875 -44 C 16.003906 -44 15.648438 -43.835938 15.359375 -43.515625 C 15.066406 -43.203125 14.921875 -42.835938 14.921875 -42.421875 Z M 14.921875 0 "/></g></g></g><g fill="#182b5c" fill-opacity="1"><g transform="translate(796.607713, 250.427883)"><g><path d="M 23.859375 -51.109375 C 30.378906 -51.109375 33.640625 -47.628906 33.640625 -40.671875 L 33.640625 -30.484375 C 33.640625 -23.535156 30.378906 -20.0625 23.859375 -20.0625 L 14.921875 -20.0625 L 14.921875 0 L 3.875 0 L 3.875 -51.109375 Z M 22.59375 -29.21875 L 22.59375 -41.9375 C 22.59375 -42.363281 22.445312 -42.734375 22.15625 -43.046875 C 21.863281 -43.359375 21.507812 -43.515625 21.09375 -43.515625 L 14.921875 -43.515625 L 14.921875 -27.640625 L 21.09375 -27.640625 C 21.507812 -27.640625 21.863281 -27.796875 22.15625 -28.109375 C 22.445312 -28.429688 22.59375 -28.800781 22.59375 -29.21875 Z M 22.59375 -29.21875 "/></g></g></g><g fill="#182b5c" fill-opacity="1"><g transform="translate(857.115551, 250.427883)"><g><path d="M 22.1875 -51.109375 L 33.25 -51.109375 L 33.25 -9.640625 C 33.25 -2.679688 29.984375 0.796875 23.453125 0.796875 L 13.671875 0.796875 C 7.140625 0.796875 3.875 -2.679688 3.875 -9.640625 L 3.875 -51.109375 L 14.921875 -51.109375 L 14.921875 -8.6875 C 14.921875 -8.269531 15.066406 -7.898438 15.359375 -7.578125 C 15.648438 -7.265625 16.003906 -7.109375 16.421875 -7.109375 L 20.6875 -7.109375 C 21.113281 -7.109375 21.46875 -7.265625 21.75 -7.578125 C 22.039062 -7.898438 22.1875 -8.269531 22.1875 -8.6875 Z M 22.1875 -51.109375 "/></g></g></g><g fill="#182b5c" fill-opacity="1"><g transform="translate(919.282195, 250.427883)"><g><path d="M 1.03125 -41.703125 L 1.03125 -51.109375 L 28.671875 -51.109375 L 28.671875 -41.703125 L 20.375 -41.703125 L 20.375 0 L 9.3125 0 L 9.3125 -41.703125 Z M 1.03125 -41.703125 "/></g></g></g><g fill="#182b5c" fill-opacity="1"><g transform="translate(974.339623, 250.427883)"><g><path d="M 15 -9.15625 L 27.25 -9.15625 L 27.25 0 L 3.953125 0 L 3.953125 -51.109375 L 27.25 -51.109375 L 27.25 -42.09375 L 15 -42.09375 L 15 -30.09375 L 26.453125 -30.09375 L 26.453125 -21.40625 L 15 -21.40625 Z M 15 -9.15625 "/></g></g></g><g fill="#182b5c" fill-opacity="1"><g transform="translate(1029.318082, 250.427883)"><g><path d="M 15 -20.9375 L 15 0 L 3.953125 0 L 3.953125 -51.109375 L 23.609375 -51.109375 C 30.140625 -51.109375 33.40625 -47.628906 33.40625 -40.671875 L 33.40625 -34.75 C 33.40625 -30.539062 31.90625 -27.859375 28.90625 -26.703125 C 31.539062 -25.753906 32.859375 -23.59375 32.859375 -20.21875 L 32.859375 0 L 21.796875 0 L 21.796875 -19.34375 C 21.796875 -20.40625 21.296875 -20.9375 20.296875 -20.9375 Z M 15 -43.59375 L 15 -28.671875 L 20.859375 -28.671875 C 21.273438 -28.671875 21.628906 -28.828125 21.921875 -29.140625 C 22.210938 -29.460938 22.359375 -29.832031 22.359375 -30.25 L 22.359375 -42.015625 C 22.359375 -42.441406 22.210938 -42.8125 21.921875 -43.125 C 21.628906 -43.4375 21.273438 -43.59375 20.859375 -43.59375 Z M 15 -43.59375 "/></g></g></g><g fill="#182b5c" fill-opacity="1"><g transform="translate(1091.168764, 250.427883)"><g><path d="M 32.296875 -37.671875 L 21.796875 -37.671875 L 21.796875 -41.703125 C 21.796875 -42.117188 21.648438 -42.484375 21.359375 -42.796875 C 21.078125 -43.117188 20.722656 -43.28125 20.296875 -43.28125 L 15.953125 -43.28125 C 15.535156 -43.28125 15.179688 -43.117188 14.890625 -42.796875 C 14.597656 -42.484375 14.453125 -42.117188 14.453125 -41.703125 L 14.453125 -32.625 C 14.453125 -32.195312 14.597656 -31.828125 14.890625 -31.515625 C 15.179688 -31.203125 15.535156 -31.046875 15.953125 -31.046875 L 23.0625 -31.046875 C 29.59375 -30.941406 32.859375 -27.460938 32.859375 -20.609375 L 32.859375 -9.640625 C 32.859375 -2.679688 29.59375 0.796875 23.0625 0.796875 L 13.75 0.796875 C 7.21875 0.796875 3.953125 -2.679688 3.953125 -9.640625 L 3.953125 -14.921875 L 14.453125 -14.921875 L 14.453125 -9.234375 C 14.453125 -8.816406 14.597656 -8.445312 14.890625 -8.125 C 15.179688 -7.8125 15.535156 -7.65625 15.953125 -7.65625 L 20.859375 -7.65625 C 21.273438 -7.65625 21.628906 -7.8125 21.921875 -8.125 C 22.210938 -8.445312 22.359375 -8.816406 22.359375 -9.234375 L 22.359375 -19.265625 C 22.359375 -19.691406 22.210938 -20.0625 21.921875 -20.375 C 21.628906 -20.695312 21.273438 -20.859375 20.859375 -20.859375 L 13.75 -20.859375 C 7.21875 -20.859375 3.953125 -24.332031 3.953125 -31.28125 L 3.953125 -41.46875 C 3.953125 -48.414062 7.21875 -51.890625 13.75 -51.890625 L 22.515625 -51.890625 C 29.035156 -51.890625 32.296875 -48.414062 32.296875 -41.46875 Z M 32.296875 -37.671875 "/></g></g></g><g fill="#182b5c" fill-opacity="1"><g transform="translate(811.17207, 360.491646)"><g><path d="M 18.875 -20.296875 L 18.875 -28.4375 L 33.484375 -28.4375 L 33.484375 -9.640625 C 33.484375 -2.679688 30.21875 0.796875 23.6875 0.796875 L 13.75 0.796875 C 7.21875 0.796875 3.953125 -2.679688 3.953125 -9.640625 L 3.953125 -41.46875 C 3.953125 -48.414062 7.21875 -51.890625 13.75 -51.890625 L 23.6875 -51.890625 C 30.21875 -51.890625 33.484375 -48.414062 33.484375 -41.46875 L 33.484375 -36.65625 L 22.984375 -36.65625 L 22.984375 -42.8125 C 22.984375 -43.226562 22.835938 -43.59375 22.546875 -43.90625 C 22.253906 -44.226562 21.898438 -44.390625 21.484375 -44.390625 L 16.5 -44.390625 C 16.082031 -44.390625 15.726562 -44.226562 15.4375 -43.90625 C 15.144531 -43.59375 15 -43.226562 15 -42.8125 L 15 -8.375 C 15 -7.945312 15.144531 -7.578125 15.4375 -7.265625 C 15.726562 -6.953125 16.082031 -6.796875 16.5 -6.796875 L 21.484375 -6.796875 C 21.898438 -6.796875 22.253906 -6.953125 22.546875 -7.265625 C 22.835938 -7.578125 22.984375 -7.945312 22.984375 -8.375 L 22.984375 -20.296875 Z M 18.875 -20.296875 "/></g></g></g><g fill="#182b5c" fill-opacity="1"><g transform="translate(872.074861, 360.491646)"><g><path d="M 23.859375 -51.109375 C 30.378906 -51.109375 33.640625 -47.628906 33.640625 -40.671875 L 33.640625 -30.484375 C 33.640625 -23.535156 30.378906 -20.0625 23.859375 -20.0625 L 14.921875 -20.0625 L 14.921875 0 L 3.875 0 L 3.875 -51.109375 Z M 22.59375 -29.21875 L 22.59375 -41.9375 C 22.59375 -42.363281 22.445312 -42.734375 22.15625 -43.046875 C 21.863281 -43.359375 21.507812 -43.515625 21.09375 -43.515625 L 14.921875 -43.515625 L 14.921875 -27.640625 L 21.09375 -27.640625 C 21.507812 -27.640625 21.863281 -27.796875 22.15625 -28.109375 C 22.445312 -28.429688 22.59375 -28.800781 22.59375 -29.21875 Z M 22.59375 -29.21875 "/></g></g></g></svg>