<svg xmlns="http://www.w3.org/2000/svg" xmlns:xlink="http://www.w3.org/1999/xlink" width="500" zoomAndPan="magnify" viewBox="0 0 375 374.999991" height="500" preserveAspectRatio="xMidYMid meet" version="1.0"><defs><g/><clipPath id="29a5e79dd9"><path d="M 37.5 37.5 L 337.5 37.5 L 337.5 337.5 L 37.5 337.5 Z M 37.5 37.5 " clip-rule="nonzero"/></clipPath><clipPath id="925f5fe09e"><path d="M 187.507812 331.492188 C 107.988281 331.492188 43.527344 267.027344 43.527344 187.507812 C 43.527344 107.988281 107.988281 43.527344 187.507812 43.527344 C 267.027344 43.527344 331.492188 107.988281 331.492188 187.507812 C 331.492188 267.027344 267.027344 331.492188 187.507812 331.492188 Z M 187.507812 37.5 C 104.660156 37.5 37.5 104.660156 37.5 187.507812 C 37.5 270.355469 104.660156 337.515625 187.507812 337.515625 C 270.355469 337.515625 337.515625 270.355469 337.515625 187.507812 C 337.515625 104.660156 270.355469 37.5 187.507812 37.5 Z M 187.507812 37.5 " clip-rule="nonzero"/></clipPath><linearGradient x1="517.677615" gradientTransform="matrix(0.490757, 0, 0, 0.490757, 37.500004, 37.499999)" y1="666.333986" x2="93.632749" gradientUnits="userSpaceOnUse" y2="-55.040085" id="d643ce1aff"><stop stop-opacity="1" stop-color="rgb(75.85144%, 41.590881%, 20.570374%)" offset="0"/><stop stop-opacity="1" stop-color="rgb(75.950623%, 41.645813%, 20.596313%)" offset="0.015625"/><stop stop-opacity="1" stop-color="rgb(76.148987%, 41.755676%, 20.649719%)" offset="0.03125"/><stop stop-opacity="1" stop-color="rgb(76.347351%, 41.86554%, 20.701599%)" offset="0.046875"/><stop stop-opacity="1" stop-color="rgb(76.545715%, 41.975403%, 20.755005%)" offset="0.0625"/><stop stop-opacity="1" stop-color="rgb(76.74408%, 42.085266%, 20.806885%)" offset="0.078125"/><stop stop-opacity="1" stop-color="rgb(76.942444%, 42.195129%, 20.860291%)" offset="0.09375"/><stop stop-opacity="1" stop-color="rgb(77.142334%, 42.304993%, 20.913696%)" offset="0.109375"/><stop stop-opacity="1" stop-color="rgb(77.340698%, 42.414856%, 20.965576%)" offset="0.125"/><stop stop-opacity="1" stop-color="rgb(77.539062%, 42.524719%, 21.018982%)" offset="0.140625"/><stop stop-opacity="1" stop-color="rgb(77.737427%, 42.634583%, 21.070862%)" offset="0.15625"/><stop stop-opacity="1" stop-color="rgb(77.935791%, 42.744446%, 21.124268%)" offset="0.171875"/><stop stop-opacity="1" stop-color="rgb(78.134155%, 42.855835%, 21.176147%)" offset="0.1875"/><stop stop-opacity="1" stop-color="rgb(78.334045%, 42.965698%, 21.229553%)" offset="0.203125"/><stop stop-opacity="1" stop-color="rgb(78.53241%, 43.075562%, 21.281433%)" offset="0.21875"/><stop stop-opacity="1" stop-color="rgb(78.730774%, 43.185425%, 21.334839%)" offset="0.234375"/><stop stop-opacity="1" stop-color="rgb(78.929138%, 43.295288%, 21.388245%)" offset="0.25"/><stop stop-opacity="1" stop-color="rgb(79.127502%, 43.405151%, 21.440125%)" offset="0.265625"/><stop stop-opacity="1" stop-color="rgb(79.325867%, 43.515015%, 21.49353%)" offset="0.28125"/><stop stop-opacity="1" stop-color="rgb(79.525757%, 43.624878%, 21.54541%)" offset="0.296875"/><stop stop-opacity="1" stop-color="rgb(79.724121%, 43.734741%, 21.598816%)" offset="0.3125"/><stop stop-opacity="1" stop-color="rgb(79.922485%, 43.844604%, 21.650696%)" offset="0.328125"/><stop stop-opacity="1" stop-color="rgb(80.12085%, 43.954468%, 21.704102%)" offset="0.34375"/><stop stop-opacity="1" stop-color="rgb(80.319214%, 44.064331%, 21.755981%)" offset="0.359375"/><stop stop-opacity="1" stop-color="rgb(80.517578%, 44.174194%, 21.809387%)" offset="0.370209"/><stop stop-opacity="1" stop-color="rgb(80.61676%, 44.229126%, 21.836853%)" offset="0.375"/><stop stop-opacity="1" stop-color="rgb(80.715942%, 44.284058%, 21.862793%)" offset="0.390625"/><stop stop-opacity="1" stop-color="rgb(80.915833%, 44.393921%, 21.914673%)" offset="0.40625"/><stop stop-opacity="1" stop-color="rgb(81.114197%, 44.503784%, 21.968079%)" offset="0.421875"/><stop stop-opacity="1" stop-color="rgb(81.312561%, 44.615173%, 22.019958%)" offset="0.4375"/><stop stop-opacity="1" stop-color="rgb(81.510925%, 44.725037%, 22.073364%)" offset="0.453125"/><stop stop-opacity="1" stop-color="rgb(81.70929%, 44.8349%, 22.125244%)" offset="0.46875"/><stop stop-opacity="1" stop-color="rgb(81.907654%, 44.944763%, 22.17865%)" offset="0.484375"/><stop stop-opacity="1" stop-color="rgb(82.107544%, 45.054626%, 22.232056%)" offset="0.5"/><stop stop-opacity="1" stop-color="rgb(82.305908%, 45.16449%, 22.283936%)" offset="0.515625"/><stop stop-opacity="1" stop-color="rgb(82.504272%, 45.274353%, 22.337341%)" offset="0.53125"/><stop stop-opacity="1" stop-color="rgb(82.702637%, 45.384216%, 22.389221%)" offset="0.546875"/><stop stop-opacity="1" stop-color="rgb(82.901001%, 45.49408%, 22.442627%)" offset="0.5625"/><stop stop-opacity="1" stop-color="rgb(83.099365%, 45.603943%, 22.494507%)" offset="0.578125"/><stop stop-opacity="1" stop-color="rgb(83.299255%, 45.713806%, 22.547913%)" offset="0.59375"/><stop stop-opacity="1" stop-color="rgb(83.49762%, 45.823669%, 22.599792%)" offset="0.609375"/><stop stop-opacity="1" stop-color="rgb(83.695984%, 45.933533%, 22.653198%)" offset="0.625"/><stop stop-opacity="1" stop-color="rgb(83.894348%, 46.043396%, 22.706604%)" offset="0.629791"/><stop stop-opacity="1" stop-color="rgb(83.99353%, 46.098328%, 22.732544%)" offset="0.640625"/><stop stop-opacity="1" stop-color="rgb(84.092712%, 46.153259%, 22.758484%)" offset="0.65625"/><stop stop-opacity="1" stop-color="rgb(84.291077%, 46.264648%, 22.81189%)" offset="0.671875"/><stop stop-opacity="1" stop-color="rgb(84.489441%, 46.374512%, 22.86377%)" offset="0.6875"/><stop stop-opacity="1" stop-color="rgb(84.689331%, 46.484375%, 22.917175%)" offset="0.703125"/><stop stop-opacity="1" stop-color="rgb(84.887695%, 46.594238%, 22.969055%)" offset="0.71875"/><stop stop-opacity="1" stop-color="rgb(85.08606%, 46.704102%, 23.022461%)" offset="0.734375"/><stop stop-opacity="1" stop-color="rgb(85.284424%, 46.813965%, 23.075867%)" offset="0.75"/><stop stop-opacity="1" stop-color="rgb(85.482788%, 46.923828%, 23.127747%)" offset="0.765625"/><stop stop-opacity="1" stop-color="rgb(85.681152%, 47.033691%, 23.181152%)" offset="0.78125"/><stop stop-opacity="1" stop-color="rgb(85.881042%, 47.143555%, 23.233032%)" offset="0.796875"/><stop stop-opacity="1" stop-color="rgb(86.079407%, 47.253418%, 23.286438%)" offset="0.8125"/><stop stop-opacity="1" stop-color="rgb(86.277771%, 47.363281%, 23.338318%)" offset="0.828125"/><stop stop-opacity="1" stop-color="rgb(86.476135%, 47.473145%, 23.391724%)" offset="0.84375"/><stop stop-opacity="1" stop-color="rgb(86.6745%, 47.583008%, 23.443604%)" offset="0.859375"/><stop stop-opacity="1" stop-color="rgb(86.872864%, 47.692871%, 23.497009%)" offset="0.875"/><stop stop-opacity="1" stop-color="rgb(87.071228%, 47.802734%, 23.550415%)" offset="0.890625"/><stop stop-opacity="1" stop-color="rgb(87.271118%, 47.912598%, 23.602295%)" offset="0.90625"/><stop stop-opacity="1" stop-color="rgb(87.469482%, 48.023987%, 23.655701%)" offset="0.921875"/><stop stop-opacity="1" stop-color="rgb(87.667847%, 48.13385%, 23.707581%)" offset="0.9375"/><stop stop-opacity="1" stop-color="rgb(87.866211%, 48.243713%, 23.760986%)" offset="0.953125"/><stop stop-opacity="1" stop-color="rgb(88.064575%, 48.353577%, 23.812866%)" offset="0.96875"/><stop stop-opacity="1" stop-color="rgb(88.262939%, 48.46344%, 23.866272%)" offset="0.984375"/><stop stop-opacity="1" stop-color="rgb(88.46283%, 48.573303%, 23.919678%)" offset="1"/></linearGradient><clipPath id="617bdaa42e"><path d="M 91.691406 91.691406 L 282.941406 91.691406 L 282.941406 282.941406 L 91.691406 282.941406 Z M 91.691406 91.691406 " clip-rule="nonzero"/></clipPath><clipPath id="6fff22ed17"><path d="M 187.503906 279.46875 C 136.714844 279.46875 95.542969 238.296875 95.542969 187.503906 C 95.542969 136.714844 136.714844 95.542969 187.503906 95.542969 C 238.296875 95.542969 279.46875 136.714844 279.46875 187.503906 C 279.46875 238.296875 238.296875 279.46875 187.503906 279.46875 Z M 187.503906 91.691406 C 134.589844 91.691406 91.691406 134.589844 91.691406 187.503906 C 91.691406 240.421875 134.589844 283.316406 187.503906 283.316406 C 240.421875 283.316406 283.316406 240.421875 283.316406 187.503906 C 283.316406 134.589844 240.421875 91.691406 187.503906 91.691406 Z M 187.503906 91.691406 " clip-rule="nonzero"/></clipPath><clipPath id="74fbd58fa3"><path d="M 107.910156 184 L 188 184 L 188 237 L 107.910156 237 Z M 107.910156 184 " clip-rule="nonzero"/></clipPath><clipPath id="782e73f549"><path d="M 187 184 L 266.910156 184 L 266.910156 237 L 187 237 Z M 187 184 " clip-rule="nonzero"/></clipPath><clipPath id="dc4b1e4b82"><path d="M 187 207 L 257 207 L 257 241.695312 L 187 241.695312 Z M 187 207 " clip-rule="nonzero"/></clipPath><clipPath id="6a3a4c6deb"><path d="M 118 207 L 188 207 L 188 241.695312 L 118 241.695312 Z M 118 207 " clip-rule="nonzero"/></clipPath><clipPath id="6272cf20fd"><path d="M 52.335938 193.238281 L 91.335938 193.238281 L 91.335938 232.238281 L 52.335938 232.238281 Z M 52.335938 193.238281 " clip-rule="nonzero"/></clipPath><clipPath id="6f59e20d87"><path d="M 283.300781 193.238281 L 322.300781 193.238281 L 322.300781 232.238281 L 283.300781 232.238281 Z M 283.300781 193.238281 " clip-rule="nonzero"/></clipPath></defs><g clip-path="url(#29a5e79dd9)"><g clip-path="url(#925f5fe09e)"><path fill="url(#d643ce1aff)" d="M 37.5 37.5 L 37.5 337.5 L 337.5 337.5 L 337.5 37.5 Z M 37.5 37.5 " fill-rule="nonzero"/></g></g><g clip-path="url(#617bdaa42e)"><g clip-path="url(#6fff22ed17)"><path fill="#e9803f" d="M 91.691406 91.691406 L 91.691406 282.941406 L 282.941406 282.941406 L 282.941406 91.691406 Z M 91.691406 91.691406 " fill-opacity="1" fill-rule="nonzero"/></g></g><path fill="#ffffff" d="M 148.375 164.554688 C 149.207031 165.160156 150.230469 165.386719 151.175781 165.238281 L 154.054688 176.253906 C 152.84375 176.667969 151.707031 177.425781 150.875 178.5625 C 148.828125 181.402344 149.472656 185.335938 152.273438 187.382812 C 155.113281 189.425781 159.050781 188.78125 161.09375 185.980469 C 161.09375 185.980469 161.132812 185.941406 161.132812 185.941406 L 183.996094 200.214844 C 182.746094 202.597656 183.351562 205.589844 185.585938 207.21875 C 188.046875 208.996094 191.453125 208.429688 193.230469 206.003906 C 194.707031 204 194.558594 201.3125 193.082031 199.417969 L 204.4375 189.238281 C 204.625 189.425781 204.816406 189.613281 205.003906 189.765625 C 207.464844 191.546875 210.871094 190.976562 212.652344 188.554688 C 213.597656 187.230469 213.863281 185.640625 213.558594 184.164062 L 224.121094 181.058594 C 224.386719 181.703125 224.800781 182.269531 225.40625 182.6875 C 227.113281 183.898438 229.457031 183.519531 230.707031 181.855469 C 231.917969 180.152344 231.539062 177.804688 229.875 176.554688 C 229.230469 176.101562 228.472656 175.835938 227.753906 175.835938 L 225.976562 152.746094 C 227.1875 152.554688 228.324219 151.914062 229.117188 150.816406 C 230.667969 148.695312 230.175781 145.703125 228.058594 144.152344 C 225.9375 142.601562 222.949219 143.09375 221.394531 145.210938 C 221.167969 145.515625 221.015625 145.816406 220.867188 146.160156 L 197.246094 138.285156 C 197.585938 136.808594 197.019531 135.179688 195.730469 134.234375 C 193.988281 132.949219 191.527344 133.363281 190.242188 135.105469 C 189.75 135.785156 189.484375 136.621094 189.484375 137.414062 L 175.289062 138.777344 C 175.136719 138.058594 174.722656 137.414062 174.117188 136.960938 C 172.753906 135.976562 170.824219 136.277344 169.800781 137.640625 C 168.96875 138.777344 169.042969 140.292969 169.875 141.351562 L 152.957031 158.574219 C 152.917969 158.535156 152.878906 158.5 152.804688 158.460938 C 151.101562 157.25 148.753906 157.628906 147.503906 159.292969 C 146.292969 160.960938 146.671875 163.304688 148.375 164.554688 Z M 170.480469 141.882812 C 170.785156 142.109375 171.085938 142.222656 171.429688 142.335938 L 168.96875 157.25 C 168.285156 157.25 167.644531 157.550781 167.226562 158.121094 C 166.960938 158.460938 166.847656 158.839844 166.808594 159.257812 L 154.28125 160.65625 C 154.167969 160.050781 153.902344 159.519531 153.484375 159.027344 L 170.40625 141.804688 C 170.445312 141.84375 170.445312 141.882812 170.480469 141.882812 Z M 162.304688 182.121094 C 162.269531 180.226562 161.359375 178.335938 159.695312 177.125 C 159.617188 177.046875 159.503906 177.007812 159.429688 176.933594 L 168.25 161.453125 C 168.664062 161.601562 169.15625 161.601562 169.574219 161.488281 L 178.621094 179.960938 C 178.203125 180.226562 177.863281 180.53125 177.5625 180.945312 C 177.183594 181.476562 176.992188 182.042969 176.878906 182.648438 Z M 170.710938 160.730469 C 170.824219 160.582031 170.898438 160.390625 170.972656 160.203125 L 182.445312 162.359375 C 181.988281 165.539062 183.277344 168.871094 186.078125 170.914062 C 186.265625 171.066406 186.496094 171.179688 186.722656 171.332031 L 182.101562 179.773438 C 181.195312 179.394531 180.210938 179.355469 179.300781 179.695312 L 170.253906 161.222656 C 170.40625 161.074219 170.59375 160.921875 170.710938 160.730469 Z M 182.824219 180.152344 C 182.785156 180.113281 182.746094 180.113281 182.746094 180.113281 L 187.363281 171.671875 C 188.347656 172.164062 189.371094 172.429688 190.394531 172.542969 L 188.804688 197.261719 C 188.199219 197.261719 187.628906 197.375 187.0625 197.5625 L 182.40625 186.546875 C 182.898438 186.285156 183.316406 185.941406 183.65625 185.449219 C 184.90625 183.746094 184.527344 181.402344 182.824219 180.152344 Z M 192.058594 198.285156 C 191.300781 197.714844 190.429688 197.414062 189.558594 197.300781 L 191.148438 172.582031 C 193.082031 172.617188 194.972656 172.050781 196.5625 170.914062 L 204.589844 181.171875 C 204.324219 181.4375 204.058594 181.703125 203.832031 182.042969 C 202.355469 184.089844 202.507812 186.777344 203.984375 188.628906 L 192.625 198.8125 C 192.4375 198.625 192.25 198.433594 192.058594 198.285156 Z M 205.195312 180.71875 L 197.167969 170.460938 C 197.699219 170.007812 198.191406 169.476562 198.609375 168.910156 C 200.007812 166.976562 200.5 164.707031 200.234375 162.511719 L 213.066406 160.355469 C 213.179688 160.617188 213.371094 160.882812 213.636719 161.074219 C 213.710938 161.109375 213.785156 161.148438 213.863281 161.1875 L 209.207031 179.886719 C 207.84375 179.621094 206.40625 179.925781 205.195312 180.71875 Z M 212.953125 159.597656 L 200.121094 161.753906 C 199.667969 159.632812 198.492188 157.703125 196.601562 156.339844 C 195.3125 155.394531 193.875 154.863281 192.398438 154.714844 L 193.460938 141.277344 C 194.292969 141.277344 195.125 140.972656 195.804688 140.441406 L 213.257812 158.765625 C 213.066406 159.027344 212.992188 159.332031 212.953125 159.597656 Z M 190.773438 140.253906 C 190.886719 140.367188 190.960938 140.441406 191.113281 140.554688 C 191.605469 140.933594 192.171875 141.125 192.738281 141.238281 L 191.679688 154.675781 C 188.804688 154.5625 185.925781 155.847656 184.070312 158.386719 C 183.351562 159.40625 182.859375 160.503906 182.59375 161.640625 L 171.125 159.484375 C 171.125 159.066406 171.011719 158.652344 170.785156 158.308594 Z M 151.894531 165.011719 C 152.578125 164.746094 153.183594 164.328125 153.636719 163.683594 C 154.128906 163.003906 154.355469 162.207031 154.355469 161.414062 L 166.886719 160.011719 C 167 160.429688 167.226562 160.769531 167.566406 161.074219 L 158.746094 176.554688 C 157.460938 175.910156 156.058594 175.761719 154.734375 176.023438 Z M 161.546875 185.261719 C 161.964844 184.503906 162.191406 183.710938 162.269531 182.875 L 176.804688 183.445312 C 176.878906 184.542969 177.371094 185.601562 178.355469 186.285156 C 179.339844 187.003906 180.589844 187.15625 181.6875 186.8125 L 186.34375 197.828125 C 185.585938 198.207031 184.90625 198.738281 184.375 199.496094 Z M 213.410156 183.367188 C 213.03125 182.386719 212.386719 181.515625 211.476562 180.832031 C 210.984375 180.492188 210.492188 180.265625 209.964844 180.074219 L 214.621094 161.414062 C 214.847656 161.414062 215.035156 161.375 215.226562 161.300781 L 225.292969 176.632812 C 225.03125 176.820312 224.800781 177.046875 224.613281 177.351562 C 223.96875 178.222656 223.78125 179.28125 223.96875 180.265625 Z M 226.996094 175.835938 C 226.621094 175.910156 226.277344 176.023438 225.898438 176.214844 L 215.832031 160.882812 C 215.867188 160.847656 215.945312 160.769531 215.984375 160.695312 C 216.398438 160.089844 216.398438 159.332031 215.984375 158.726562 L 222.304688 151.722656 C 222.34375 151.761719 222.378906 151.800781 222.417969 151.800781 C 223.25 152.40625 224.234375 152.707031 225.21875 152.707031 Z M 220.601562 146.839844 C 220.222656 148.390625 220.636719 150.058594 221.773438 151.269531 L 215.453125 158.273438 C 214.921875 157.96875 214.277344 158.007812 213.785156 158.273438 L 196.335938 139.914062 C 196.410156 139.835938 196.488281 139.761719 196.5625 139.648438 C 196.714844 139.421875 196.867188 139.195312 196.980469 138.929688 Z M 189.558594 138.097656 C 189.675781 138.664062 189.902344 139.195312 190.28125 139.6875 L 170.332031 157.742188 C 170.292969 157.742188 170.292969 157.703125 170.292969 157.703125 C 170.105469 157.589844 169.914062 157.476562 169.726562 157.4375 L 172.183594 142.523438 C 173.167969 142.5625 174.191406 142.109375 174.796875 141.238281 C 175.175781 140.707031 175.363281 140.101562 175.363281 139.496094 Z M 189.558594 138.097656 " fill-opacity="1" fill-rule="nonzero"/><g clip-path="url(#74fbd58fa3)"><path fill="#ffffff" d="M 154.355469 203.015625 C 141.257812 193.777344 125.585938 187.191406 108.515625 184.882812 L 107.910156 204.492188 C 121.5 203.429688 135.996094 205.855469 149.625 211.609375 C 163.253906 217.285156 176.273438 225.613281 187.476562 236.175781 C 178.734375 223.457031 167.53125 212.214844 154.355469 203.015625 Z M 154.355469 203.015625 " fill-opacity="1" fill-rule="nonzero"/></g><g clip-path="url(#782e73f549)"><path fill="#ffffff" d="M 266.480469 184.882812 C 249.40625 187.230469 233.734375 193.816406 220.636719 203.015625 C 207.503906 212.175781 196.261719 223.457031 187.515625 236.175781 C 198.722656 225.613281 211.742188 217.285156 225.371094 211.609375 C 238.996094 205.816406 253.457031 203.429688 267.085938 204.492188 Z M 266.480469 184.882812 " fill-opacity="1" fill-rule="nonzero"/></g><g clip-path="url(#dc4b1e4b82)"><path fill="#ffffff" d="M 216.285156 219.671875 C 204.851562 225.839844 195.125 233.449219 187.476562 242.042969 C 197.207031 234.925781 208.523438 229.324219 220.375 225.460938 C 232.222656 221.5625 244.789062 219.9375 256.636719 220.65625 L 256.109375 207.445312 C 241.308594 209.035156 227.679688 213.464844 216.285156 219.671875 Z M 216.285156 219.671875 " fill-opacity="1" fill-rule="nonzero"/></g><g clip-path="url(#6a3a4c6deb)"><path fill="#ffffff" d="M 158.710938 219.671875 C 147.316406 213.464844 133.6875 208.996094 118.847656 207.445312 L 118.320312 220.65625 C 130.128906 219.9375 142.734375 221.5625 154.582031 225.460938 C 166.433594 229.285156 177.75 234.925781 187.476562 242.042969 C 179.871094 233.488281 170.140625 225.878906 158.710938 219.671875 Z M 158.710938 219.671875 " fill-opacity="1" fill-rule="nonzero"/></g><g clip-path="url(#6272cf20fd)"><path fill="#bc6733" d="M 91.6875 212.914062 C 91.6875 202.046875 82.875 193.238281 72.011719 193.238281 C 61.144531 193.238281 52.335938 202.046875 52.335938 212.914062 C 52.335938 223.78125 61.144531 232.589844 72.011719 232.589844 C 82.875 232.589844 91.6875 223.78125 91.6875 212.914062 Z M 70.011719 228.59375 C 70.203125 228.726562 70.453125 228.582031 70.453125 228.347656 L 70.453125 221.597656 C 70.453125 221.433594 70.320312 221.296875 70.15625 221.289062 C 68.726562 221.234375 67.328125 221.109375 65.976562 220.929688 C 65.757812 220.898438 65.578125 221.105469 65.640625 221.316406 C 66.078125 222.796875 66.625 224.121094 67.242188 225.25 C 68.167969 226.933594 69.128906 227.984375 70.011719 228.59375 Z M 74.027344 221.28125 C 73.863281 221.289062 73.730469 221.425781 73.730469 221.589844 L 73.730469 228.230469 C 73.730469 228.46875 73.992188 228.613281 74.183594 228.46875 C 75.015625 227.84375 75.910156 226.824219 76.777344 225.25 C 77.394531 224.121094 77.941406 222.796875 78.378906 221.316406 C 78.441406 221.105469 78.261719 220.898438 78.042969 220.929688 C 76.742188 221.105469 75.398438 221.222656 74.027344 221.28125 Z M 74.050781 218 C 73.878906 218.007812 73.730469 217.867188 73.730469 217.691406 L 73.730469 211.238281 C 73.730469 211.070312 73.863281 210.9375 74.027344 210.929688 C 75.785156 210.839844 77.484375 210.632812 79.085938 210.320312 C 79.269531 210.285156 79.441406 210.414062 79.453125 210.597656 C 79.507812 211.351562 79.535156 212.125 79.535156 212.914062 C 79.535156 214.410156 79.4375 215.847656 79.25 217.207031 C 79.234375 217.339844 79.132812 217.445312 79 217.464844 C 77.441406 217.734375 75.785156 217.917969 74.050781 218 Z M 70.132812 207.652344 C 70.304688 207.660156 70.453125 207.519531 70.453125 207.34375 L 70.453125 197.480469 C 70.453125 197.246094 70.203125 197.101562 70.011719 197.234375 C 69.128906 197.84375 68.167969 198.894531 67.242188 200.578125 C 66.332031 202.242188 65.582031 204.320312 65.09375 206.699219 C 65.0625 206.863281 65.167969 207.023438 65.332031 207.054688 C 66.816406 207.359375 68.429688 207.5625 70.132812 207.652344 Z M 73.730469 207.335938 C 73.730469 207.511719 73.878906 207.652344 74.054688 207.644531 C 75.695312 207.550781 77.25 207.347656 78.6875 207.054688 C 78.851562 207.023438 78.957031 206.863281 78.925781 206.699219 C 78.4375 204.320312 77.6875 202.242188 76.777344 200.578125 C 75.910156 199.003906 75.015625 197.984375 74.183594 197.359375 C 73.992188 197.214844 73.730469 197.359375 73.730469 197.597656 Z M 70.132812 218.007812 C 70.308594 218.015625 70.453125 217.875 70.453125 217.699219 L 70.453125 211.246094 C 70.453125 211.078125 70.320312 210.945312 70.15625 210.9375 C 68.339844 210.851562 66.585938 210.640625 64.933594 210.320312 C 64.75 210.285156 64.578125 210.414062 64.566406 210.597656 C 64.511719 211.351562 64.484375 212.125 64.484375 212.914062 C 64.484375 214.410156 64.585938 215.847656 64.769531 217.207031 C 64.785156 217.339844 64.886719 217.445312 65.019531 217.464844 C 66.628906 217.742188 68.339844 217.929688 70.132812 218.007812 Z M 80.097656 227.179688 C 79.828125 227.332031 79.542969 227.027344 79.691406 226.753906 C 80.675781 224.9375 81.472656 222.773438 82.011719 220.371094 C 82.039062 220.257812 82.125 220.167969 82.242188 220.136719 C 83.886719 219.730469 85.421875 219.226562 86.820312 218.640625 C 87.074219 218.535156 87.332031 218.773438 87.230469 219.027344 C 85.839844 222.484375 83.308594 225.359375 80.097656 227.179688 Z M 82.667969 216.1875 C 82.644531 216.40625 82.851562 216.574219 83.058594 216.511719 C 85.082031 215.894531 86.832031 215.121094 88.230469 214.238281 C 88.3125 214.1875 88.363281 214.101562 88.371094 214.003906 C 88.394531 213.644531 88.40625 213.28125 88.40625 212.914062 C 88.40625 211.042969 88.09375 209.246094 87.515625 207.570312 C 87.453125 207.382812 87.226562 207.308594 87.058594 207.414062 C 85.855469 208.15625 84.445312 208.800781 82.878906 209.328125 C 82.742188 209.375 82.65625 209.507812 82.667969 209.652344 C 82.765625 210.714844 82.816406 211.804688 82.816406 212.914062 C 82.816406 214.027344 82.765625 215.121094 82.667969 216.1875 Z M 55.648438 214.003906 C 55.65625 214.101562 55.707031 214.1875 55.789062 214.238281 C 57.1875 215.121094 58.9375 215.894531 60.960938 216.511719 C 61.167969 216.574219 61.375 216.40625 61.351562 216.1875 C 61.253906 215.121094 61.203125 214.027344 61.203125 212.914062 C 61.203125 211.804688 61.253906 210.714844 61.351562 209.652344 C 61.367188 209.507812 61.277344 209.375 61.140625 209.328125 C 59.578125 208.800781 58.164062 208.15625 56.960938 207.414062 C 56.792969 207.308594 56.570312 207.382812 56.503906 207.570312 C 55.925781 209.246094 55.613281 211.042969 55.613281 212.914062 C 55.613281 213.28125 55.625 213.644531 55.648438 214.003906 Z M 62.007812 220.371094 C 61.980469 220.257812 61.894531 220.167969 61.777344 220.136719 C 60.136719 219.730469 58.597656 219.226562 57.199219 218.640625 C 56.949219 218.535156 56.6875 218.773438 56.789062 219.027344 C 58.179688 222.484375 60.714844 225.359375 63.921875 227.179688 C 64.191406 227.332031 64.476562 227.027344 64.332031 226.753906 C 63.34375 224.9375 62.546875 222.773438 62.007812 220.371094 Z M 85.769531 203.992188 C 85.855469 204.128906 85.820312 204.308594 85.683594 204.402344 C 84.800781 204.988281 83.722656 205.527344 82.484375 205.988281 C 82.308594 206.054688 82.117188 205.945312 82.078125 205.761719 C 81.539062 203.238281 80.71875 200.964844 79.691406 199.074219 C 79.542969 198.800781 79.828125 198.496094 80.097656 198.648438 C 82.390625 199.949219 84.335938 201.789062 85.769531 203.992188 Z M 61.535156 205.988281 C 61.710938 206.054688 61.902344 205.945312 61.941406 205.761719 C 62.480469 203.238281 63.300781 200.964844 64.332031 199.074219 C 64.476562 198.800781 64.191406 198.496094 63.921875 198.648438 C 61.632812 199.949219 59.683594 201.789062 58.253906 203.992188 C 58.164062 204.128906 58.199219 204.308594 58.335938 204.402344 C 59.21875 204.988281 60.296875 205.527344 61.535156 205.988281 Z M 61.535156 205.988281 " fill-opacity="1" fill-rule="evenodd"/></g><g clip-path="url(#6f59e20d87)"><path fill="#bc6733" d="M 322.652344 212.914062 C 322.652344 202.046875 313.84375 193.238281 302.976562 193.238281 C 292.109375 193.238281 283.300781 202.046875 283.300781 212.914062 C 283.300781 223.78125 292.109375 232.589844 302.976562 232.589844 C 313.84375 232.589844 322.652344 223.78125 322.652344 212.914062 Z M 300.976562 228.59375 C 301.167969 228.726562 301.417969 228.582031 301.417969 228.347656 L 301.417969 221.597656 C 301.417969 221.433594 301.285156 221.296875 301.121094 221.289062 C 299.691406 221.234375 298.296875 221.109375 296.945312 220.929688 C 296.722656 220.898438 296.542969 221.105469 296.605469 221.316406 C 297.046875 222.796875 297.589844 224.121094 298.210938 225.25 C 299.136719 226.933594 300.09375 227.984375 300.976562 228.59375 Z M 304.996094 221.28125 C 304.828125 221.289062 304.699219 221.425781 304.699219 221.589844 L 304.699219 228.230469 C 304.699219 228.46875 304.957031 228.613281 305.148438 228.46875 C 305.980469 227.84375 306.878906 226.824219 307.742188 225.25 C 308.363281 224.121094 308.90625 222.796875 309.347656 221.316406 C 309.410156 221.105469 309.230469 220.898438 309.007812 220.929688 C 307.707031 221.105469 306.367188 221.222656 304.996094 221.28125 Z M 305.019531 218 C 304.84375 218.007812 304.699219 217.867188 304.699219 217.691406 L 304.699219 211.238281 C 304.699219 211.070312 304.828125 210.9375 304.992188 210.929688 C 306.75 210.839844 308.449219 210.632812 310.054688 210.320312 C 310.234375 210.285156 310.40625 210.414062 310.421875 210.597656 C 310.472656 211.351562 310.503906 212.125 310.503906 212.914062 C 310.503906 214.410156 310.402344 215.847656 310.21875 217.207031 C 310.199219 217.339844 310.097656 217.445312 309.96875 217.464844 C 308.40625 217.734375 306.75 217.917969 305.019531 218 Z M 301.097656 207.652344 C 301.273438 207.660156 301.417969 207.519531 301.417969 207.34375 L 301.417969 197.480469 C 301.417969 197.246094 301.167969 197.101562 300.976562 197.234375 C 300.09375 197.84375 299.136719 198.894531 298.210938 200.578125 C 297.296875 202.242188 296.546875 204.320312 296.0625 206.699219 C 296.027344 206.863281 296.132812 207.023438 296.296875 207.054688 C 297.785156 207.359375 299.394531 207.5625 301.097656 207.652344 Z M 304.699219 207.335938 C 304.699219 207.511719 304.84375 207.652344 305.019531 207.644531 C 306.660156 207.550781 308.214844 207.347656 309.65625 207.054688 C 309.820312 207.023438 309.925781 206.863281 309.890625 206.699219 C 309.40625 204.320312 308.652344 202.242188 307.742188 200.578125 C 306.878906 199.003906 305.980469 197.984375 305.148438 197.359375 C 304.957031 197.214844 304.699219 197.359375 304.699219 197.597656 Z M 301.097656 218.007812 C 301.273438 218.015625 301.417969 217.875 301.417969 217.699219 L 301.417969 211.246094 C 301.417969 211.078125 301.289062 210.945312 301.121094 210.9375 C 299.308594 210.851562 297.550781 210.640625 295.898438 210.320312 C 295.71875 210.285156 295.542969 210.414062 295.53125 210.597656 C 295.476562 211.351562 295.449219 212.125 295.449219 212.914062 C 295.449219 214.410156 295.550781 215.847656 295.734375 217.207031 C 295.753906 217.339844 295.855469 217.445312 295.984375 217.464844 C 297.59375 217.742188 299.308594 217.929688 301.097656 218.007812 Z M 311.0625 227.179688 C 310.796875 227.332031 310.507812 227.027344 310.65625 226.753906 C 311.644531 224.9375 312.4375 222.773438 312.976562 220.371094 C 313.003906 220.257812 313.09375 220.167969 313.207031 220.136719 C 314.851562 219.730469 316.390625 219.226562 317.789062 218.640625 C 318.039062 218.535156 318.296875 218.773438 318.195312 219.027344 C 316.804688 222.484375 314.273438 225.359375 311.0625 227.179688 Z M 313.632812 216.1875 C 313.613281 216.40625 313.816406 216.574219 314.027344 216.511719 C 316.046875 215.894531 317.800781 215.121094 319.195312 214.238281 C 319.277344 214.1875 319.332031 214.101562 319.335938 214.003906 C 319.359375 213.644531 319.371094 213.28125 319.371094 212.914062 C 319.371094 211.042969 319.058594 209.246094 318.480469 207.570312 C 318.417969 207.382812 318.195312 207.308594 318.027344 207.414062 C 316.820312 208.15625 315.410156 208.800781 313.84375 209.328125 C 313.707031 209.375 313.621094 209.507812 313.632812 209.652344 C 313.730469 210.714844 313.78125 211.804688 313.78125 212.914062 C 313.78125 214.027344 313.730469 215.121094 313.632812 216.1875 Z M 286.617188 214.003906 C 286.621094 214.101562 286.671875 214.1875 286.753906 214.238281 C 288.152344 215.121094 289.902344 215.894531 291.925781 216.511719 C 292.136719 216.574219 292.339844 216.40625 292.320312 216.1875 C 292.222656 215.121094 292.171875 214.027344 292.171875 212.914062 C 292.171875 211.804688 292.222656 210.714844 292.320312 209.652344 C 292.332031 209.507812 292.246094 209.375 292.105469 209.328125 C 290.542969 208.800781 289.132812 208.15625 287.925781 207.414062 C 287.757812 207.308594 287.535156 207.382812 287.46875 207.570312 C 286.894531 209.246094 286.578125 211.042969 286.578125 212.914062 C 286.578125 213.28125 286.589844 213.644531 286.617188 214.003906 Z M 292.972656 220.371094 C 292.949219 220.257812 292.859375 220.167969 292.746094 220.136719 C 291.101562 219.730469 289.5625 219.226562 288.164062 218.640625 C 287.914062 218.535156 287.65625 218.773438 287.757812 219.027344 C 289.144531 222.484375 291.679688 225.359375 294.886719 227.179688 C 295.15625 227.332031 295.445312 227.027344 295.296875 226.753906 C 294.308594 224.9375 293.515625 222.773438 292.972656 220.371094 Z M 316.734375 203.992188 C 316.824219 204.128906 316.785156 204.308594 316.648438 204.402344 C 315.765625 204.988281 314.6875 205.527344 313.453125 205.988281 C 313.277344 206.054688 313.085938 205.945312 313.046875 205.761719 C 312.503906 203.238281 311.683594 200.964844 310.65625 199.074219 C 310.507812 198.800781 310.796875 198.496094 311.0625 198.648438 C 313.355469 199.949219 315.300781 201.789062 316.734375 203.992188 Z M 292.5 205.988281 C 292.675781 206.054688 292.867188 205.945312 292.90625 205.761719 C 293.449219 203.238281 294.265625 200.964844 295.296875 199.074219 C 295.445312 198.800781 295.15625 198.496094 294.886719 198.648438 C 292.597656 199.949219 290.652344 201.789062 289.21875 203.992188 C 289.128906 204.128906 289.167969 204.308594 289.300781 204.402344 C 290.1875 204.988281 291.261719 205.527344 292.5 205.988281 Z M 292.5 205.988281 " fill-opacity="1" fill-rule="evenodd"/></g><g fill="#ffffff" fill-opacity="1"><g transform="translate(84.992023, 174.027295)"><g><path d="M -1.921875 -15.421875 L -6.8125 -16.546875 L -5.3125 -23.0625 L -1.203125 -22.125 C 3.097656 -21.132812 4.785156 -18.617188 3.859375 -14.578125 L 2.4375 -8.40625 C 1.507812 -4.363281 -1.101562 -2.835938 -5.40625 -3.828125 L -25.125 -8.34375 C -29.4375 -9.332031 -31.128906 -11.847656 -30.203125 -15.890625 L -28.78125 -22.0625 C -27.851562 -26.101562 -25.234375 -27.628906 -20.921875 -26.640625 L -17.9375 -25.953125 L -19.4375 -19.4375 L -23.25 -20.3125 C -23.507812 -20.375 -23.757812 -20.335938 -24 -20.203125 C -24.238281 -20.078125 -24.390625 -19.882812 -24.453125 -19.625 L -25.15625 -16.546875 C -25.21875 -16.285156 -25.171875 -16.039062 -25.015625 -15.8125 C -24.859375 -15.582031 -24.648438 -15.4375 -24.390625 -15.375 L -3.0625 -10.484375 C -2.800781 -10.421875 -2.550781 -10.457031 -2.3125 -10.59375 C -2.070312 -10.738281 -1.921875 -10.941406 -1.859375 -11.203125 L -1.15625 -14.28125 C -1.09375 -14.539062 -1.140625 -14.78125 -1.296875 -15 C -1.453125 -15.21875 -1.660156 -15.359375 -1.921875 -15.421875 Z M -1.921875 -15.421875 "/></g></g></g><g fill="#ffffff" fill-opacity="1"><g transform="translate(94.241565, 141.430166)"><g><path d="M -10.78125 -32.359375 L 6.34375 -21.578125 C 10.082031 -19.222656 10.84375 -16.285156 8.625 -12.765625 L 5.078125 -7.125 C 2.867188 -3.613281 -0.101562 -3.035156 -3.84375 -5.390625 L -20.96875 -16.171875 C -24.707031 -18.515625 -25.472656 -21.441406 -23.265625 -24.953125 L -19.71875 -30.59375 C -17.5 -34.113281 -14.519531 -34.703125 -10.78125 -32.359375 Z M 3.265625 -15.203125 L -15.234375 -26.84375 C -15.460938 -26.988281 -15.710938 -27.039062 -15.984375 -27 C -16.253906 -26.957031 -16.457031 -26.820312 -16.59375 -26.59375 L -18.28125 -23.921875 C -18.425781 -23.691406 -18.460938 -23.441406 -18.390625 -23.171875 C -18.316406 -22.898438 -18.164062 -22.691406 -17.9375 -22.546875 L 0.5625 -10.90625 C 0.789062 -10.757812 1.039062 -10.710938 1.3125 -10.765625 C 1.582031 -10.816406 1.789062 -10.957031 1.9375 -11.1875 L 3.625 -13.859375 C 3.757812 -14.085938 3.789062 -14.332031 3.71875 -14.59375 C 3.644531 -14.851562 3.492188 -15.054688 3.265625 -15.203125 Z M 3.265625 -15.203125 "/></g></g></g><g fill="#ffffff" fill-opacity="1"><g transform="translate(113.500312, 112.641644)"><g><path d="M 7.703125 -5.515625 L 2 -1.421875 L -13.34375 -22.84375 C -15.914062 -26.4375 -15.515625 -29.445312 -12.140625 -31.875 L -9.125 -34.03125 C -7.132812 -35.457031 -5.253906 -35.820312 -3.484375 -35.125 C -3.617188 -36.988281 -2.671875 -38.648438 -0.640625 -40.109375 L 2.390625 -42.28125 C 5.753906 -44.695312 8.722656 -44.109375 11.296875 -40.515625 L 26.640625 -19.09375 L 20.9375 -15 L 5.234375 -36.90625 C 5.078125 -37.125 4.863281 -37.257812 4.59375 -37.3125 C 4.332031 -37.375 4.09375 -37.328125 3.875 -37.171875 L 1.671875 -35.59375 C 1.453125 -35.4375 1.328125 -35.222656 1.296875 -34.953125 C 1.265625 -34.679688 1.328125 -34.4375 1.484375 -34.21875 L 17.1875 -12.3125 L 11.46875 -8.21875 L -4.234375 -30.125 C -4.390625 -30.34375 -4.597656 -30.476562 -4.859375 -30.53125 C -5.117188 -30.59375 -5.363281 -30.546875 -5.59375 -30.390625 L -7.796875 -28.8125 C -8.003906 -28.65625 -8.128906 -28.4375 -8.171875 -28.15625 C -8.210938 -27.882812 -8.15625 -27.640625 -8 -27.421875 Z M 7.703125 -5.515625 "/></g></g></g><g fill="#ffffff" fill-opacity="1"><g transform="translate(151.98996, 88.929621)"><g><path d="M 6.921875 -35.171875 C 10.953125 -36.160156 13.5 -34.515625 14.5625 -30.234375 L 16.125 -23.9375 C 17.175781 -19.644531 15.6875 -17.003906 11.65625 -16.015625 L 6.140625 -14.65625 L 9.203125 -2.28125 L 2.375 -0.59375 L -5.421875 -32.125 Z M 9.484375 -21.46875 L 7.546875 -29.3125 C 7.472656 -29.570312 7.320312 -29.773438 7.09375 -29.921875 C 6.875 -30.078125 6.632812 -30.125 6.375 -30.0625 L 2.5625 -29.125 L 4.984375 -19.34375 L 8.796875 -20.28125 C 9.054688 -20.34375 9.25 -20.488281 9.375 -20.71875 C 9.507812 -20.957031 9.546875 -21.207031 9.484375 -21.46875 Z M 9.484375 -21.46875 "/></g></g></g><g fill="#ffffff" fill-opacity="1"><g transform="translate(184.751541, 82.616731)"><g><path d="M 16.90625 -31.125 L 23.90625 -30.5 L 21.59375 -4.234375 C 21.207031 0.160156 18.941406 2.175781 14.796875 1.8125 L 8.609375 1.265625 C 4.460938 0.898438 2.582031 -1.476562 2.96875 -5.875 L 5.28125 -32.140625 L 12.296875 -31.53125 L 9.9375 -4.671875 C 9.914062 -4.410156 9.988281 -4.171875 10.15625 -3.953125 C 10.320312 -3.734375 10.53125 -3.609375 10.78125 -3.578125 L 13.5 -3.34375 C 13.769531 -3.320312 14.003906 -3.40625 14.203125 -3.59375 C 14.410156 -3.78125 14.523438 -4.003906 14.546875 -4.265625 Z M 16.90625 -31.125 "/></g></g></g><g fill="#ffffff" fill-opacity="1"><g transform="translate(218.947663, 87.751502)"><g><path d="M 11 -24.125 L 13.359375 -29.625 L 29.515625 -22.734375 L 27.15625 -17.234375 L 22.3125 -19.296875 L 11.921875 5.078125 L 5.453125 2.328125 L 15.84375 -22.046875 Z M 11 -24.125 "/></g></g></g><g fill="#ffffff" fill-opacity="1"><g transform="translate(246.180842, 101.2218)"><g><path d="M 11.046875 1.6875 L 17 6.6875 L 13.25 11.140625 L 1.921875 1.625 L 22.828125 -23.234375 L 34.15625 -13.71875 L 30.46875 -9.34375 L 24.515625 -14.34375 L 19.609375 -8.5 L 25.1875 -3.8125 L 21.640625 0.40625 L 16.0625 -4.28125 Z M 11.046875 1.6875 "/></g></g></g><g fill="#ffffff" fill-opacity="1"><g transform="translate(268.277469, 121.666595)"><g><path d="M 16.328125 1.0625 L 5.046875 8.09375 L 1.328125 2.140625 L 28.890625 -15.03125 L 35.5 -4.421875 C 37.695312 -0.910156 36.925781 2.007812 33.1875 4.34375 L 29.984375 6.328125 C 27.710938 7.742188 25.757812 7.84375 24.125 6.625 C 24.488281 8.363281 23.765625 9.800781 21.953125 10.9375 L 11.046875 17.734375 L 7.328125 11.765625 L 17.765625 5.265625 C 18.328125 4.910156 18.441406 4.460938 18.109375 3.921875 Z M 28.578125 -6.5625 L 20.515625 -1.546875 L 22.46875 1.609375 C 22.613281 1.835938 22.820312 1.972656 23.09375 2.015625 C 23.363281 2.066406 23.613281 2.019531 23.84375 1.875 L 30.171875 -2.078125 C 30.398438 -2.222656 30.550781 -2.421875 30.625 -2.671875 C 30.707031 -2.929688 30.675781 -3.175781 30.53125 -3.40625 Z M 28.578125 -6.5625 "/></g></g></g><g fill="#ffffff" fill-opacity="1"><g transform="translate(284.766184, 151.605827)"><g><path d="M 27.9375 14.65625 L 26.4375 8.15625 L 28.921875 7.59375 C 29.179688 7.53125 29.390625 7.378906 29.546875 7.140625 C 29.703125 6.910156 29.753906 6.671875 29.703125 6.421875 L 29.078125 3.734375 C 29.015625 3.460938 28.863281 3.257812 28.625 3.125 C 28.382812 3 28.132812 2.96875 27.875 3.03125 L 22.25 4.3125 C 21.988281 4.375 21.78125 4.515625 21.625 4.734375 C 21.476562 4.960938 21.4375 5.210938 21.5 5.484375 L 22.515625 9.875 C 23.367188 13.9375 21.679688 16.453125 17.453125 17.421875 L 10.640625 18.984375 C 6.335938 19.972656 3.722656 18.441406 2.796875 14.390625 L 1.46875 8.625 C 0.539062 4.582031 2.226562 2.066406 6.53125 1.078125 L 9.8125 0.328125 L 11.296875 6.828125 L 7.765625 7.640625 C 7.503906 7.703125 7.296875 7.84375 7.140625 8.0625 C 6.992188 8.28125 6.953125 8.523438 7.015625 8.796875 L 7.71875 11.828125 C 7.769531 12.085938 7.910156 12.285156 8.140625 12.421875 C 8.378906 12.554688 8.628906 12.59375 8.890625 12.53125 L 15.109375 11.109375 C 15.367188 11.046875 15.578125 10.898438 15.734375 10.671875 C 15.890625 10.453125 15.941406 10.210938 15.890625 9.953125 L 14.875 5.546875 C 13.945312 1.503906 15.632812 -1.003906 19.9375 -1.984375 L 26.25 -3.4375 C 30.5625 -4.425781 33.179688 -2.898438 34.109375 1.140625 L 35.359375 6.578125 C 36.285156 10.617188 34.59375 13.132812 30.28125 14.125 Z M 27.9375 14.65625 "/></g></g></g><g fill="#ffffff" fill-opacity="1"><g transform="translate(167.511766, 316.344419)"><g><path d="M 15.15625 -9.9375 C 15.125 -9.664062 15.09375 -9.421875 15.0625 -9.203125 C 15.03125 -8.992188 15.003906 -8.742188 14.984375 -8.453125 C 14.953125 -8.148438 14.929688 -7.878906 14.921875 -7.640625 C 14.910156 -7.410156 14.875 -7.132812 14.8125 -6.8125 C 14.789062 -6.539062 14.757812 -6.289062 14.71875 -6.0625 C 14.6875 -5.832031 14.65625 -5.578125 14.625 -5.296875 C 14.582031 -4.910156 14.554688 -4.5625 14.546875 -4.25 C 14.535156 -3.945312 14.507812 -3.597656 14.46875 -3.203125 C 14.425781 -2.804688 14.382812 -2.445312 14.34375 -2.125 C 14.300781 -1.800781 14.257812 -1.429688 14.21875 -1.015625 L 14.140625 -0.21875 C 14.140625 -0.195312 14.117188 -0.0859375 14.078125 0.109375 C 14.046875 0.304688 13.976562 0.476562 13.875 0.625 C 13.53125 1.007812 12.945312 1.222656 12.125 1.265625 C 11.3125 1.304688 10.425781 1.28125 9.46875 1.1875 C 8.851562 1.125 8.34375 1.066406 7.9375 1.015625 C 7.53125 0.972656 7.117188 0.878906 6.703125 0.734375 C 6.296875 0.597656 5.796875 0.394531 5.203125 0.125 C 4.992188 -0.0078125 4.75 -0.15625 4.46875 -0.3125 C 4.1875 -0.46875 3.945312 -0.648438 3.75 -0.859375 C 3.46875 -1.160156 3.242188 -1.4375 3.078125 -1.6875 C 2.910156 -1.9375 2.734375 -2.222656 2.546875 -2.546875 C 2.253906 -3.066406 2.015625 -3.535156 1.828125 -3.953125 C 1.648438 -4.378906 1.515625 -4.859375 1.421875 -5.390625 C 1.335938 -5.929688 1.296875 -6.65625 1.296875 -7.5625 C 1.296875 -7.769531 1.289062 -8.078125 1.28125 -8.484375 C 1.269531 -8.890625 1.296875 -9.367188 1.359375 -9.921875 C 1.390625 -10.273438 1.453125 -10.679688 1.546875 -11.140625 C 1.640625 -11.609375 1.742188 -12.054688 1.859375 -12.484375 C 1.972656 -12.921875 2.066406 -13.285156 2.140625 -13.578125 C 2.222656 -13.878906 2.265625 -14.03125 2.265625 -14.03125 C 2.390625 -14.351562 2.519531 -14.644531 2.65625 -14.90625 C 2.800781 -15.164062 2.96875 -15.445312 3.15625 -15.75 C 3.507812 -16.320312 3.78125 -16.71875 3.96875 -16.9375 C 4.164062 -17.144531 4.546875 -17.457031 5.109375 -17.875 C 5.671875 -18.300781 6.285156 -18.632812 6.953125 -18.875 C 7.367188 -19.050781 7.796875 -19.164062 8.234375 -19.21875 C 8.671875 -19.28125 9.085938 -19.328125 9.484375 -19.359375 C 10.054688 -19.390625 10.566406 -19.394531 11.015625 -19.375 C 11.472656 -19.351562 11.796875 -19.332031 11.984375 -19.3125 L 12.265625 -19.28125 C 12.304688 -19.28125 12.445312 -19.257812 12.6875 -19.21875 C 12.9375 -19.1875 13.210938 -19.148438 13.515625 -19.109375 C 13.828125 -19.078125 14.109375 -19.039062 14.359375 -19 C 14.617188 -18.96875 14.769531 -18.9375 14.8125 -18.90625 C 14.9375 -18.820312 15.046875 -18.710938 15.140625 -18.578125 C 15.242188 -18.441406 15.28125 -18.242188 15.25 -17.984375 C 15.238281 -17.847656 15.222656 -17.722656 15.203125 -17.609375 C 15.191406 -17.492188 15.175781 -17.363281 15.15625 -17.21875 L 15.0625 -16.234375 C 15.019531 -15.785156 14.976562 -15.359375 14.9375 -14.953125 C 14.894531 -14.546875 14.828125 -14.28125 14.734375 -14.15625 C 14.648438 -14.050781 14.554688 -13.96875 14.453125 -13.90625 C 14.359375 -13.84375 14.285156 -13.800781 14.234375 -13.78125 C 14.210938 -13.757812 14.144531 -13.726562 14.03125 -13.6875 C 13.914062 -13.65625 13.800781 -13.644531 13.6875 -13.65625 C 13.5 -13.675781 13.332031 -13.738281 13.1875 -13.84375 C 13.050781 -13.957031 12.890625 -14.050781 12.703125 -14.125 C 12.617188 -14.144531 12.453125 -14.175781 12.203125 -14.21875 C 11.960938 -14.269531 11.722656 -14.3125 11.484375 -14.34375 C 11.253906 -14.375 11.09375 -14.394531 11 -14.40625 C 10.195312 -14.488281 9.570312 -14.429688 9.125 -14.234375 C 8.675781 -14.035156 8.285156 -13.734375 7.953125 -13.328125 C 7.867188 -13.234375 7.785156 -13.101562 7.703125 -12.9375 C 7.617188 -12.78125 7.554688 -12.65625 7.515625 -12.5625 C 7.484375 -12.476562 7.453125 -12.359375 7.421875 -12.203125 C 7.398438 -12.046875 7.359375 -11.867188 7.296875 -11.671875 C 7.242188 -11.398438 7.175781 -11.175781 7.09375 -11 C 7.019531 -10.820312 6.953125 -10.613281 6.890625 -10.375 C 6.835938 -10.132812 6.789062 -9.785156 6.75 -9.328125 C 6.726562 -9.140625 6.710938 -8.953125 6.703125 -8.765625 C 6.703125 -8.578125 6.691406 -8.378906 6.671875 -8.171875 L 6.640625 -7.890625 C 6.617188 -7.703125 6.613281 -7.5625 6.625 -7.46875 C 6.644531 -7.382812 6.660156 -7.285156 6.671875 -7.171875 C 6.660156 -7.148438 6.6875 -7.023438 6.75 -6.796875 C 6.8125 -6.566406 6.882812 -6.316406 6.96875 -6.046875 C 7.050781 -5.785156 7.128906 -5.546875 7.203125 -5.328125 C 7.273438 -5.117188 7.316406 -4.992188 7.328125 -4.953125 C 7.367188 -4.890625 7.414062 -4.800781 7.46875 -4.6875 C 7.519531 -4.582031 7.609375 -4.46875 7.734375 -4.34375 C 7.859375 -4.226562 8.023438 -4.113281 8.234375 -4 C 8.441406 -3.894531 8.679688 -3.832031 8.953125 -3.8125 C 9.648438 -3.738281 10.019531 -3.925781 10.0625 -4.375 C 10.082031 -4.519531 10.085938 -4.65625 10.078125 -4.78125 C 10.078125 -4.90625 10.082031 -5.03125 10.09375 -5.15625 C 10.113281 -5.363281 10.140625 -5.546875 10.171875 -5.703125 C 10.203125 -5.867188 10.226562 -6.050781 10.25 -6.25 C 10.289062 -6.625 10.1875 -6.882812 9.9375 -7.03125 C 9.695312 -7.1875 9.519531 -7.269531 9.40625 -7.28125 C 9.3125 -7.289062 9.226562 -7.285156 9.15625 -7.265625 C 9.082031 -7.253906 9 -7.253906 8.90625 -7.265625 C 8.78125 -7.273438 8.640625 -7.351562 8.484375 -7.5 C 8.335938 -7.65625 8.28125 -7.867188 8.3125 -8.140625 C 8.34375 -8.492188 8.375 -8.8125 8.40625 -9.09375 C 8.445312 -9.382812 8.5 -9.707031 8.5625 -10.0625 C 8.582031 -10.25 8.601562 -10.445312 8.625 -10.65625 C 8.644531 -10.875 8.660156 -10.992188 8.671875 -11.015625 C 8.671875 -11.035156 8.679688 -11.097656 8.703125 -11.203125 C 8.722656 -11.304688 8.769531 -11.390625 8.84375 -11.453125 C 8.945312 -11.609375 9.085938 -11.726562 9.265625 -11.8125 C 9.453125 -11.90625 9.695312 -11.9375 10 -11.90625 C 10.289062 -11.875 10.539062 -11.835938 10.75 -11.796875 C 10.96875 -11.765625 11.210938 -11.738281 11.484375 -11.71875 C 11.816406 -11.6875 12.113281 -11.65625 12.375 -11.625 C 12.632812 -11.601562 12.9375 -11.578125 13.28125 -11.546875 C 13.414062 -11.554688 13.53125 -11.5625 13.625 -11.5625 C 13.71875 -11.5625 13.832031 -11.554688 13.96875 -11.546875 C 14.4375 -11.503906 14.753906 -11.375 14.921875 -11.15625 C 15.085938 -10.9375 15.171875 -10.707031 15.171875 -10.46875 C 15.171875 -10.238281 15.164062 -10.0625 15.15625 -9.9375 Z M 15.15625 -9.9375 "/></g></g></g><g fill="#ffffff" fill-opacity="1"><g transform="translate(193.685942, 317.745431)"><g><path d="M 12.609375 -14.796875 C 12.640625 -14.492188 12.65625 -14.175781 12.65625 -13.84375 C 12.664062 -13.519531 12.675781 -13.054688 12.6875 -12.453125 C 12.6875 -12.203125 12.679688 -11.851562 12.671875 -11.40625 C 12.660156 -10.96875 12.5625 -10.453125 12.375 -9.859375 C 12.1875 -9.273438 11.820312 -8.625 11.28125 -7.90625 C 10.9375 -7.445312 10.484375 -7.003906 9.921875 -6.578125 C 9.359375 -6.148438 8.582031 -5.882812 7.59375 -5.78125 C 7.46875 -5.769531 7.332031 -5.757812 7.1875 -5.75 C 7.039062 -5.75 6.890625 -5.742188 6.734375 -5.734375 L 6.6875 -5.71875 C 6.550781 -5.707031 6.390625 -5.675781 6.203125 -5.625 C 6.023438 -5.570312 5.875 -5.46875 5.75 -5.3125 C 5.625 -5.15625 5.582031 -4.898438 5.625 -4.546875 C 5.644531 -4.347656 5.671875 -4.175781 5.703125 -4.03125 C 5.734375 -3.894531 5.757812 -3.734375 5.78125 -3.546875 C 5.8125 -3.359375 5.832031 -3.175781 5.84375 -3 C 5.851562 -2.832031 5.875 -2.644531 5.90625 -2.4375 C 5.925781 -2.289062 5.953125 -2.160156 5.984375 -2.046875 C 6.015625 -1.929688 6.035156 -1.796875 6.046875 -1.640625 C 6.066406 -1.453125 6.050781 -1.238281 6 -1 C 5.957031 -0.769531 5.707031 -0.632812 5.25 -0.59375 C 4.90625 -0.5625 4.597656 -0.535156 4.328125 -0.515625 C 4.066406 -0.503906 3.773438 -0.484375 3.453125 -0.453125 C 3.148438 -0.421875 2.878906 -0.375 2.640625 -0.3125 C 2.398438 -0.257812 2.117188 -0.21875 1.796875 -0.1875 C 1.523438 -0.15625 1.3125 -0.203125 1.15625 -0.328125 C 1 -0.453125 0.898438 -0.734375 0.859375 -1.171875 C 0.847656 -1.328125 0.835938 -1.472656 0.828125 -1.609375 C 0.828125 -1.742188 0.828125 -1.882812 0.828125 -2.03125 C 0.804688 -2.195312 0.78125 -2.34375 0.75 -2.46875 C 0.71875 -2.59375 0.707031 -2.734375 0.71875 -2.890625 C 0.707031 -3.148438 0.707031 -3.375 0.71875 -3.5625 C 0.726562 -3.75 0.722656 -3.960938 0.703125 -4.203125 C 0.660156 -4.597656 0.601562 -5 0.53125 -5.40625 C 0.457031 -5.8125 0.398438 -6.210938 0.359375 -6.609375 C 0.304688 -7.160156 0.269531 -7.644531 0.25 -8.0625 C 0.226562 -8.476562 0.191406 -8.953125 0.140625 -9.484375 C 0.0859375 -9.921875 0.0351562 -10.351562 -0.015625 -10.78125 C -0.0664062 -11.21875 -0.113281 -11.644531 -0.15625 -12.0625 C -0.226562 -12.78125 -0.28125 -13.425781 -0.3125 -14 C -0.351562 -14.582031 -0.421875 -15.242188 -0.515625 -15.984375 C -0.585938 -16.515625 -0.648438 -16.984375 -0.703125 -17.390625 C -0.765625 -17.796875 -0.820312 -18.265625 -0.875 -18.796875 C -0.9375 -19.347656 -0.828125 -19.726562 -0.546875 -19.9375 C -0.265625 -20.144531 0.09375 -20.269531 0.53125 -20.3125 C 0.71875 -20.332031 0.898438 -20.34375 1.078125 -20.34375 C 1.253906 -20.34375 1.429688 -20.347656 1.609375 -20.359375 C 1.867188 -20.390625 2.125 -20.425781 2.375 -20.46875 C 2.625 -20.519531 2.875 -20.554688 3.125 -20.578125 C 3.289062 -20.597656 3.457031 -20.609375 3.625 -20.609375 C 3.800781 -20.617188 3.972656 -20.632812 4.140625 -20.65625 C 4.390625 -20.65625 4.625 -20.675781 4.84375 -20.71875 C 5.070312 -20.757812 5.3125 -20.796875 5.5625 -20.828125 C 6.8125 -20.984375 7.859375 -20.910156 8.703125 -20.609375 C 9.554688 -20.304688 10.242188 -19.875 10.765625 -19.3125 C 11.054688 -18.988281 11.253906 -18.703125 11.359375 -18.453125 C 11.472656 -18.203125 11.570312 -18.007812 11.65625 -17.875 C 11.832031 -17.488281 12.015625 -17.078125 12.203125 -16.640625 C 12.390625 -16.210938 12.523438 -15.597656 12.609375 -14.796875 Z M 7.40625 -12.5 C 7.382812 -12.664062 7.363281 -12.8125 7.34375 -12.9375 C 7.332031 -13.0625 7.316406 -13.207031 7.296875 -13.375 C 7.285156 -13.539062 7.273438 -13.691406 7.265625 -13.828125 C 7.253906 -13.960938 7.242188 -14.113281 7.234375 -14.28125 C 7.171875 -14.875 6.984375 -15.320312 6.671875 -15.625 C 6.367188 -15.9375 6.03125 -16.070312 5.65625 -16.03125 L 5.546875 -16.03125 C 5.378906 -16.007812 5.222656 -15.9375 5.078125 -15.8125 C 4.910156 -15.65625 4.800781 -15.421875 4.75 -15.109375 C 4.695312 -14.796875 4.6875 -14.445312 4.71875 -14.0625 L 4.90625 -12.265625 C 4.957031 -11.742188 5.128906 -11.34375 5.421875 -11.0625 C 5.722656 -10.789062 6.023438 -10.679688 6.328125 -10.734375 C 6.535156 -10.753906 6.742188 -10.867188 6.953125 -11.078125 C 7.117188 -11.253906 7.242188 -11.441406 7.328125 -11.640625 C 7.421875 -11.847656 7.445312 -12.132812 7.40625 -12.5 Z M 7.40625 -12.5 "/></g></g></g></svg>