<svg xmlns="http://www.w3.org/2000/svg" xmlns:xlink="http://www.w3.org/1999/xlink" width="1600" zoomAndPan="magnify" viewBox="0 0 1200 591.000005" height="788" preserveAspectRatio="xMidYMid meet" version="1.0"><defs><g/><clipPath id="16491aa81b"><path d="M 364 59 L 835.699219 59 L 835.699219 530.703125 L 364 530.703125 Z M 364 59 " clip-rule="nonzero"/></clipPath><clipPath id="34ae13573c"><path d="M 600.011719 521.539062 C 474.902344 521.539062 373.480469 420.121094 373.480469 295.011719 C 373.480469 169.902344 474.902344 68.480469 600.011719 68.480469 C 725.117188 68.480469 826.539062 169.902344 826.539062 295.011719 C 826.539062 420.121094 725.117188 521.539062 600.011719 521.539062 Z M 600.011719 59 C 469.664062 59 364 164.664062 364 295.011719 C 364 425.355469 469.664062 531.019531 600.011719 531.019531 C 730.355469 531.019531 836.019531 425.355469 836.019531 295.011719 C 836.019531 164.664062 730.355469 59 600.011719 59 Z M 600.011719 59 " clip-rule="nonzero"/></clipPath><clipPath id="7a88e88589"><path d="M 449.261719 144.265625 L 751 144.265625 L 751 446 L 449.261719 446 Z M 449.261719 144.265625 " clip-rule="nonzero"/></clipPath><clipPath id="f4f3345d9f"><path d="M 600.007812 439.695312 C 520.097656 439.695312 455.320312 374.917969 455.320312 295.007812 C 455.320312 215.097656 520.097656 150.320312 600.007812 150.320312 C 679.917969 150.320312 744.695312 215.097656 744.695312 295.007812 C 744.695312 374.917969 679.917969 439.695312 600.007812 439.695312 Z M 600.007812 144.265625 C 516.753906 144.265625 449.261719 211.753906 449.261719 295.007812 C 449.261719 378.261719 516.753906 445.75 600.007812 445.75 C 683.261719 445.75 750.75 378.261719 750.75 295.007812 C 750.75 211.753906 683.261719 144.265625 600.007812 144.265625 Z M 600.007812 144.265625 " clip-rule="nonzero"/></clipPath><linearGradient x1="517.701524" gradientTransform="matrix(0.493163, 0, 0, 0.493163, 449.263442, 144.264279)" y1="666.374659" x2="93.632751" gradientUnits="userSpaceOnUse" y2="-55.040082" id="ee3c728a0c"><stop stop-opacity="1" stop-color="rgb(12.254333%, 23.327637%, 43.815613%)" offset="0"/><stop stop-opacity="1" stop-color="rgb(12.319946%, 23.475647%, 43.994141%)" offset="0.0078125"/><stop stop-opacity="1" stop-color="rgb(12.452698%, 23.773193%, 44.34967%)" offset="0.015625"/><stop stop-opacity="1" stop-color="rgb(12.583923%, 24.069214%, 44.706726%)" offset="0.0234375"/><stop stop-opacity="1" stop-color="rgb(12.716675%, 24.36676%, 45.062256%)" offset="0.03125"/><stop stop-opacity="1" stop-color="rgb(12.8479%, 24.662781%, 45.419312%)" offset="0.0390625"/><stop stop-opacity="1" stop-color="rgb(12.980652%, 24.960327%, 45.774841%)" offset="0.046875"/><stop stop-opacity="1" stop-color="rgb(13.111877%, 25.256348%, 46.131897%)" offset="0.0546875"/><stop stop-opacity="1" stop-color="rgb(13.243103%, 25.553894%, 46.487427%)" offset="0.0625"/><stop stop-opacity="1" stop-color="rgb(13.375854%, 25.849915%, 46.844482%)" offset="0.0703125"/><stop stop-opacity="1" stop-color="rgb(13.50708%, 26.147461%, 47.200012%)" offset="0.078125"/><stop stop-opacity="1" stop-color="rgb(13.639832%, 26.443481%, 47.557068%)" offset="0.0859375"/><stop stop-opacity="1" stop-color="rgb(13.771057%, 26.741028%, 47.912598%)" offset="0.09375"/><stop stop-opacity="1" stop-color="rgb(13.902283%, 27.037048%, 48.269653%)" offset="0.101562"/><stop stop-opacity="1" stop-color="rgb(14.035034%, 27.334595%, 48.625183%)" offset="0.109375"/><stop stop-opacity="1" stop-color="rgb(14.16626%, 27.630615%, 48.982239%)" offset="0.117187"/><stop stop-opacity="1" stop-color="rgb(14.299011%, 27.928162%, 49.337769%)" offset="0.125"/><stop stop-opacity="1" stop-color="rgb(14.430237%, 28.224182%, 49.694824%)" offset="0.132812"/><stop stop-opacity="1" stop-color="rgb(14.561462%, 28.521729%, 50.050354%)" offset="0.140625"/><stop stop-opacity="1" stop-color="rgb(14.694214%, 28.817749%, 50.40741%)" offset="0.148437"/><stop stop-opacity="1" stop-color="rgb(14.825439%, 29.115295%, 50.762939%)" offset="0.15625"/><stop stop-opacity="1" stop-color="rgb(14.958191%, 29.411316%, 51.119995%)" offset="0.164062"/><stop stop-opacity="1" stop-color="rgb(15.089417%, 29.708862%, 51.475525%)" offset="0.171875"/><stop stop-opacity="1" stop-color="rgb(15.220642%, 30.004883%, 51.832581%)" offset="0.179687"/><stop stop-opacity="1" stop-color="rgb(15.353394%, 30.302429%, 52.18811%)" offset="0.1875"/><stop stop-opacity="1" stop-color="rgb(15.484619%, 30.59845%, 52.54364%)" offset="0.195312"/><stop stop-opacity="1" stop-color="rgb(15.617371%, 30.895996%, 52.900696%)" offset="0.203125"/><stop stop-opacity="1" stop-color="rgb(15.748596%, 31.192017%, 53.256226%)" offset="0.210937"/><stop stop-opacity="1" stop-color="rgb(15.881348%, 31.489563%, 53.613281%)" offset="0.21875"/><stop stop-opacity="1" stop-color="rgb(16.012573%, 31.785583%, 53.968811%)" offset="0.226562"/><stop stop-opacity="1" stop-color="rgb(16.143799%, 32.08313%, 54.325867%)" offset="0.234375"/><stop stop-opacity="1" stop-color="rgb(16.27655%, 32.380676%, 54.681396%)" offset="0.242187"/><stop stop-opacity="1" stop-color="rgb(16.407776%, 32.676697%, 55.038452%)" offset="0.25"/><stop stop-opacity="1" stop-color="rgb(16.540527%, 32.974243%, 55.393982%)" offset="0.257812"/><stop stop-opacity="1" stop-color="rgb(16.671753%, 33.270264%, 55.751038%)" offset="0.265625"/><stop stop-opacity="1" stop-color="rgb(16.802979%, 33.56781%, 56.106567%)" offset="0.273437"/><stop stop-opacity="1" stop-color="rgb(16.93573%, 33.863831%, 56.463623%)" offset="0.28125"/><stop stop-opacity="1" stop-color="rgb(17.066956%, 34.161377%, 56.819153%)" offset="0.289062"/><stop stop-opacity="1" stop-color="rgb(17.199707%, 34.457397%, 57.176208%)" offset="0.296875"/><stop stop-opacity="1" stop-color="rgb(17.330933%, 34.754944%, 57.531738%)" offset="0.304687"/><stop stop-opacity="1" stop-color="rgb(17.462158%, 35.050964%, 57.888794%)" offset="0.3125"/><stop stop-opacity="1" stop-color="rgb(17.59491%, 35.348511%, 58.244324%)" offset="0.320312"/><stop stop-opacity="1" stop-color="rgb(17.726135%, 35.644531%, 58.601379%)" offset="0.328125"/><stop stop-opacity="1" stop-color="rgb(17.858887%, 35.942078%, 58.956909%)" offset="0.335937"/><stop stop-opacity="1" stop-color="rgb(17.990112%, 36.238098%, 59.313965%)" offset="0.34375"/><stop stop-opacity="1" stop-color="rgb(18.121338%, 36.535645%, 59.669495%)" offset="0.351562"/><stop stop-opacity="1" stop-color="rgb(18.254089%, 36.831665%, 60.02655%)" offset="0.359375"/><stop stop-opacity="1" stop-color="rgb(18.385315%, 37.129211%, 60.38208%)" offset="0.367187"/><stop stop-opacity="1" stop-color="rgb(18.518066%, 37.425232%, 60.739136%)" offset="0.370209"/><stop stop-opacity="1" stop-color="rgb(18.583679%, 37.574768%, 60.917664%)" offset="0.375"/><stop stop-opacity="1" stop-color="rgb(18.649292%, 37.722778%, 61.094666%)" offset="0.382812"/><stop stop-opacity="1" stop-color="rgb(18.782043%, 38.018799%, 61.451721%)" offset="0.390625"/><stop stop-opacity="1" stop-color="rgb(18.913269%, 38.316345%, 61.807251%)" offset="0.398437"/><stop stop-opacity="1" stop-color="rgb(19.044495%, 38.612366%, 62.164307%)" offset="0.40625"/><stop stop-opacity="1" stop-color="rgb(19.177246%, 38.909912%, 62.519836%)" offset="0.414062"/><stop stop-opacity="1" stop-color="rgb(19.308472%, 39.205933%, 62.876892%)" offset="0.421875"/><stop stop-opacity="1" stop-color="rgb(19.441223%, 39.503479%, 63.232422%)" offset="0.429687"/><stop stop-opacity="1" stop-color="rgb(19.572449%, 39.7995%, 63.589478%)" offset="0.4375"/><stop stop-opacity="1" stop-color="rgb(19.703674%, 40.097046%, 63.945007%)" offset="0.445312"/><stop stop-opacity="1" stop-color="rgb(19.836426%, 40.393066%, 64.302063%)" offset="0.453125"/><stop stop-opacity="1" stop-color="rgb(19.967651%, 40.690613%, 64.657593%)" offset="0.460937"/><stop stop-opacity="1" stop-color="rgb(20.100403%, 40.986633%, 65.014648%)" offset="0.46875"/><stop stop-opacity="1" stop-color="rgb(20.231628%, 41.28418%, 65.370178%)" offset="0.476562"/><stop stop-opacity="1" stop-color="rgb(20.362854%, 41.5802%, 65.727234%)" offset="0.484375"/><stop stop-opacity="1" stop-color="rgb(20.495605%, 41.877747%, 66.082764%)" offset="0.492187"/><stop stop-opacity="1" stop-color="rgb(20.626831%, 42.173767%, 66.439819%)" offset="0.5"/><stop stop-opacity="1" stop-color="rgb(20.759583%, 42.471313%, 66.795349%)" offset="0.507812"/><stop stop-opacity="1" stop-color="rgb(20.890808%, 42.767334%, 67.150879%)" offset="0.515625"/><stop stop-opacity="1" stop-color="rgb(21.022034%, 43.06488%, 67.507935%)" offset="0.523437"/><stop stop-opacity="1" stop-color="rgb(21.154785%, 43.360901%, 67.863464%)" offset="0.53125"/><stop stop-opacity="1" stop-color="rgb(21.286011%, 43.658447%, 68.22052%)" offset="0.539062"/><stop stop-opacity="1" stop-color="rgb(21.418762%, 43.954468%, 68.57605%)" offset="0.546875"/><stop stop-opacity="1" stop-color="rgb(21.549988%, 44.252014%, 68.933105%)" offset="0.554688"/><stop stop-opacity="1" stop-color="rgb(21.682739%, 44.549561%, 69.288635%)" offset="0.5625"/><stop stop-opacity="1" stop-color="rgb(21.813965%, 44.845581%, 69.645691%)" offset="0.570312"/><stop stop-opacity="1" stop-color="rgb(21.94519%, 45.143127%, 70.001221%)" offset="0.578125"/><stop stop-opacity="1" stop-color="rgb(22.077942%, 45.439148%, 70.358276%)" offset="0.585938"/><stop stop-opacity="1" stop-color="rgb(22.209167%, 45.736694%, 70.713806%)" offset="0.59375"/><stop stop-opacity="1" stop-color="rgb(22.341919%, 46.032715%, 71.070862%)" offset="0.601562"/><stop stop-opacity="1" stop-color="rgb(22.473145%, 46.330261%, 71.426392%)" offset="0.609375"/><stop stop-opacity="1" stop-color="rgb(22.60437%, 46.626282%, 71.783447%)" offset="0.617187"/><stop stop-opacity="1" stop-color="rgb(22.737122%, 46.923828%, 72.138977%)" offset="0.625"/><stop stop-opacity="1" stop-color="rgb(22.868347%, 47.219849%, 72.496033%)" offset="0.629791"/><stop stop-opacity="1" stop-color="rgb(22.935486%, 47.369385%, 72.674561%)" offset="0.632812"/><stop stop-opacity="1" stop-color="rgb(23.001099%, 47.517395%, 72.851562%)" offset="0.640625"/><stop stop-opacity="1" stop-color="rgb(23.132324%, 47.813416%, 73.208618%)" offset="0.648437"/><stop stop-opacity="1" stop-color="rgb(23.26355%, 48.110962%, 73.564148%)" offset="0.65625"/><stop stop-opacity="1" stop-color="rgb(23.396301%, 48.406982%, 73.921204%)" offset="0.664062"/><stop stop-opacity="1" stop-color="rgb(23.527527%, 48.704529%, 74.276733%)" offset="0.671875"/><stop stop-opacity="1" stop-color="rgb(23.660278%, 49.000549%, 74.633789%)" offset="0.679688"/><stop stop-opacity="1" stop-color="rgb(23.791504%, 49.298096%, 74.989319%)" offset="0.6875"/><stop stop-opacity="1" stop-color="rgb(23.922729%, 49.594116%, 75.346375%)" offset="0.695312"/><stop stop-opacity="1" stop-color="rgb(24.055481%, 49.891663%, 75.701904%)" offset="0.703125"/><stop stop-opacity="1" stop-color="rgb(24.186707%, 50.187683%, 76.05896%)" offset="0.710937"/><stop stop-opacity="1" stop-color="rgb(24.319458%, 50.485229%, 76.41449%)" offset="0.71875"/><stop stop-opacity="1" stop-color="rgb(24.450684%, 50.78125%, 76.771545%)" offset="0.726562"/><stop stop-opacity="1" stop-color="rgb(24.583435%, 51.078796%, 77.127075%)" offset="0.734375"/><stop stop-opacity="1" stop-color="rgb(24.714661%, 51.374817%, 77.484131%)" offset="0.742187"/><stop stop-opacity="1" stop-color="rgb(24.845886%, 51.672363%, 77.839661%)" offset="0.75"/><stop stop-opacity="1" stop-color="rgb(24.978638%, 51.968384%, 78.196716%)" offset="0.757812"/><stop stop-opacity="1" stop-color="rgb(25.109863%, 52.26593%, 78.552246%)" offset="0.765625"/><stop stop-opacity="1" stop-color="rgb(25.242615%, 52.561951%, 78.909302%)" offset="0.773438"/><stop stop-opacity="1" stop-color="rgb(25.37384%, 52.859497%, 79.264832%)" offset="0.78125"/><stop stop-opacity="1" stop-color="rgb(25.505066%, 53.155518%, 79.621887%)" offset="0.789063"/><stop stop-opacity="1" stop-color="rgb(25.637817%, 53.453064%, 79.977417%)" offset="0.796875"/><stop stop-opacity="1" stop-color="rgb(25.769043%, 53.749084%, 80.334473%)" offset="0.804687"/><stop stop-opacity="1" stop-color="rgb(25.901794%, 54.046631%, 80.690002%)" offset="0.8125"/><stop stop-opacity="1" stop-color="rgb(26.03302%, 54.342651%, 81.047058%)" offset="0.820312"/><stop stop-opacity="1" stop-color="rgb(26.164246%, 54.640198%, 81.402588%)" offset="0.828125"/><stop stop-opacity="1" stop-color="rgb(26.296997%, 54.936218%, 81.758118%)" offset="0.835938"/><stop stop-opacity="1" stop-color="rgb(26.428223%, 55.233765%, 82.115173%)" offset="0.84375"/><stop stop-opacity="1" stop-color="rgb(26.560974%, 55.529785%, 82.470703%)" offset="0.851562"/><stop stop-opacity="1" stop-color="rgb(26.6922%, 55.827332%, 82.827759%)" offset="0.859375"/><stop stop-opacity="1" stop-color="rgb(26.823425%, 56.123352%, 83.183289%)" offset="0.867188"/><stop stop-opacity="1" stop-color="rgb(26.956177%, 56.420898%, 83.540344%)" offset="0.875"/><stop stop-opacity="1" stop-color="rgb(27.087402%, 56.718445%, 83.895874%)" offset="0.882812"/><stop stop-opacity="1" stop-color="rgb(27.220154%, 57.014465%, 84.25293%)" offset="0.890625"/><stop stop-opacity="1" stop-color="rgb(27.351379%, 57.312012%, 84.608459%)" offset="0.898437"/><stop stop-opacity="1" stop-color="rgb(27.484131%, 57.608032%, 84.965515%)" offset="0.90625"/><stop stop-opacity="1" stop-color="rgb(27.615356%, 57.905579%, 85.321045%)" offset="0.914062"/><stop stop-opacity="1" stop-color="rgb(27.746582%, 58.201599%, 85.678101%)" offset="0.921875"/><stop stop-opacity="1" stop-color="rgb(27.879333%, 58.499146%, 86.03363%)" offset="0.929688"/><stop stop-opacity="1" stop-color="rgb(28.010559%, 58.795166%, 86.390686%)" offset="0.9375"/><stop stop-opacity="1" stop-color="rgb(28.143311%, 59.092712%, 86.746216%)" offset="0.945312"/><stop stop-opacity="1" stop-color="rgb(28.274536%, 59.388733%, 87.103271%)" offset="0.953125"/><stop stop-opacity="1" stop-color="rgb(28.405762%, 59.686279%, 87.458801%)" offset="0.960937"/><stop stop-opacity="1" stop-color="rgb(28.538513%, 59.9823%, 87.815857%)" offset="0.96875"/><stop stop-opacity="1" stop-color="rgb(28.669739%, 60.279846%, 88.171387%)" offset="0.976562"/><stop stop-opacity="1" stop-color="rgb(28.80249%, 60.575867%, 88.528442%)" offset="0.984375"/><stop stop-opacity="1" stop-color="rgb(28.933716%, 60.873413%, 88.883972%)" offset="0.992187"/><stop stop-opacity="1" stop-color="rgb(29.064941%, 61.169434%, 89.241028%)" offset="1"/></linearGradient><clipPath id="717c27f8fc"><path d="M 463.433594 158.433594 L 736.566406 158.433594 L 736.566406 431.566406 L 463.433594 431.566406 Z M 463.433594 158.433594 " clip-rule="nonzero"/></clipPath><clipPath id="e848ce7ba1"><path d="M 600 158.433594 C 524.578125 158.433594 463.433594 219.578125 463.433594 295 C 463.433594 370.425781 524.578125 431.566406 600 431.566406 C 675.421875 431.566406 736.566406 370.425781 736.566406 295 C 736.566406 219.578125 675.421875 158.433594 600 158.433594 Z M 600 158.433594 " clip-rule="nonzero"/></clipPath><clipPath id="dab027e6b2"><path d="M 474.777344 290 L 600 290 L 600 372 L 474.777344 372 Z M 474.777344 290 " clip-rule="nonzero"/></clipPath><clipPath id="1b8b4a3bd3"><path d="M 600 290 L 724.855469 290 L 724.855469 372 L 600 372 Z M 600 290 " clip-rule="nonzero"/></clipPath><clipPath id="4fac45f0d0"><path d="M 599 326 L 709 326 L 709 380.625 L 599 380.625 Z M 599 326 " clip-rule="nonzero"/></clipPath><clipPath id="2ffd2bdf95"><path d="M 491 326 L 600 326 L 600 380.625 L 491 380.625 Z M 491 326 " clip-rule="nonzero"/></clipPath><clipPath id="efb09187f5"><path d="M 387.339844 312.582031 L 449.484375 312.582031 L 449.484375 374.726562 L 387.339844 374.726562 Z M 387.339844 312.582031 " clip-rule="nonzero"/></clipPath><clipPath id="a917d20782"><path d="M 750.738281 312.582031 L 812.882812 312.582031 L 812.882812 374.726562 L 750.738281 374.726562 Z M 750.738281 312.582031 " clip-rule="nonzero"/></clipPath></defs><g clip-path="url(#16491aa81b)"><g clip-path="url(#34ae13573c)"><path fill="#0054a6" d="M 364 59 L 364 530.703125 L 835.699219 530.703125 L 835.699219 59 Z M 364 59 " fill-opacity="1" fill-rule="nonzero"/></g></g><g clip-path="url(#7a88e88589)"><g clip-path="url(#f4f3345d9f)"><path fill="url(#ee3c728a0c)" d="M 449.261719 144.265625 L 449.261719 445.75 L 750.75 445.75 L 750.75 144.265625 Z M 449.261719 144.265625 " fill-rule="nonzero"/></g></g><g clip-path="url(#717c27f8fc)"><g clip-path="url(#e848ce7ba1)"><path fill="#0054a6" d="M 463.433594 158.433594 L 736.566406 158.433594 L 736.566406 431.566406 L 463.433594 431.566406 Z M 463.433594 158.433594 " fill-opacity="1" fill-rule="nonzero"/></g></g><path fill="#ffffff" d="M 538.445312 258.902344 C 539.753906 259.855469 541.363281 260.214844 542.851562 259.976562 L 547.378906 277.308594 C 545.472656 277.960938 543.683594 279.152344 542.375 280.941406 C 539.160156 285.40625 540.171875 291.601562 544.578125 294.816406 C 549.046875 298.035156 555.238281 297.019531 558.457031 292.613281 C 558.457031 292.613281 558.515625 292.554688 558.515625 292.554688 L 594.488281 315.007812 C 592.523438 318.757812 593.476562 323.464844 596.988281 326.023438 C 600.859375 328.824219 606.222656 327.929688 609.019531 324.121094 C 611.34375 320.960938 611.105469 316.734375 608.78125 313.757812 L 626.648438 297.734375 C 626.945312 298.035156 627.246094 298.332031 627.542969 298.570312 C 631.414062 301.367188 636.773438 300.476562 639.574219 296.664062 C 641.0625 294.578125 641.480469 292.078125 641.003906 289.753906 L 657.617188 284.871094 C 658.035156 285.882812 658.691406 286.777344 659.644531 287.433594 C 662.324219 289.335938 666.015625 288.742188 667.980469 286.121094 C 669.886719 283.441406 669.292969 279.75 666.671875 277.785156 C 665.660156 277.070312 664.46875 276.652344 663.335938 276.652344 L 660.539062 240.320312 C 662.441406 240.023438 664.230469 239.011719 665.480469 237.285156 C 667.921875 233.949219 667.148438 229.246094 663.8125 226.800781 C 660.476562 224.359375 655.773438 225.132812 653.332031 228.46875 C 652.972656 228.945312 652.734375 229.421875 652.496094 229.957031 L 615.332031 217.570312 C 615.867188 215.25 614.976562 212.6875 612.949219 211.199219 C 610.210938 209.171875 606.339844 209.828125 604.316406 212.566406 C 603.539062 213.640625 603.125 214.949219 603.125 216.199219 L 580.789062 218.34375 C 580.550781 217.214844 579.894531 216.199219 578.945312 215.488281 C 576.800781 213.9375 573.761719 214.414062 572.152344 216.558594 C 570.84375 218.34375 570.960938 220.726562 572.273438 222.394531 L 545.652344 249.492188 C 545.589844 249.433594 545.53125 249.375 545.414062 249.316406 C 542.734375 247.410156 539.039062 248.003906 537.074219 250.625 C 535.167969 253.246094 535.765625 256.9375 538.445312 258.902344 Z M 573.226562 223.230469 C 573.703125 223.585938 574.179688 223.765625 574.714844 223.945312 L 570.84375 247.410156 C 569.773438 247.410156 568.757812 247.886719 568.105469 248.777344 C 567.6875 249.316406 567.507812 249.910156 567.449219 250.566406 L 547.734375 252.769531 C 547.554688 251.816406 547.140625 250.984375 546.484375 250.207031 L 573.105469 223.109375 C 573.167969 223.167969 573.167969 223.230469 573.226562 223.230469 Z M 560.363281 286.539062 C 560.300781 283.5625 558.871094 280.582031 556.253906 278.675781 C 556.132812 278.558594 555.953125 278.5 555.835938 278.378906 L 569.710938 254.019531 C 570.367188 254.257812 571.140625 254.257812 571.796875 254.078125 L 586.03125 283.144531 C 585.375 283.5625 584.839844 284.039062 584.363281 284.691406 C 583.769531 285.527344 583.46875 286.417969 583.292969 287.371094 Z M 573.582031 252.886719 C 573.761719 252.648438 573.882812 252.351562 574 252.054688 L 592.046875 255.449219 C 591.332031 260.453125 593.355469 265.695312 597.761719 268.910156 C 598.0625 269.148438 598.417969 269.328125 598.777344 269.566406 L 591.511719 282.847656 C 590.082031 282.25 588.53125 282.191406 587.101562 282.726562 L 572.867188 253.664062 C 573.105469 253.425781 573.40625 253.1875 573.582031 252.886719 Z M 592.640625 283.441406 C 592.582031 283.382812 592.523438 283.382812 592.523438 283.382812 L 599.789062 270.101562 C 601.335938 270.875 602.945312 271.292969 604.554688 271.46875 L 602.050781 310.363281 C 601.097656 310.363281 600.207031 310.539062 599.3125 310.839844 L 591.988281 293.507812 C 592.761719 293.089844 593.414062 292.554688 593.953125 291.78125 C 595.917969 289.097656 595.320312 285.40625 592.640625 283.441406 Z M 607.171875 311.96875 C 605.984375 311.078125 604.613281 310.601562 603.242188 310.421875 L 605.746094 271.53125 C 608.78125 271.589844 611.757812 270.695312 614.261719 268.910156 L 626.886719 285.050781 C 626.46875 285.464844 626.054688 285.882812 625.695312 286.417969 C 623.375 289.636719 623.613281 293.863281 625.933594 296.78125 L 608.066406 312.804688 C 607.769531 312.503906 607.472656 312.207031 607.171875 311.96875 Z M 627.839844 284.335938 L 615.214844 268.195312 C 616.046875 267.480469 616.820312 266.644531 617.476562 265.753906 C 619.679688 262.714844 620.453125 259.140625 620.039062 255.6875 L 640.226562 252.292969 C 640.40625 252.710938 640.703125 253.125 641.121094 253.425781 C 641.242188 253.484375 641.359375 253.542969 641.480469 253.601562 L 634.152344 283.023438 C 632.007812 282.609375 629.746094 283.085938 627.839844 284.335938 Z M 640.050781 251.101562 L 619.859375 254.496094 C 619.144531 251.160156 617.296875 248.125 614.320312 245.980469 C 612.296875 244.492188 610.03125 243.65625 607.710938 243.417969 L 609.378906 222.277344 C 610.6875 222.277344 611.996094 221.800781 613.070312 220.964844 L 640.527344 249.792969 C 640.226562 250.207031 640.109375 250.683594 640.050781 251.101562 Z M 605.148438 220.667969 C 605.328125 220.847656 605.445312 220.964844 605.683594 221.144531 C 606.460938 221.738281 607.351562 222.039062 608.246094 222.214844 L 606.578125 243.359375 C 602.050781 243.179688 597.527344 245.207031 594.605469 249.195312 C 593.476562 250.804688 592.703125 252.53125 592.285156 254.316406 L 574.238281 250.921875 C 574.238281 250.269531 574.058594 249.613281 573.703125 249.078125 Z M 543.984375 259.617188 C 545.054688 259.203125 546.007812 258.546875 546.722656 257.535156 C 547.496094 256.460938 547.855469 255.210938 547.855469 253.960938 L 567.566406 251.757812 C 567.746094 252.414062 568.105469 252.949219 568.640625 253.425781 L 554.761719 277.785156 C 552.738281 276.769531 550.535156 276.53125 548.449219 276.949219 Z M 559.171875 291.480469 C 559.824219 290.289062 560.183594 289.039062 560.300781 287.730469 L 583.171875 288.625 C 583.292969 290.351562 584.066406 292.019531 585.613281 293.089844 C 587.164062 294.222656 589.128906 294.460938 590.855469 293.921875 L 598.179688 311.253906 C 596.988281 311.851562 595.917969 312.683594 595.082031 313.875 Z M 640.765625 288.503906 C 640.167969 286.957031 639.15625 285.585938 637.726562 284.511719 C 636.953125 283.976562 636.179688 283.621094 635.34375 283.324219 L 642.671875 253.960938 C 643.027344 253.960938 643.324219 253.902344 643.621094 253.78125 L 659.464844 277.902344 C 659.046875 278.199219 658.691406 278.558594 658.394531 279.035156 C 657.378906 280.402344 657.082031 282.070312 657.378906 283.621094 Z M 662.144531 276.652344 C 661.550781 276.769531 661.015625 276.949219 660.417969 277.246094 L 644.574219 253.125 C 644.636719 253.066406 644.753906 252.949219 644.8125 252.828125 C 645.46875 251.875 645.46875 250.683594 644.8125 249.730469 L 654.761719 238.714844 C 654.820312 238.773438 654.878906 238.832031 654.9375 238.832031 C 656.25 239.785156 657.796875 240.261719 659.347656 240.261719 Z M 652.082031 231.03125 C 651.484375 233.472656 652.140625 236.09375 653.925781 238 L 643.980469 249.015625 C 643.148438 248.539062 642.132812 248.601562 641.359375 249.015625 L 613.902344 220.132812 C 614.023438 220.011719 614.140625 219.894531 614.261719 219.714844 C 614.5 219.359375 614.738281 219 614.917969 218.582031 Z M 603.242188 217.273438 C 603.421875 218.167969 603.777344 219 604.375 219.773438 L 572.988281 248.183594 C 572.929688 248.183594 572.929688 248.125 572.929688 248.125 C 572.628906 247.945312 572.332031 247.765625 572.035156 247.707031 L 575.90625 224.242188 C 577.453125 224.300781 579.0625 223.585938 580.015625 222.214844 C 580.609375 221.382812 580.910156 220.429688 580.910156 219.476562 Z M 603.242188 217.273438 " fill-opacity="1" fill-rule="nonzero"/><g clip-path="url(#dab027e6b2)"><path fill="#ffffff" d="M 547.855469 319.414062 C 527.246094 304.882812 502.589844 294.519531 475.730469 290.886719 L 474.777344 321.738281 C 496.160156 320.070312 518.96875 323.882812 540.410156 332.933594 C 561.851562 341.867188 582.339844 354.96875 599.96875 371.585938 C 586.210938 351.574219 568.582031 333.886719 547.855469 319.414062 Z M 547.855469 319.414062 " fill-opacity="1" fill-rule="nonzero"/></g><g clip-path="url(#1b8b4a3bd3)"><path fill="#ffffff" d="M 724.265625 290.886719 C 697.402344 294.578125 672.746094 304.941406 652.140625 319.414062 C 631.472656 333.828125 613.785156 351.574219 600.027344 371.585938 C 617.65625 354.96875 638.144531 341.867188 659.585938 332.933594 C 681.023438 323.820312 703.777344 320.070312 725.214844 321.738281 Z M 724.265625 290.886719 " fill-opacity="1" fill-rule="nonzero"/></g><g clip-path="url(#4fac45f0d0)"><path fill="#ffffff" d="M 645.289062 345.621094 C 627.304688 355.328125 611.996094 367.296875 599.96875 380.816406 C 615.273438 369.621094 633.082031 360.808594 651.722656 354.730469 C 670.363281 348.597656 690.136719 346.035156 708.777344 347.167969 L 707.945312 326.382812 C 684.65625 328.882812 663.21875 335.851562 645.289062 345.621094 Z M 645.289062 345.621094 " fill-opacity="1" fill-rule="nonzero"/></g><g clip-path="url(#2ffd2bdf95)"><path fill="#ffffff" d="M 554.703125 345.621094 C 536.777344 335.851562 515.335938 328.824219 491.988281 326.382812 L 491.15625 347.167969 C 509.738281 346.035156 529.570312 348.597656 548.210938 354.730469 C 566.851562 360.746094 584.660156 369.621094 599.96875 380.816406 C 587.996094 367.359375 572.691406 355.386719 554.703125 345.621094 Z M 554.703125 345.621094 " fill-opacity="1" fill-rule="nonzero"/></g><g clip-path="url(#efb09187f5)"><path fill="#182b5c" d="M 449.261719 343.542969 C 449.261719 326.445312 435.398438 312.582031 418.300781 312.582031 C 401.199219 312.582031 387.339844 326.445312 387.339844 343.542969 C 387.339844 360.644531 401.199219 374.503906 418.300781 374.503906 C 435.398438 374.503906 449.261719 360.644531 449.261719 343.542969 Z M 415.152344 368.21875 C 415.457031 368.429688 415.847656 368.199219 415.847656 367.832031 L 415.847656 357.207031 C 415.847656 356.949219 415.640625 356.734375 415.378906 356.722656 C 413.132812 356.632812 410.933594 356.441406 408.808594 356.15625 C 408.460938 356.109375 408.175781 356.433594 408.277344 356.769531 C 408.964844 359.09375 409.824219 361.175781 410.800781 362.953125 C 412.257812 365.605469 413.765625 367.261719 415.152344 368.21875 Z M 421.476562 356.710938 C 421.214844 356.722656 421.007812 356.9375 421.007812 357.199219 L 421.007812 367.644531 C 421.007812 368.023438 421.417969 368.25 421.71875 368.023438 C 423.03125 367.039062 424.4375 365.433594 425.800781 362.953125 C 426.773438 361.175781 427.632812 359.09375 428.324219 356.769531 C 428.421875 356.433594 428.140625 356.109375 427.792969 356.15625 C 425.746094 356.433594 423.632812 356.617188 421.476562 356.710938 Z M 421.511719 351.546875 C 421.238281 351.558594 421.007812 351.339844 421.007812 351.0625 L 421.007812 340.90625 C 421.007812 340.644531 421.214844 340.433594 421.472656 340.417969 C 424.238281 340.277344 426.914062 339.953125 429.4375 339.460938 C 429.722656 339.40625 429.992188 339.609375 430.015625 339.902344 C 430.097656 341.085938 430.140625 342.304688 430.140625 343.542969 C 430.140625 345.894531 429.984375 348.15625 429.695312 350.300781 C 429.664062 350.507812 429.507812 350.671875 429.300781 350.707031 C 426.847656 351.128906 424.238281 351.417969 421.511719 351.546875 Z M 415.34375 335.261719 C 415.617188 335.277344 415.847656 335.058594 415.847656 334.78125 L 415.847656 319.257812 C 415.847656 318.886719 415.457031 318.660156 415.152344 318.867188 C 413.765625 319.828125 412.257812 321.484375 410.800781 324.136719 C 409.363281 326.75 408.183594 330.023438 407.417969 333.761719 C 407.367188 334.023438 407.53125 334.273438 407.792969 334.328125 C 410.128906 334.800781 412.664062 335.125 415.34375 335.261719 Z M 421.007812 334.765625 C 421.007812 335.042969 421.242188 335.265625 421.515625 335.25 C 424.097656 335.101562 426.546875 334.785156 428.808594 334.328125 C 429.066406 334.273438 429.234375 334.023438 429.179688 333.761719 C 428.414062 330.023438 427.234375 326.75 425.800781 324.136719 C 424.4375 321.65625 423.03125 320.050781 421.71875 319.066406 C 421.417969 318.839844 421.007812 319.066406 421.007812 319.445312 Z M 415.347656 351.558594 C 415.621094 351.570312 415.847656 351.347656 415.847656 351.074219 L 415.847656 340.917969 C 415.847656 340.65625 415.644531 340.445312 415.382812 340.433594 C 412.527344 340.296875 409.765625 339.96875 407.164062 339.460938 C 406.878906 339.40625 406.605469 339.609375 406.585938 339.902344 C 406.5 341.085938 406.457031 342.304688 406.457031 343.542969 C 406.457031 345.894531 406.613281 348.15625 406.90625 350.300781 C 406.933594 350.507812 407.09375 350.671875 407.300781 350.707031 C 409.832031 351.144531 412.527344 351.4375 415.347656 351.558594 Z M 431.027344 365.992188 C 430.605469 366.234375 430.152344 365.75 430.382812 365.324219 C 431.9375 362.464844 433.1875 359.058594 434.039062 355.28125 C 434.078125 355.097656 434.21875 354.957031 434.398438 354.910156 C 436.984375 354.273438 439.40625 353.480469 441.609375 352.550781 C 442 352.386719 442.410156 352.765625 442.25 353.160156 C 440.0625 358.601562 436.074219 363.125 431.027344 365.992188 Z M 435.070312 348.695312 C 435.035156 349.035156 435.359375 349.304688 435.6875 349.207031 C 438.871094 348.234375 441.625 347.015625 443.824219 345.628906 C 443.953125 345.546875 444.035156 345.410156 444.042969 345.257812 C 444.082031 344.691406 444.101562 344.121094 444.101562 343.542969 C 444.101562 340.601562 443.609375 337.769531 442.699219 335.132812 C 442.597656 334.839844 442.246094 334.722656 441.980469 334.886719 C 440.085938 336.058594 437.867188 337.070312 435.402344 337.902344 C 435.1875 337.972656 435.050781 338.183594 435.070312 338.410156 C 435.222656 340.082031 435.304688 341.796875 435.304688 343.542969 C 435.304688 345.296875 435.222656 347.019531 435.070312 348.695312 Z M 392.554688 345.257812 C 392.566406 345.410156 392.648438 345.546875 392.773438 345.628906 C 394.976562 347.015625 397.730469 348.234375 400.910156 349.207031 C 401.238281 349.304688 401.5625 349.035156 401.53125 348.695312 C 401.378906 347.019531 401.296875 345.296875 401.296875 343.542969 C 401.296875 341.796875 401.375 340.082031 401.53125 338.410156 C 401.550781 338.183594 401.414062 337.972656 401.195312 337.902344 C 398.734375 337.070312 396.515625 336.058594 394.617188 334.886719 C 394.351562 334.722656 394 334.839844 393.902344 335.132812 C 392.992188 337.769531 392.5 340.601562 392.5 343.542969 C 392.5 344.121094 392.519531 344.691406 392.554688 345.257812 Z M 402.5625 355.28125 C 402.519531 355.097656 402.378906 354.957031 402.199219 354.910156 C 399.613281 354.273438 397.195312 353.480469 394.992188 352.550781 C 394.597656 352.386719 394.191406 352.765625 394.351562 353.160156 C 396.535156 358.601562 400.523438 363.125 405.574219 365.992188 C 405.996094 366.234375 406.445312 365.75 406.214844 365.324219 C 404.660156 362.464844 403.410156 359.058594 402.5625 355.28125 Z M 439.949219 329.503906 C 440.089844 329.71875 440.03125 330.003906 439.816406 330.148438 C 438.425781 331.074219 436.730469 331.917969 434.785156 332.644531 C 434.507812 332.75 434.207031 332.578125 434.144531 332.289062 C 433.292969 328.316406 432.003906 324.742188 430.382812 321.765625 C 430.152344 321.335938 430.605469 320.855469 431.027344 321.09375 C 434.632812 323.144531 437.695312 326.035156 439.949219 329.503906 Z M 401.816406 332.644531 C 402.09375 332.75 402.394531 332.578125 402.453125 332.289062 C 403.308594 328.316406 404.597656 324.742188 406.214844 321.765625 C 406.445312 321.335938 405.996094 320.855469 405.574219 321.09375 C 401.96875 323.144531 398.90625 326.035156 396.652344 329.503906 C 396.511719 329.71875 396.570312 330.003906 396.78125 330.148438 C 398.171875 331.074219 399.867188 331.917969 401.816406 332.644531 Z M 401.816406 332.644531 " fill-opacity="1" fill-rule="evenodd"/></g><g clip-path="url(#a917d20782)"><path fill="#182b5c" d="M 812.660156 343.542969 C 812.660156 326.445312 798.796875 312.582031 781.699219 312.582031 C 764.597656 312.582031 750.738281 326.445312 750.738281 343.542969 C 750.738281 360.644531 764.597656 374.503906 781.699219 374.503906 C 798.796875 374.503906 812.660156 360.644531 812.660156 343.542969 Z M 778.550781 368.21875 C 778.855469 368.429688 779.246094 368.199219 779.246094 367.832031 L 779.246094 357.207031 C 779.246094 356.949219 779.039062 356.734375 778.777344 356.722656 C 776.53125 356.632812 774.332031 356.441406 772.207031 356.15625 C 771.859375 356.109375 771.574219 356.433594 771.675781 356.769531 C 772.363281 359.09375 773.222656 361.175781 774.199219 362.953125 C 775.652344 365.605469 777.164062 367.261719 778.550781 368.21875 Z M 784.875 356.710938 C 784.613281 356.722656 784.40625 356.9375 784.40625 357.199219 L 784.40625 367.644531 C 784.40625 368.023438 784.816406 368.25 785.117188 368.023438 C 786.425781 367.039062 787.835938 365.433594 789.199219 362.953125 C 790.171875 361.175781 791.03125 359.09375 791.722656 356.769531 C 791.820312 356.433594 791.535156 356.109375 791.191406 356.15625 C 789.144531 356.433594 787.03125 356.617188 784.875 356.710938 Z M 784.910156 351.546875 C 784.636719 351.558594 784.40625 351.339844 784.40625 351.0625 L 784.40625 340.90625 C 784.40625 340.644531 784.609375 340.433594 784.871094 340.417969 C 787.636719 340.277344 790.308594 339.953125 792.832031 339.460938 C 793.121094 339.40625 793.390625 339.609375 793.414062 339.902344 C 793.496094 341.085938 793.539062 342.304688 793.539062 343.542969 C 793.539062 345.894531 793.382812 348.15625 793.09375 350.300781 C 793.0625 350.507812 792.90625 350.671875 792.699219 350.707031 C 790.246094 351.128906 787.636719 351.417969 784.910156 351.546875 Z M 778.742188 335.261719 C 779.015625 335.277344 779.246094 335.058594 779.246094 334.78125 L 779.246094 319.257812 C 779.246094 318.886719 778.855469 318.660156 778.550781 318.867188 C 777.164062 319.828125 775.652344 321.484375 774.199219 324.136719 C 772.761719 326.75 771.582031 330.023438 770.816406 333.761719 C 770.761719 334.023438 770.929688 334.273438 771.1875 334.328125 C 773.527344 334.800781 776.0625 335.125 778.742188 335.261719 Z M 784.40625 334.765625 C 784.40625 335.042969 784.636719 335.265625 784.914062 335.25 C 787.496094 335.101562 789.945312 334.785156 792.207031 334.328125 C 792.464844 334.273438 792.632812 334.023438 792.578125 333.761719 C 791.8125 330.023438 790.632812 326.75 789.199219 324.136719 C 787.835938 321.65625 786.425781 320.050781 785.117188 319.066406 C 784.816406 318.839844 784.40625 319.066406 784.40625 319.445312 Z M 778.746094 351.558594 C 779.019531 351.570312 779.246094 351.347656 779.246094 351.074219 L 779.246094 340.917969 C 779.246094 340.65625 779.039062 340.445312 778.78125 340.433594 C 775.925781 340.296875 773.164062 339.96875 770.5625 339.460938 C 770.277344 339.40625 770.003906 339.609375 769.984375 339.902344 C 769.898438 341.085938 769.855469 342.304688 769.855469 343.542969 C 769.855469 345.894531 770.011719 348.15625 770.304688 350.300781 C 770.332031 350.507812 770.492188 350.671875 770.695312 350.707031 C 773.226562 351.144531 775.925781 351.4375 778.746094 351.558594 Z M 794.425781 365.992188 C 794 366.234375 793.550781 365.75 793.78125 365.324219 C 795.335938 362.464844 796.585938 359.058594 797.4375 355.28125 C 797.476562 355.097656 797.617188 354.957031 797.796875 354.910156 C 800.382812 354.273438 802.804688 353.480469 805.003906 352.550781 C 805.398438 352.386719 805.804688 352.765625 805.648438 353.160156 C 803.460938 358.601562 799.472656 363.125 794.425781 365.992188 Z M 798.464844 348.695312 C 798.433594 349.035156 798.757812 349.304688 799.085938 349.207031 C 802.269531 348.234375 805.023438 347.015625 807.222656 345.628906 C 807.351562 345.546875 807.433594 345.410156 807.441406 345.257812 C 807.480469 344.691406 807.5 344.121094 807.5 343.542969 C 807.5 340.601562 807.003906 337.769531 806.097656 335.132812 C 805.996094 334.839844 805.644531 334.722656 805.378906 334.886719 C 803.484375 336.058594 801.261719 337.070312 798.800781 337.902344 C 798.585938 337.972656 798.449219 338.183594 798.46875 338.410156 C 798.621094 340.082031 798.699219 341.796875 798.699219 343.542969 C 798.699219 345.296875 798.621094 347.019531 798.464844 348.695312 Z M 755.953125 345.257812 C 755.960938 345.410156 756.042969 345.546875 756.171875 345.628906 C 758.371094 347.015625 761.128906 348.234375 764.308594 349.207031 C 764.636719 349.304688 764.960938 349.035156 764.929688 348.695312 C 764.773438 347.019531 764.695312 345.296875 764.695312 343.542969 C 764.695312 341.796875 764.773438 340.082031 764.925781 338.410156 C 764.949219 338.183594 764.808594 337.972656 764.59375 337.902344 C 762.132812 337.070312 759.914062 336.058594 758.015625 334.886719 C 757.75 334.722656 757.398438 334.839844 757.296875 335.132812 C 756.390625 337.769531 755.898438 340.601562 755.898438 343.542969 C 755.898438 344.121094 755.914062 344.691406 755.953125 345.257812 Z M 765.957031 355.28125 C 765.917969 355.097656 765.777344 354.957031 765.597656 354.910156 C 763.011719 354.273438 760.59375 353.480469 758.390625 352.550781 C 757.996094 352.386719 757.589844 352.765625 757.75 353.160156 C 759.933594 358.601562 763.921875 363.125 768.972656 365.992188 C 769.394531 366.234375 769.84375 365.75 769.613281 365.324219 C 768.058594 362.464844 766.808594 359.058594 765.957031 355.28125 Z M 803.347656 329.503906 C 803.488281 329.71875 803.429688 330.003906 803.214844 330.148438 C 801.824219 331.074219 800.128906 331.917969 798.183594 332.644531 C 797.90625 332.75 797.605469 332.578125 797.542969 332.289062 C 796.691406 328.316406 795.402344 324.742188 793.78125 321.765625 C 793.550781 321.335938 794 320.855469 794.425781 321.09375 C 798.03125 323.144531 801.09375 326.035156 803.347656 329.503906 Z M 765.214844 332.644531 C 765.488281 332.75 765.792969 332.578125 765.851562 332.289062 C 766.703125 328.316406 767.992188 324.742188 769.613281 321.765625 C 769.84375 321.335938 769.394531 320.855469 768.972656 321.09375 C 765.367188 323.144531 762.300781 326.035156 760.050781 329.503906 C 759.910156 329.71875 759.964844 330.003906 760.179688 330.148438 C 761.570312 331.074219 763.265625 331.917969 765.214844 332.644531 Z M 765.214844 332.644531 " fill-opacity="1" fill-rule="evenodd"/></g><g fill="#182b5c" fill-opacity="1"><g transform="translate(438.720304, 273.803752)"><g><path d="M -3.015625 -24.28125 L -10.71875 -26.046875 L -8.375 -36.28125 L -1.90625 -34.796875 C 4.875 -33.242188 7.535156 -29.285156 6.078125 -22.921875 L 3.859375 -13.234375 C 2.398438 -6.867188 -1.71875 -4.460938 -8.5 -6.015625 L -39.53125 -13.125 C -46.300781 -14.6875 -48.957031 -18.648438 -47.5 -25.015625 L -45.28125 -34.703125 C -43.820312 -41.066406 -39.707031 -43.46875 -32.9375 -41.90625 L -28.25 -40.84375 L -30.59375 -30.609375 L -36.59375 -31.984375 C -37 -32.078125 -37.390625 -32.015625 -37.765625 -31.796875 C -38.140625 -31.578125 -38.375 -31.265625 -38.46875 -30.859375 L -39.578125 -26 C -39.671875 -25.59375 -39.59375 -25.210938 -39.34375 -24.859375 C -39.101562 -24.515625 -38.78125 -24.296875 -38.375 -24.203125 L -4.796875 -16.5 C -4.378906 -16.40625 -3.988281 -16.460938 -3.625 -16.671875 C -3.257812 -16.878906 -3.03125 -17.1875 -2.9375 -17.59375 L -1.828125 -22.453125 C -1.734375 -22.859375 -1.800781 -23.238281 -2.03125 -23.59375 C -2.269531 -23.957031 -2.597656 -24.1875 -3.015625 -24.28125 Z M -3.015625 -24.28125 "/></g></g></g><g fill="#182b5c" fill-opacity="1"><g transform="translate(453.272948, 222.517455)"><g><path d="M -16.953125 -50.90625 L 9.984375 -33.953125 C 15.867188 -30.242188 17.070312 -25.628906 13.59375 -20.109375 L 8 -11.21875 C 4.519531 -5.6875 -0.160156 -4.773438 -6.046875 -8.484375 L -32.984375 -25.4375 C -38.867188 -29.132812 -40.070312 -33.75 -36.59375 -39.28125 L -31 -48.171875 C -27.519531 -53.691406 -22.835938 -54.601562 -16.953125 -50.90625 Z M 5.15625 -23.90625 L -23.984375 -42.25 C -24.335938 -42.476562 -24.722656 -42.550781 -25.140625 -42.46875 C -25.566406 -42.394531 -25.894531 -42.179688 -26.125 -41.828125 L -28.78125 -37.609375 C -29 -37.253906 -29.050781 -36.867188 -28.9375 -36.453125 C -28.832031 -36.035156 -28.601562 -35.710938 -28.25 -35.484375 L 0.890625 -17.140625 C 1.253906 -16.921875 1.644531 -16.851562 2.0625 -16.9375 C 2.488281 -17.019531 2.8125 -17.238281 3.03125 -17.59375 L 5.6875 -21.8125 C 5.914062 -22.164062 5.972656 -22.546875 5.859375 -22.953125 C 5.753906 -23.367188 5.519531 -23.6875 5.15625 -23.90625 Z M 5.15625 -23.90625 "/></g></g></g><g fill="#182b5c" fill-opacity="1"><g transform="translate(483.573444, 177.22339)"><g><path d="M 12.125 -8.6875 L 3.15625 -2.25 L -21 -35.953125 C -25.039062 -41.609375 -24.410156 -46.34375 -19.109375 -50.15625 L -14.359375 -53.546875 C -11.234375 -55.785156 -8.273438 -56.347656 -5.484375 -55.234375 C -5.703125 -58.191406 -4.207031 -60.816406 -1 -63.109375 L 3.75 -66.515625 C 9.050781 -70.316406 13.722656 -69.390625 17.765625 -63.734375 L 41.921875 -30.03125 L 32.9375 -23.59375 L 8.234375 -58.078125 C 7.992188 -58.421875 7.660156 -58.632812 7.234375 -58.71875 C 6.816406 -58.8125 6.4375 -58.734375 6.09375 -58.484375 L 2.625 -56 C 2.28125 -55.757812 2.082031 -55.425781 2.03125 -55 C 1.988281 -54.570312 2.085938 -54.1875 2.328125 -53.84375 L 27.03125 -19.359375 L 18.03125 -12.921875 L -6.671875 -47.40625 C -6.910156 -47.75 -7.238281 -47.960938 -7.65625 -48.046875 C -8.070312 -48.140625 -8.457031 -48.0625 -8.8125 -47.8125 L -12.28125 -45.328125 C -12.613281 -45.085938 -12.804688 -44.753906 -12.859375 -44.328125 C -12.910156 -43.898438 -12.816406 -43.515625 -12.578125 -43.171875 Z M 12.125 -8.6875 "/></g></g></g><g fill="#182b5c" fill-opacity="1"><g transform="translate(544.13066, 139.916359)"><g><path d="M 10.890625 -55.328125 C 17.222656 -56.898438 21.226562 -54.3125 22.90625 -47.5625 L 25.34375 -37.671875 C 27.007812 -30.921875 24.675781 -26.757812 18.34375 -25.1875 L 9.671875 -23.046875 L 14.484375 -3.578125 L 3.765625 -0.921875 L -8.5 -50.53125 Z M 14.921875 -33.78125 L 11.875 -46.140625 C 11.769531 -46.546875 11.535156 -46.863281 11.171875 -47.09375 C 10.816406 -47.332031 10.441406 -47.40625 10.046875 -47.3125 L 4.046875 -45.828125 L 7.859375 -30.40625 L 13.859375 -31.890625 C 14.253906 -31.984375 14.554688 -32.222656 14.765625 -32.609375 C 14.972656 -32.992188 15.023438 -33.382812 14.921875 -33.78125 Z M 14.921875 -33.78125 "/></g></g></g><g fill="#182b5c" fill-opacity="1"><g transform="translate(595.675755, 129.984058)"><g><path d="M 26.59375 -48.96875 L 37.609375 -47.984375 L 33.96875 -6.6875 C 33.363281 0.25 29.804688 3.429688 23.296875 2.859375 L 13.5625 2 C 7.050781 1.425781 4.097656 -2.328125 4.703125 -9.265625 L 8.34375 -50.5625 L 19.34375 -49.59375 L 15.625 -7.34375 C 15.582031 -6.925781 15.691406 -6.546875 15.953125 -6.203125 C 16.222656 -5.859375 16.566406 -5.671875 16.984375 -5.640625 L 21.234375 -5.265625 C 21.660156 -5.222656 22.03125 -5.347656 22.34375 -5.640625 C 22.65625 -5.941406 22.832031 -6.300781 22.875 -6.71875 Z M 26.59375 -48.96875 "/></g></g></g><g fill="#182b5c" fill-opacity="1"><g transform="translate(649.477789, 138.062787)"><g><path d="M 17.3125 -37.953125 L 21 -46.609375 L 46.421875 -35.765625 L 42.734375 -27.109375 L 35.09375 -30.359375 L 18.734375 8 L 8.5625 3.65625 L 24.921875 -34.703125 Z M 17.3125 -37.953125 "/></g></g></g><g fill="#182b5c" fill-opacity="1"><g transform="translate(692.324778, 159.256116)"><g><path d="M 17.375 2.65625 L 26.75 10.53125 L 20.859375 17.53125 L 3.03125 2.546875 L 35.921875 -36.5625 L 53.75 -21.578125 L 47.953125 -14.6875 L 38.578125 -22.5625 L 30.859375 -13.375 L 39.625 -6 L 34.03125 0.640625 L 25.265625 -6.734375 Z M 17.375 2.65625 "/></g></g></g><g fill="#182b5c" fill-opacity="1"><g transform="translate(727.09026, 191.422691)"><g><path d="M 25.703125 1.65625 L 7.9375 12.734375 L 2.09375 3.359375 L 45.46875 -23.671875 L 55.859375 -7 C 59.316406 -1.445312 58.09375 3.164062 52.1875 6.84375 L 47.15625 9.984375 C 43.59375 12.203125 40.519531 12.34375 37.9375 10.40625 C 38.53125 13.144531 37.394531 15.410156 34.53125 17.203125 L 17.375 27.890625 L 11.53125 18.5 L 27.953125 8.265625 C 28.847656 7.703125 29.03125 6.992188 28.5 6.140625 Z M 44.9375 -10.328125 L 32.265625 -2.421875 L 35.359375 2.546875 C 35.578125 2.898438 35.898438 3.113281 36.328125 3.1875 C 36.753906 3.257812 37.144531 3.1875 37.5 2.96875 L 47.484375 -3.25 C 47.847656 -3.476562 48.082031 -3.796875 48.1875 -4.203125 C 48.300781 -4.617188 48.25 -5.003906 48.03125 -5.359375 Z M 44.9375 -10.328125 "/></g></g></g><g fill="#182b5c" fill-opacity="1"><g transform="translate(753.032565, 238.527238)"><g><path d="M 43.9375 23.0625 L 41.59375 12.828125 L 45.515625 11.921875 C 45.921875 11.828125 46.25 11.601562 46.5 11.25 C 46.75 10.90625 46.820312 10.523438 46.71875 10.109375 L 45.75 5.875 C 45.65625 5.46875 45.421875 5.15625 45.046875 4.9375 C 44.671875 4.726562 44.28125 4.671875 43.875 4.765625 L 35.03125 6.796875 C 34.613281 6.890625 34.285156 7.113281 34.046875 7.46875 C 33.804688 7.820312 33.734375 8.203125 33.828125 8.609375 L 35.421875 15.546875 C 36.773438 21.929688 34.113281 25.890625 27.4375 27.421875 L 16.734375 29.875 C 9.953125 31.425781 5.832031 29.019531 4.375 22.65625 L 2.296875 13.578125 C 0.835938 7.210938 3.5 3.253906 10.28125 1.703125 L 15.4375 0.515625 L 17.78125 10.75 L 12.234375 12.03125 C 11.828125 12.125 11.5 12.34375 11.25 12.6875 C 11.007812 13.039062 10.9375 13.421875 11.03125 13.828125 L 12.140625 18.609375 C 12.222656 19.015625 12.453125 19.328125 12.828125 19.546875 C 13.203125 19.765625 13.59375 19.828125 14 19.734375 L 23.78125 17.484375 C 24.195312 17.390625 24.523438 17.160156 24.765625 16.796875 C 25.003906 16.441406 25.082031 16.0625 25 15.65625 L 23.40625 8.734375 C 21.945312 2.367188 24.601562 -1.585938 31.375 -3.140625 L 41.3125 -5.40625 C 48.082031 -6.96875 52.195312 -4.566406 53.65625 1.796875 L 55.609375 10.34375 C 57.066406 16.695312 54.410156 20.65625 47.640625 22.21875 Z M 43.9375 23.0625 "/></g></g></g><g fill="#182b5c" fill-opacity="1"><g transform="translate(568.551746, 497.716715)"><g><path d="M 23.828125 -15.609375 C 23.785156 -15.191406 23.738281 -14.8125 23.6875 -14.46875 C 23.644531 -14.132812 23.601562 -13.75 23.5625 -13.3125 C 23.519531 -12.832031 23.484375 -12.40625 23.453125 -12.03125 C 23.429688 -11.65625 23.382812 -11.222656 23.3125 -10.734375 C 23.269531 -10.285156 23.210938 -9.882812 23.140625 -9.53125 C 23.078125 -9.175781 23.023438 -8.773438 22.984375 -8.328125 C 22.921875 -7.734375 22.878906 -7.191406 22.859375 -6.703125 C 22.847656 -6.210938 22.8125 -5.660156 22.75 -5.046875 C 22.6875 -4.421875 22.625 -3.859375 22.5625 -3.359375 C 22.5 -2.859375 22.4375 -2.28125 22.375 -1.625 L 22.25 -0.328125 C 22.238281 -0.296875 22.203125 -0.128906 22.140625 0.171875 C 22.078125 0.484375 21.960938 0.75 21.796875 0.96875 C 21.265625 1.582031 20.359375 1.921875 19.078125 1.984375 C 17.796875 2.054688 16.394531 2.019531 14.875 1.875 C 13.9375 1.78125 13.140625 1.691406 12.484375 1.609375 C 11.835938 1.535156 11.195312 1.390625 10.5625 1.171875 C 9.925781 0.953125 9.132812 0.617188 8.1875 0.171875 C 7.851562 -0.00390625 7.460938 -0.21875 7.015625 -0.46875 C 6.578125 -0.726562 6.195312 -1.019531 5.875 -1.34375 C 5.4375 -1.8125 5.085938 -2.242188 4.828125 -2.640625 C 4.578125 -3.035156 4.304688 -3.488281 4.015625 -4 C 3.566406 -4.8125 3.191406 -5.546875 2.890625 -6.203125 C 2.585938 -6.867188 2.367188 -7.625 2.234375 -8.46875 C 2.109375 -9.320312 2.035156 -10.457031 2.015625 -11.875 C 2.015625 -12.195312 2.007812 -12.679688 2 -13.328125 C 1.988281 -13.972656 2.023438 -14.722656 2.109375 -15.578125 C 2.171875 -16.140625 2.269531 -16.785156 2.40625 -17.515625 C 2.550781 -18.253906 2.71875 -18.96875 2.90625 -19.65625 C 3.101562 -20.351562 3.257812 -20.921875 3.375 -21.359375 C 3.5 -21.804688 3.5625 -22.03125 3.5625 -22.03125 C 3.757812 -22.5625 3.960938 -23.03125 4.171875 -23.4375 C 4.390625 -23.851562 4.644531 -24.296875 4.9375 -24.765625 C 5.507812 -25.679688 5.941406 -26.300781 6.234375 -26.625 C 6.546875 -26.957031 7.144531 -27.460938 8.03125 -28.140625 C 8.914062 -28.816406 9.894531 -29.34375 10.96875 -29.71875 C 11.613281 -29.96875 12.273438 -30.132812 12.953125 -30.21875 C 13.628906 -30.3125 14.28125 -30.382812 14.90625 -30.4375 C 15.820312 -30.488281 16.632812 -30.492188 17.34375 -30.453125 C 18.050781 -30.421875 18.554688 -30.390625 18.859375 -30.359375 L 19.296875 -30.3125 C 19.359375 -30.3125 19.582031 -30.285156 19.96875 -30.234375 C 20.351562 -30.179688 20.789062 -30.117188 21.28125 -30.046875 C 21.769531 -29.984375 22.210938 -29.925781 22.609375 -29.875 C 23.015625 -29.820312 23.242188 -29.78125 23.296875 -29.75 C 23.492188 -29.601562 23.671875 -29.425781 23.828125 -29.21875 C 23.992188 -29.007812 24.054688 -28.703125 24.015625 -28.296875 C 23.992188 -28.085938 23.960938 -27.894531 23.921875 -27.71875 C 23.890625 -27.539062 23.863281 -27.332031 23.84375 -27.09375 L 23.6875 -25.53125 C 23.625 -24.820312 23.5625 -24.144531 23.5 -23.5 C 23.4375 -22.863281 23.335938 -22.453125 23.203125 -22.265625 C 23.054688 -22.097656 22.90625 -21.96875 22.75 -21.875 C 22.59375 -21.789062 22.476562 -21.722656 22.40625 -21.671875 C 22.375 -21.648438 22.265625 -21.609375 22.078125 -21.546875 C 21.898438 -21.484375 21.722656 -21.460938 21.546875 -21.484375 C 21.242188 -21.515625 20.976562 -21.613281 20.75 -21.78125 C 20.53125 -21.957031 20.265625 -22.101562 19.953125 -22.21875 C 19.835938 -22.269531 19.585938 -22.328125 19.203125 -22.390625 C 18.816406 -22.460938 18.441406 -22.523438 18.078125 -22.578125 C 17.710938 -22.628906 17.453125 -22.660156 17.296875 -22.671875 C 16.054688 -22.796875 15.078125 -22.703125 14.359375 -22.390625 C 13.648438 -22.085938 13.035156 -21.601562 12.515625 -20.9375 C 12.378906 -20.800781 12.242188 -20.601562 12.109375 -20.34375 C 11.972656 -20.09375 11.875 -19.898438 11.8125 -19.765625 C 11.769531 -19.640625 11.726562 -19.453125 11.6875 -19.203125 C 11.644531 -18.953125 11.578125 -18.664062 11.484375 -18.34375 C 11.390625 -17.925781 11.28125 -17.578125 11.15625 -17.296875 C 11.039062 -17.015625 10.941406 -16.679688 10.859375 -16.296875 C 10.773438 -15.921875 10.703125 -15.375 10.640625 -14.65625 C 10.609375 -14.363281 10.585938 -14.070312 10.578125 -13.78125 C 10.566406 -13.5 10.546875 -13.195312 10.515625 -12.875 L 10.46875 -12.421875 C 10.4375 -12.128906 10.425781 -11.90625 10.4375 -11.75 C 10.445312 -11.601562 10.457031 -11.441406 10.46875 -11.265625 C 10.46875 -11.234375 10.519531 -11.039062 10.625 -10.6875 C 10.726562 -10.34375 10.835938 -9.957031 10.953125 -9.53125 C 11.078125 -9.113281 11.195312 -8.734375 11.3125 -8.390625 C 11.4375 -8.046875 11.515625 -7.847656 11.546875 -7.796875 C 11.597656 -7.691406 11.664062 -7.550781 11.75 -7.375 C 11.84375 -7.207031 11.976562 -7.035156 12.15625 -6.859375 C 12.351562 -6.679688 12.613281 -6.5 12.9375 -6.3125 C 13.257812 -6.132812 13.644531 -6.023438 14.09375 -5.984375 C 15.1875 -5.878906 15.765625 -6.175781 15.828125 -6.875 C 15.859375 -7.113281 15.863281 -7.328125 15.84375 -7.515625 C 15.832031 -7.710938 15.835938 -7.914062 15.859375 -8.125 C 15.890625 -8.457031 15.929688 -8.75 15.984375 -9 C 16.046875 -9.25 16.09375 -9.523438 16.125 -9.828125 C 16.175781 -10.410156 16.015625 -10.820312 15.640625 -11.0625 C 15.265625 -11.3125 14.988281 -11.445312 14.8125 -11.46875 C 14.65625 -11.476562 14.519531 -11.46875 14.40625 -11.4375 C 14.289062 -11.40625 14.15625 -11.398438 14 -11.421875 C 13.789062 -11.441406 13.570312 -11.570312 13.34375 -11.8125 C 13.113281 -12.0625 13.019531 -12.394531 13.0625 -12.8125 C 13.113281 -13.375 13.164062 -13.875 13.21875 -14.3125 C 13.28125 -14.75 13.351562 -15.253906 13.4375 -15.828125 C 13.457031 -16.117188 13.484375 -16.429688 13.515625 -16.765625 C 13.554688 -17.109375 13.59375 -17.296875 13.625 -17.328125 C 13.625 -17.359375 13.640625 -17.453125 13.671875 -17.609375 C 13.703125 -17.765625 13.773438 -17.90625 13.890625 -18.03125 C 14.054688 -18.269531 14.285156 -18.457031 14.578125 -18.59375 C 14.878906 -18.738281 15.269531 -18.785156 15.75 -18.734375 C 16.195312 -18.691406 16.585938 -18.640625 16.921875 -18.578125 C 17.265625 -18.515625 17.644531 -18.460938 18.0625 -18.421875 C 18.59375 -18.367188 19.0625 -18.320312 19.46875 -18.28125 C 19.882812 -18.238281 20.363281 -18.207031 20.90625 -18.1875 C 21.113281 -18.195312 21.289062 -18.203125 21.4375 -18.203125 C 21.582031 -18.203125 21.757812 -18.191406 21.96875 -18.171875 C 22.707031 -18.097656 23.203125 -17.890625 23.453125 -17.546875 C 23.710938 -17.210938 23.84375 -16.851562 23.84375 -16.46875 C 23.851562 -16.09375 23.847656 -15.804688 23.828125 -15.609375 Z M 23.828125 -15.609375 "/></g></g></g><g fill="#182b5c" fill-opacity="1"><g transform="translate(609.732557, 499.920991)"><g><path d="M 19.828125 -23.265625 C 19.878906 -22.785156 19.90625 -22.289062 19.90625 -21.78125 C 19.914062 -21.28125 19.925781 -20.550781 19.9375 -19.59375 C 19.945312 -19.175781 19.941406 -18.625 19.921875 -17.9375 C 19.898438 -17.25 19.738281 -16.4375 19.4375 -15.5 C 19.132812 -14.570312 18.566406 -13.546875 17.734375 -12.421875 C 17.210938 -11.703125 16.503906 -11.003906 15.609375 -10.328125 C 14.722656 -9.660156 13.507812 -9.25 11.96875 -9.09375 C 11.757812 -9.070312 11.535156 -9.054688 11.296875 -9.046875 C 11.054688 -9.046875 10.816406 -9.03125 10.578125 -9 L 10.484375 -9 C 10.273438 -8.976562 10.035156 -8.925781 9.765625 -8.84375 C 9.492188 -8.769531 9.257812 -8.609375 9.0625 -8.359375 C 8.863281 -8.109375 8.789062 -7.695312 8.84375 -7.125 C 8.875 -6.832031 8.910156 -6.570312 8.953125 -6.34375 C 9.003906 -6.125 9.046875 -5.867188 9.078125 -5.578125 C 9.140625 -5.296875 9.175781 -5.015625 9.1875 -4.734375 C 9.195312 -4.460938 9.234375 -4.171875 9.296875 -3.859375 C 9.328125 -3.617188 9.363281 -3.398438 9.40625 -3.203125 C 9.457031 -3.015625 9.5 -2.800781 9.53125 -2.5625 C 9.5625 -2.269531 9.53125 -1.941406 9.4375 -1.578125 C 9.351562 -1.210938 8.957031 -0.992188 8.25 -0.921875 C 7.71875 -0.867188 7.242188 -0.832031 6.828125 -0.8125 C 6.410156 -0.800781 5.953125 -0.769531 5.453125 -0.71875 C 4.972656 -0.675781 4.539062 -0.601562 4.15625 -0.5 C 3.78125 -0.40625 3.34375 -0.332031 2.84375 -0.28125 C 2.394531 -0.238281 2.050781 -0.316406 1.8125 -0.515625 C 1.570312 -0.722656 1.414062 -1.164062 1.34375 -1.84375 C 1.320312 -2.070312 1.304688 -2.296875 1.296875 -2.515625 C 1.285156 -2.742188 1.285156 -2.960938 1.296875 -3.171875 C 1.265625 -3.441406 1.222656 -3.679688 1.171875 -3.890625 C 1.128906 -4.097656 1.109375 -4.320312 1.109375 -4.5625 C 1.097656 -4.9375 1.097656 -5.273438 1.109375 -5.578125 C 1.117188 -5.878906 1.109375 -6.222656 1.078125 -6.609375 C 1.015625 -7.234375 0.925781 -7.859375 0.8125 -8.484375 C 0.707031 -9.117188 0.625 -9.75 0.5625 -10.375 C 0.476562 -11.226562 0.414062 -11.992188 0.375 -12.671875 C 0.34375 -13.347656 0.285156 -14.097656 0.203125 -14.921875 C 0.128906 -15.609375 0.0507812 -16.289062 -0.03125 -16.96875 C -0.113281 -17.644531 -0.1875 -18.3125 -0.25 -18.96875 C -0.363281 -20.09375 -0.453125 -21.113281 -0.515625 -22.03125 C -0.585938 -22.945312 -0.691406 -23.984375 -0.828125 -25.140625 C -0.941406 -25.972656 -1.046875 -26.710938 -1.140625 -27.359375 C -1.234375 -28.003906 -1.320312 -28.738281 -1.40625 -29.5625 C -1.5 -30.425781 -1.320312 -31.019531 -0.875 -31.34375 C -0.425781 -31.675781 0.140625 -31.878906 0.828125 -31.953125 C 1.128906 -31.984375 1.414062 -31.992188 1.6875 -31.984375 C 1.96875 -31.984375 2.242188 -32 2.515625 -32.03125 C 2.929688 -32.070312 3.335938 -32.125 3.734375 -32.1875 C 4.140625 -32.257812 4.53125 -32.316406 4.90625 -32.359375 C 5.175781 -32.390625 5.441406 -32.410156 5.703125 -32.421875 C 5.972656 -32.429688 6.242188 -32.445312 6.515625 -32.46875 C 6.898438 -32.476562 7.269531 -32.515625 7.625 -32.578125 C 7.976562 -32.648438 8.347656 -32.707031 8.734375 -32.75 C 10.703125 -33.007812 12.351562 -32.894531 13.6875 -32.40625 C 15.03125 -31.925781 16.109375 -31.25 16.921875 -30.375 C 17.390625 -29.851562 17.707031 -29.398438 17.875 -29.015625 C 18.050781 -28.628906 18.195312 -28.328125 18.3125 -28.109375 C 18.613281 -27.503906 18.910156 -26.863281 19.203125 -26.1875 C 19.492188 -25.519531 19.703125 -24.546875 19.828125 -23.265625 Z M 11.671875 -19.65625 C 11.648438 -19.925781 11.617188 -20.15625 11.578125 -20.34375 C 11.546875 -20.539062 11.515625 -20.773438 11.484375 -21.046875 C 11.460938 -21.304688 11.445312 -21.539062 11.4375 -21.75 C 11.4375 -21.957031 11.421875 -22.195312 11.390625 -22.46875 C 11.296875 -23.414062 11.003906 -24.125 10.515625 -24.59375 C 10.035156 -25.070312 9.5 -25.28125 8.90625 -25.21875 L 8.71875 -25.203125 C 8.46875 -25.171875 8.234375 -25.054688 8.015625 -24.859375 C 7.734375 -24.617188 7.546875 -24.253906 7.453125 -23.765625 C 7.367188 -23.273438 7.359375 -22.71875 7.421875 -22.09375 L 7.703125 -19.296875 C 7.785156 -18.460938 8.054688 -17.832031 8.515625 -17.40625 C 8.984375 -16.976562 9.453125 -16.804688 9.921875 -16.890625 C 10.253906 -16.921875 10.597656 -17.101562 10.953125 -17.4375 C 11.222656 -17.707031 11.425781 -18.003906 11.5625 -18.328125 C 11.695312 -18.648438 11.734375 -19.09375 11.671875 -19.65625 Z M 11.671875 -19.65625 "/></g></g></g></svg>